<?xml version="1.0" encoding="UTF-8" standalone="no"?>
<!-- Created with Inkscape (http://www.inkscape.org/) -->

<svg
   xmlns:dc="http://purl.org/dc/elements/1.1/"
   xmlns:cc="http://creativecommons.org/ns#"
   xmlns:rdf="http://www.w3.org/1999/02/22-rdf-syntax-ns#"
   xmlns:svg="http://www.w3.org/2000/svg"
   xmlns="http://www.w3.org/2000/svg"
   xmlns:sodipodi="http://sodipodi.sourceforge.net/DTD/sodipodi-0.dtd"
   xmlns:inkscape="http://www.inkscape.org/namespaces/inkscape"
   id="svg2"
   version="1.1"
   inkscape:version="0.91 r13725"
   xml:space="preserve"
   width="500.38751"
   height="243.89999"
   viewBox="0 0 500.38751 243.89999"
   sodipodi:docname="P Lab Logo Dark.svg"><metadata
     id="metadata8"><rdf:RDF><cc:Work
         rdf:about=""><dc:format>image/svg+xml</dc:format><dc:type
           rdf:resource="http://purl.org/dc/dcmitype/StillImage" /><dc:title></dc:title></cc:Work></rdf:RDF></metadata><defs
     id="defs6" /><sodipodi:namedview
     pagecolor="#ffffff"
     bordercolor="#666666"
     borderopacity="1"
     objecttolerance="10"
     gridtolerance="10"
     guidetolerance="10"
     inkscape:pageopacity="0"
     inkscape:pageshadow="2"
     inkscape:window-width="648"
     inkscape:window-height="480"
     id="namedview4"
     showgrid="false"
     inkscape:zoom="0.73143312"
     inkscape:cx="250.19376"
     inkscape:cy="121.95"
     inkscape:window-x="55"
     inkscape:window-y="24"
     inkscape:window-maximized="0"
     inkscape:current-layer="g10" /><g
     id="g10"
     inkscape:groupmode="layer"
     inkscape:label="ink_ext_XXXXXX"
     transform="matrix(1.25,0,0,-1.25,0,243.9)"><g
       id="g12"
       transform="scale(0.1,0.1)"><path
         d="m 1287,501.559 48.13,0 c 30.95,0 46.44,16.371 46.44,49.101 l 0,5.649 c 0,31.402 -15.49,47.121 -46.44,47.121 l -48.13,0 0,-101.871 z m 0,120.769 43.48,0 c 15.7,0 27.15,3.262 34.33,9.801 7.19,6.519 10.79,17.531 10.79,33 0,14.391 -3.99,24.402 -11.94,30.031 -7.97,5.649 -19.47,8.469 -34.51,8.469 l -42.15,0 0,-81.301 z m -21.56,-132.719 0,225.961 c 0,2.66 1,4.7 2.99,6.149 1.99,1.429 4.31,2.152 6.97,2.152 l 54.41,0 c 10.18,0 19.03,-0.781 26.55,-2.32 7.52,-1.551 14.53,-4.321 21.07,-8.301 6.51,-3.98 11.49,-9.789 14.92,-17.422 3.44,-7.629 5.14,-17.078 5.14,-28.367 0,-13.711 -2.54,-25.332 -7.62,-34.84 -5.09,-9.519 -11.95,-16.152 -20.58,-19.91 11.07,-4.422 19.53,-11.063 25.39,-19.91 5.86,-8.852 8.79,-21.231 8.79,-37.16 l 0,-5.969 c 0,-23.891 -5.98,-41.262 -17.91,-52.094 -11.96,-10.84 -27.87,-16.258 -47.8,-16.258 l -62.36,0 c -3.11,0 -5.55,0.828 -7.3,2.489 -1.78,1.66 -2.66,3.589 -2.66,5.8"
         style="fill:#315b9c;fill-opacity:1;fill-rule:nonzero;stroke:none"
         id="path14"
         inkscape:connector-curvature="0" /><path
         d="m 1439.64,489.941 0,140.36 c 0,2.211 0.99,4.09 2.99,5.64 1.99,1.547 4.53,2.321 7.63,2.321 2.87,0 5.3,-0.782 7.29,-2.352 1.99,-1.582 2.99,-3.469 2.99,-5.719 l 0,-16.461 c 3.98,7.379 9.84,13.641 17.59,18.801 7.74,5.141 16.7,7.719 26.88,7.719 l 11.6,0 c 2.21,0 4.2,-1.012 5.98,-3.039 1.78,-2.02 2.65,-4.383 2.65,-7.082 0,-2.699 -0.87,-5.059 -2.65,-7.09 -1.78,-2.019 -3.77,-3.019 -5.98,-3.019 l -11.6,0 c -11.5,0 -21.68,-4.481 -30.53,-13.411 -8.85,-8.949 -13.28,-20.589 -13.28,-34.918 l 0,-81.769 c 0,-2.211 -1.05,-4.192 -3.14,-5.961 -2.11,-1.762 -4.71,-2.641 -7.8,-2.641 -2.89,0 -5.37,0.879 -7.48,2.649 -2.09,1.769 -3.14,3.761 -3.14,5.972"
         style="fill:#315b9c;fill-opacity:1;fill-rule:nonzero;stroke:none"
         id="path16"
         inkscape:connector-curvature="0" /><path
         d="m 1560.09,524.781 c 0,-9.281 2.65,-16.211 7.95,-20.742 5.31,-4.527 12.28,-6.801 20.92,-6.801 10.39,0 20.29,3.871 29.68,11.621 9.4,7.743 14.1,15.469 14.1,23.231 l 0,21.23 -13.92,0 c -8.85,0 -16.33,-0.332 -22.4,-1 -6.1,-0.66 -12.11,-1.879 -18.09,-3.648 -5.98,-1.774 -10.51,-4.641 -13.59,-8.621 -3.11,-3.992 -4.65,-9.082 -4.65,-15.27 z m -21.58,-1.992 c 0,17.402 6.58,29.5 19.74,36.281 13.17,6.789 32.37,10.18 57.58,10.18 l 16.91,0 0,7.809 c 0,11.929 -3.2,22.293 -9.61,31.089 -6.42,8.793 -16.26,13.192 -29.53,13.192 -8.86,0 -16.87,-1.578 -24.06,-4.719 -7.19,-3.152 -11.01,-4.723 -11.44,-4.723 -2.66,0 -4.77,1.192 -6.31,3.602 -1.55,2.391 -2.33,5 -2.33,7.828 0,4.203 4.75,8.07 14.28,11.621 9.49,3.531 19.67,5.301 30.53,5.301 20.78,0 35.99,-6.02 45.6,-18.078 9.63,-12.051 14.44,-27.383 14.44,-45.953 l 0,-86.278 c 0,-2.429 -1,-4.472 -2.97,-6.132 -1.99,-1.661 -4.55,-2.489 -7.64,-2.489 -2.89,0 -5.25,0.828 -7.13,2.489 -1.89,1.66 -2.83,3.703 -2.83,6.132 l 0,14.598 c -14.82,-17.027 -31.52,-25.551 -50.1,-25.551 -13.28,0 -24.12,3.703 -32.52,11.121 -8.41,7.411 -12.61,18.301 -12.61,32.68"
         style="fill:#315b9c;fill-opacity:1;fill-rule:nonzero;stroke:none"
         id="path18"
         inkscape:connector-curvature="0" /><path
         d="m 1694.79,489.941 0,140.36 c 0,2.211 1,4.09 2.99,5.64 2,1.547 4.53,2.321 7.64,2.321 3.09,0 5.68,-0.774 7.79,-2.321 2.09,-1.55 3.15,-3.429 3.15,-5.64 l 0,-140.36 c 0,-2.211 -1.12,-4.203 -3.32,-5.972 -2.21,-1.77 -4.75,-2.649 -7.62,-2.649 -2.89,0 -5.37,0.879 -7.48,2.649 -2.09,1.769 -3.15,3.761 -3.15,5.972 z m 0,198.93 c -2.87,2.758 -4.31,6.02 -4.31,9.777 0,3.762 1.44,6.973 4.31,9.633 2.88,2.649 6.41,3.969 10.63,3.969 3.98,0 7.34,-1.32 10.12,-3.969 2.75,-2.66 4.14,-5.871 4.14,-9.633 0,-3.757 -1.39,-7.019 -4.14,-9.777 -2.78,-2.781 -6.14,-4.16 -10.12,-4.16 -4.22,0 -7.75,1.379 -10.63,4.16"
         style="fill:#315b9c;fill-opacity:1;fill-rule:nonzero;stroke:none"
         id="path20"
         inkscape:connector-curvature="0" /><path
         d="m 1758.17,489.941 0,140.36 c 0,2.429 1,4.371 2.97,5.801 1.99,1.437 4.53,2.16 7.64,2.16 2.66,0 4.98,-0.782 6.97,-2.352 1.99,-1.582 2.99,-3.48 2.99,-5.719 l 0,-15.48 c 3.75,7.168 9.51,13.219 17.25,18.148 7.75,4.922 16.81,7.391 27.2,7.391 15.94,0 29.75,-6.078 41.49,-18.25 11.72,-12.172 17.58,-26.77 17.58,-43.801 l 0,-88.258 c 0,-2.652 -1.12,-4.761 -3.32,-6.3 -2.21,-1.551 -4.75,-2.321 -7.62,-2.321 -2.66,0 -5.1,0.77 -7.31,2.309 -2.2,1.551 -3.32,3.641 -3.32,6.293 l 0,88.047 c 0,10.82 -4.1,20.519 -12.28,29.14 -8.19,8.602 -17.91,12.911 -29.2,12.911 -10.39,0 -19.57,-3.872 -27.54,-11.59 -7.95,-7.731 -11.93,-17.891 -11.93,-30.461 l 0,-88.047 c 0,-2.211 -1.12,-4.192 -3.32,-5.961 -2.21,-1.762 -4.77,-2.641 -7.64,-2.641 -3.11,0 -5.65,0.879 -7.64,2.649 -1.97,1.769 -2.97,3.761 -2.97,5.972"
         style="fill:#315b9c;fill-opacity:1;fill-rule:nonzero;stroke:none"
         id="path22"
         inkscape:connector-curvature="0" /><path
         d="m 1912.78,502.891 c 0,2.211 0.76,4.41 2.33,6.629 1.54,2.21 3.32,3.32 5.31,3.32 1.54,0 3.96,-1.281 7.29,-3.82 3.32,-2.551 8.08,-5.149 14.27,-7.79 6.19,-2.66 13.6,-3.992 22.23,-3.992 11.72,0 20.35,2.211 25.88,6.633 5.53,4.43 8.3,10.07 8.3,16.93 0,7.969 -2.81,14.32 -8.46,19.09 -5.64,4.75 -12.46,8.339 -20.41,10.75 -7.97,2.418 -15.99,4.859 -24.06,7.308 -8.07,2.442 -14.92,6.711 -20.57,12.789 -5.64,6.082 -8.45,14.211 -8.45,24.383 0,12.168 4.35,22.738 13.1,31.688 8.73,8.961 21.84,13.441 39.32,13.441 10.84,0 20.95,-1.719 30.35,-5.141 9.41,-3.429 14.1,-7.129 14.1,-11.121 0,-2.207 -0.88,-4.636 -2.64,-7.289 -1.77,-2.66 -3.88,-3.988 -6.3,-3.988 -0.67,0 -4.77,1.551 -12.29,4.648 -7.52,3.102 -15.16,4.641 -22.89,4.641 -11.07,0 -19.36,-2.602 -24.88,-7.801 -5.53,-5.199 -8.3,-11.051 -8.3,-17.551 0,-6.718 2.87,-12.027 8.59,-15.929 5.74,-3.899 12.6,-7.028 20.59,-9.391 7.96,-2.367 16.05,-4.758 24.25,-7.18 8.19,-2.429 15.04,-7.25 20.57,-14.437 5.53,-7.191 8.28,-16.5 8.28,-27.922 0,-13.269 -4.69,-23.719 -14.1,-31.348 -9.4,-7.632 -22.5,-11.453 -39.32,-11.453 -14.59,0 -26.93,2.602 -36.99,7.801 -10.08,5.199 -15.1,10.563 -15.1,16.102"
         style="fill:#315b9c;fill-opacity:1;fill-rule:nonzero;stroke:none"
         id="path24"
         inkscape:connector-curvature="0" /><path
         d="m 2129.13,550.922 c 0,-14.801 5.08,-27.281 15.27,-37.453 10.18,-10.149 24.03,-15.231 41.53,-15.231 22.15,0 38.77,8.953 49.84,26.84 l -71.99,75.863 c -4.79,-2.882 -8.71,-5.472 -11.76,-7.793 -3.06,-2.32 -6.6,-5.519 -10.64,-9.609 -4.03,-4.078 -7.07,-8.879 -9.14,-14.41 -2.09,-5.52 -3.11,-11.59 -3.11,-18.207 z m -21.91,-2 c 0,15.687 4.22,29.156 12.67,40.418 8.44,11.262 18.95,19.769 31.51,25.512 -8.44,9.929 -14.91,19.328 -19.46,28.168 -4.53,8.82 -6.79,18.871 -6.79,30.14 0,17.449 5.72,31.211 17.14,41.27 11.45,10.05 25.65,15.082 42.58,15.082 16.31,0 29.48,-3.762 39.51,-11.282 10.04,-7.511 15.08,-14.359 15.08,-20.558 0,-2.871 -1.01,-5.242 -3.02,-7.121 -2.02,-1.871 -4.46,-2.813 -7.37,-2.813 -1.78,0 -3.85,1.211 -6.19,3.641 -2.34,2.43 -4.69,5.133 -7.03,8.121 -2.34,2.98 -6.19,5.68 -11.54,8.121 -5.37,2.43 -11.51,3.641 -18.42,3.641 -12.07,0 -21.54,-3.602 -28.48,-10.762 -6.91,-7.18 -10.37,-16.738 -10.37,-28.672 0,-7.277 1.66,-14.578 5.02,-21.859 3.34,-7.289 6.86,-13.188 10.55,-17.731 3.69,-4.527 8.86,-10.429 15.56,-17.718 l 67.97,-73.551 c 6.49,14.582 10.28,34.679 11.39,60.301 0.21,3.32 1,5.628 2.32,6.96 1.33,1.329 3.87,1.989 7.64,1.989 6.19,0 9.3,-3.86 9.3,-11.598 0,-26.73 -5.55,-50.91 -16.6,-72.551 l 30.52,-32.961 c 1.33,-1.55 2,-3.097 2,-4.66 0,-2.48 -1.06,-4.668 -3.15,-6.59 -2.11,-1.91 -4.37,-2.871 -6.82,-2.871 -2.2,0 -4.29,1.012 -6.28,3.024 L 2249.5,511.16 C 2233.19,489.051 2210.89,478 2182.53,478 c -23.01,0 -41.33,6.879 -54.92,20.641 -13.6,13.769 -20.39,30.531 -20.39,50.281"
         style="fill:#315b9c;fill-opacity:1;fill-rule:nonzero;stroke:none"
         id="path26"
         inkscape:connector-curvature="0" /><path
         d="m 2387.26,550.328 0,102.863 c 0,24.11 6.48,41.93 19.41,53.43 12.95,11.488 29.71,17.25 50.27,17.25 21.02,0 37.66,-5.371 49.94,-16.09 12.27,-10.73 18.42,-23.851 18.42,-39.332 0,-5.301 -0.84,-8.84 -2.5,-10.609 -1.66,-1.781 -4.47,-2.66 -8.45,-2.66 -6.86,0 -10.51,2.769 -10.94,8.3 -0.24,3.309 -0.67,6.52 -1.33,9.622 -0.66,3.097 -1.99,6.589 -3.98,10.449 -2,3.871 -4.59,7.25 -7.82,10.129 -3.2,2.871 -7.67,5.242 -13.43,7.129 -5.75,1.871 -12.39,2.82 -19.91,2.82 -31.85,0 -47.77,-16.82 -47.77,-50.438 l 0,-102.863 c 0,-33.84 16.37,-50.758 49.1,-50.758 9.3,0 17.03,1.27 23.22,3.809 6.2,2.551 10.73,6.25 13.62,11.121 2.87,4.859 4.8,9 5.8,12.441 0.99,3.43 1.83,7.911 2.5,13.438 0.64,5.75 4.3,8.621 10.94,8.621 3.98,0 6.79,-0.941 8.45,-2.809 1.66,-1.89 2.5,-5.48 2.5,-10.793 0,-15.699 -6.25,-28.976 -18.75,-39.82 -12.5,-10.84 -29.37,-16.258 -50.6,-16.258 -20.35,0 -36.9,5.758 -49.61,17.258 -12.72,11.492 -19.08,29.41 -19.08,53.75"
         style="fill:#315b9c;fill-opacity:1;fill-rule:nonzero;stroke:none"
         id="path28"
         inkscape:connector-curvature="0" /><path
         d="m 2574.4,542.141 c 0,-11.219 4.05,-21.192 12.11,-29.879 8.07,-8.684 17.76,-13.024 29.05,-13.024 11.48,0 21.32,4.34 29.53,13.024 8.16,8.687 12.26,18.66 12.26,29.879 l 0,35.961 c 0,10.769 -4.14,20.457 -12.44,29.039 -8.3,8.578 -18.08,12.879 -29.35,12.879 -11.29,0 -20.98,-4.301 -29.05,-12.879 -8.06,-8.582 -12.11,-18.27 -12.11,-29.039 l 0,-35.961 z m -21.56,-0.102 0,36.16 c 0,16.821 6.19,31.36 18.58,43.629 12.38,12.293 27.09,18.422 44.14,18.422 17.03,0 31.85,-6.078 44.45,-18.25 12.62,-12.172 18.91,-26.77 18.91,-43.801 l 0,-36.16 c 0,-16.59 -6.35,-31.25 -19.07,-43.969 -12.73,-12.718 -27.5,-19.082 -44.29,-19.082 -16.6,0 -31.19,6.364 -43.81,19.082 -12.6,12.719 -18.91,27.379 -18.91,43.969"
         style="fill:#315b9c;fill-opacity:1;fill-rule:nonzero;stroke:none"
         id="path30"
         inkscape:connector-curvature="0" /><path
         d="m 2714.42,489.941 0,140.36 c 0,2.211 1,4.09 2.99,5.64 1.99,1.547 4.53,2.321 7.64,2.321 2.87,0 5.29,-0.782 7.28,-2.352 2,-1.582 2.99,-3.48 2.99,-5.719 l 0,-15.48 c 3.99,7.398 9.79,13.5 17.42,18.32 7.64,4.809 16.55,7.219 26.72,7.219 10.61,0 20.12,-3.059 28.54,-9.211 8.4,-6.129 14.59,-14.23 18.57,-24.258 5.53,10.918 12.83,19.239 21.9,24.938 9.08,5.691 18.59,8.531 28.53,8.531 15.06,0 28.11,-5.629 39.16,-16.922 11.06,-11.277 16.6,-26.328 16.6,-45.129 l 0,-88.258 c 0,-2.211 -1.05,-4.203 -3.16,-5.972 -2.11,-1.77 -4.71,-2.649 -7.79,-2.649 -2.87,0 -5.37,0.879 -7.46,2.641 -2.11,1.769 -3.17,3.75 -3.17,5.961 l 0,88.047 c 0,13.019 -3.81,23.281 -11.44,30.793 -7.64,7.5 -16.43,11.258 -26.37,11.258 -10.18,0 -19.2,-3.821 -27.05,-11.43 -7.85,-7.61 -11.78,-17.379 -11.78,-29.301 l 0,-89.699 c 0,-5.52 -3.65,-8.27 -10.96,-8.27 -7.07,0 -10.6,2.75 -10.6,8.27 l 0,89.371 c 0,11.699 -3.71,21.469 -11.11,29.301 -7.43,7.828 -16.33,11.758 -26.72,11.758 -10.41,0 -19.53,-3.821 -27.39,-11.43 -7.85,-7.61 -11.77,-17.82 -11.77,-30.621 l 0,-88.047 c 0,-2.211 -1.12,-4.192 -3.32,-5.961 -2.21,-1.762 -4.75,-2.641 -7.62,-2.641 -2.89,0 -5.37,0.879 -7.48,2.649 -2.09,1.769 -3.15,3.761 -3.15,5.972"
         style="fill:#315b9c;fill-opacity:1;fill-rule:nonzero;stroke:none"
         id="path32"
         inkscape:connector-curvature="0" /><path
         d="m 2994.79,531.898 c 0,-5.937 4.17,-12.867 12.45,-20.789 8.3,-7.918 17.75,-11.871 28.38,-11.871 10.84,0 20.41,4.391 28.69,13.192 8.3,8.8 12.46,18.699 12.46,29.711 l 0,35.961 c 0,10.769 -4.16,20.457 -12.46,29.039 -8.28,8.578 -18.07,12.879 -29.36,12.879 -10.62,0 -19.96,-3.86 -28.05,-11.559 -8.06,-7.699 -12.11,-17.832 -12.11,-30.359 l 0,-46.204 z m -21.56,-119.269 0,217.672 c 0,2.211 1,4.09 2.99,5.64 1.99,1.547 4.53,2.321 7.64,2.321 2.87,0 5.29,-0.782 7.28,-2.352 1.99,-1.582 2.99,-3.469 2.99,-5.719 l 0,-15.461 c 3.99,7.161 9.84,13.211 17.6,18.141 7.73,4.918 16.7,7.379 26.87,7.379 16.37,0 30.41,-6.078 42.13,-18.25 11.74,-12.172 17.6,-26.77 17.6,-43.801 l 0,-36.16 c 0,-16.59 -5.92,-31.25 -17.75,-43.969 -11.84,-12.718 -25.51,-19.082 -40.98,-19.082 -9.75,0 -18.69,2.524 -26.88,7.563 -8.18,5.027 -14.16,11.129 -17.93,18.289 l 0,-92.192 c 0,-1.988 -1.05,-3.867 -3.14,-5.648 -2.11,-1.77 -4.71,-2.672 -7.79,-2.672 -2.89,0 -5.37,0.891 -7.48,2.66 -2.09,1.782 -3.15,3.653 -3.15,5.641"
         style="fill:#315b9c;fill-opacity:1;fill-rule:nonzero;stroke:none"
         id="path34"
         inkscape:connector-curvature="0" /><path
         d="m 3132.18,541.371 0,88.598 c 0,1.992 1.03,3.871 3.14,5.633 2.09,1.777 4.69,2.66 7.8,2.66 2.65,0 5.09,-0.883 7.3,-2.653 2.21,-1.757 3.32,-3.64 3.32,-5.621 l 0,-88.386 c 0,-11.032 4.08,-20.852 12.27,-29.454 8.18,-8.617 17.93,-12.91 29.2,-12.91 11.28,0 21.01,4.293 29.19,12.91 8.19,8.602 12.29,18.422 12.29,29.454 l 0,88.718 c 0,2.211 1.11,4.078 3.32,5.629 2.21,1.539 4.75,2.313 7.64,2.313 2.87,0 5.35,-0.774 7.46,-2.321 2.09,-1.55 3.14,-3.429 3.14,-5.64 l 0,-88.93 c 0,-16.59 -6.25,-31.141 -18.75,-43.633 -12.5,-12.5 -27.26,-18.75 -44.29,-18.75 -17.25,0 -32.08,6.25 -44.46,18.75 -12.38,12.492 -18.57,27.043 -18.57,43.633"
         style="fill:#315b9c;fill-opacity:1;fill-rule:nonzero;stroke:none"
         id="path36"
         inkscape:connector-curvature="0" /><path
         d="m 3297.74,530.031 0,174.61 c 0,2.199 1.1,4.078 3.3,5.621 2.23,1.547 4.65,2.328 7.31,2.328 2.87,0 5.43,-0.781 7.64,-2.32 2.2,-1.54 3.32,-3.411 3.32,-5.61 l 0,-66.398 42.79,0 c 2.21,0 4.04,-0.903 5.49,-2.711 1.42,-1.801 2.15,-3.93 2.15,-6.41 0,-2.481 -0.73,-4.621 -2.15,-6.43 -1.45,-1.801 -3.28,-2.691 -5.49,-2.691 l -42.79,0 0,-89.5 c 0,-10.758 2.26,-18.282 6.79,-22.551 4.53,-4.278 12.56,-6.41 24.07,-6.41 l 9.27,0 c 2.89,0 5.26,-0.981 7.15,-2.918 1.88,-1.942 2.81,-4.289 2.81,-7.032 0,-2.75 -0.93,-5.148 -2.81,-7.211 -1.89,-2.058 -4.26,-3.078 -7.15,-3.078 l -9.27,0 c -34.96,0 -52.43,16.231 -52.43,48.711"
         style="fill:#315b9c;fill-opacity:1;fill-rule:nonzero;stroke:none"
         id="path38"
         inkscape:connector-curvature="0" /><path
         d="m 3407.57,524.781 c 0,-9.281 2.65,-16.211 7.95,-20.742 5.31,-4.527 12.28,-6.801 20.92,-6.801 10.39,0 20.29,3.871 29.68,11.621 9.4,7.743 14.1,15.469 14.1,23.231 l 0,21.23 -13.92,0 c -8.85,0 -16.33,-0.332 -22.4,-1 -6.1,-0.66 -12.11,-1.879 -18.09,-3.648 -5.98,-1.774 -10.51,-4.641 -13.59,-8.621 -3.11,-3.992 -4.65,-9.082 -4.65,-15.27 z m -21.58,-1.992 c 0,17.402 6.58,29.5 19.74,36.281 13.17,6.789 32.37,10.18 57.58,10.18 l 16.91,0 0,7.809 c 0,11.929 -3.2,22.293 -9.6,31.089 -6.43,8.793 -16.27,13.192 -29.54,13.192 -8.86,0 -16.87,-1.578 -24.06,-4.719 -7.19,-3.152 -11.01,-4.723 -11.44,-4.723 -2.66,0 -4.77,1.192 -6.31,3.602 -1.55,2.391 -2.33,5 -2.33,7.828 0,4.203 4.75,8.07 14.28,11.621 9.49,3.531 19.67,5.301 30.53,5.301 20.78,0 35.99,-6.02 45.6,-18.078 9.63,-12.051 14.44,-27.383 14.44,-45.953 l 0,-86.278 c 0,-2.429 -1,-4.472 -2.97,-6.132 -1.99,-1.661 -4.55,-2.489 -7.64,-2.489 -2.89,0 -5.25,0.828 -7.13,2.489 -1.89,1.66 -2.83,3.703 -2.83,6.132 l 0,14.598 c -14.82,-17.027 -31.52,-25.551 -50.1,-25.551 -13.28,0 -24.12,3.703 -32.52,11.121 -8.41,7.411 -12.61,18.301 -12.61,32.68"
         style="fill:#315b9c;fill-opacity:1;fill-rule:nonzero;stroke:none"
         id="path40"
         inkscape:connector-curvature="0" /><path
         d="m 3541.61,530.031 0,174.61 c 0,2.199 1.11,4.078 3.32,5.621 2.21,1.547 4.65,2.328 7.31,2.328 2.87,0 5.41,-0.781 7.61,-2.32 2.23,-1.54 3.32,-3.411 3.32,-5.61 l 0,-66.398 42.82,0 c 2.2,0 4.02,-0.903 5.47,-2.711 1.44,-1.801 2.16,-3.93 2.16,-6.41 0,-2.481 -0.72,-4.621 -2.16,-6.43 -1.45,-1.801 -3.27,-2.691 -5.47,-2.691 l -42.82,0 0,-89.5 c 0,-10.758 2.27,-18.282 6.82,-22.551 4.53,-4.278 12.54,-6.41 24.04,-6.41 l 9.3,0 c 2.87,0 5.25,-0.981 7.13,-2.918 1.87,-1.942 2.83,-4.289 2.83,-7.032 0,-2.75 -0.96,-5.148 -2.83,-7.211 -1.88,-2.058 -4.26,-3.078 -7.13,-3.078 l -9.3,0 c -34.94,0 -52.42,16.231 -52.42,48.711"
         style="fill:#315b9c;fill-opacity:1;fill-rule:nonzero;stroke:none"
         id="path42"
         inkscape:connector-curvature="0" /><path
         d="m 3640.83,489.941 0,140.36 c 0,2.211 1,4.09 2.97,5.64 1.99,1.547 4.53,2.321 7.64,2.321 3.1,0 5.7,-0.774 7.79,-2.321 2.11,-1.55 3.16,-3.429 3.16,-5.64 l 0,-140.36 c 0,-2.211 -1.11,-4.203 -3.32,-5.972 -2.2,-1.77 -4.76,-2.649 -7.63,-2.649 -2.88,0 -5.38,0.879 -7.47,2.649 -2.1,1.769 -3.14,3.761 -3.14,5.972 z m 0,198.93 c -2.89,2.758 -4.32,6.02 -4.32,9.777 0,3.762 1.43,6.973 4.32,9.633 2.87,2.649 6.41,3.969 10.61,3.969 3.98,0 7.36,-1.32 10.11,-3.969 2.78,-2.66 4.16,-5.871 4.16,-9.633 0,-3.757 -1.38,-7.019 -4.16,-9.777 -2.75,-2.781 -6.13,-4.16 -10.11,-4.16 -4.2,0 -7.74,1.379 -10.61,4.16"
         style="fill:#315b9c;fill-opacity:1;fill-rule:nonzero;stroke:none"
         id="path44"
         inkscape:connector-curvature="0" /><path
         d="m 3719.46,542.141 c 0,-11.219 4.05,-21.192 12.11,-29.879 8.07,-8.684 17.76,-13.024 29.05,-13.024 11.48,0 21.32,4.34 29.53,13.024 8.16,8.687 12.26,18.66 12.26,29.879 l 0,35.961 c 0,10.769 -4.14,20.457 -12.44,29.039 -8.3,8.578 -18.09,12.879 -29.35,12.879 -11.29,0 -20.98,-4.301 -29.05,-12.879 -8.06,-8.582 -12.11,-18.27 -12.11,-29.039 l 0,-35.961 z m -21.56,-0.102 0,36.16 c 0,16.821 6.19,31.36 18.57,43.629 12.39,12.293 27.09,18.422 44.15,18.422 17.03,0 31.85,-6.078 44.45,-18.25 12.62,-12.172 18.9,-26.77 18.9,-43.801 l 0,-36.16 c 0,-16.59 -6.34,-31.25 -19.06,-43.969 -12.73,-12.718 -27.5,-19.082 -44.29,-19.082 -16.61,0 -31.2,6.364 -43.81,19.082 -12.6,12.719 -18.91,27.379 -18.91,43.969"
         style="fill:#315b9c;fill-opacity:1;fill-rule:nonzero;stroke:none"
         id="path46"
         inkscape:connector-curvature="0" /><path
         d="m 3859.48,489.941 0,140.36 c 0,2.429 1,4.371 2.99,5.801 1.99,1.437 4.53,2.16 7.64,2.16 2.65,0 4.98,-0.782 6.95,-2.352 1.99,-1.582 2.99,-3.48 2.99,-5.719 l 0,-15.48 c 3.77,7.168 9.51,13.219 17.26,18.148 7.74,4.922 16.8,7.391 27.21,7.391 15.92,0 29.75,-6.078 41.47,-18.25 11.73,-12.172 17.59,-26.77 17.59,-43.801 l 0,-88.258 c 0,-2.652 -1.11,-4.761 -3.32,-6.3 -2.2,-1.551 -4.76,-2.321 -7.63,-2.321 -2.66,0 -5.08,0.77 -7.31,2.309 -2.2,1.551 -3.3,3.641 -3.3,6.293 l 0,88.047 c 0,10.82 -4.1,20.519 -12.28,29.14 -8.19,8.602 -17.91,12.911 -29.2,12.911 -10.41,0 -19.57,-3.872 -27.54,-11.59 -7.97,-7.731 -11.96,-17.891 -11.96,-30.461 l 0,-88.047 c 0,-2.211 -1.11,-4.192 -3.32,-5.961 -2.2,-1.762 -4.74,-2.641 -7.61,-2.641 -3.11,0 -5.65,0.879 -7.64,2.649 -1.99,1.769 -2.99,3.761 -2.99,5.972"
         style="fill:#315b9c;fill-opacity:1;fill-rule:nonzero;stroke:none"
         id="path48"
         inkscape:connector-curvature="0" /><path
         d="m 747.781,954.207 c -7.527,-3.988 -16.386,-4.098 -23.98,-4.098 -19.289,0 -34.531,12.938 -39.797,33.778 -5.352,21.163 -1.848,50.593 18.672,63.313 3.965,2.46 18.918,5.56 23.945,5.56 19.961,0 38.215,-20.47 42.461,-36.85 5.43,-20.707 7.102,-46.676 -21.301,-61.703 z m -13.367,113.033 c -5.566,1.67 -20.019,0.87 -29.512,-2.78 -28.957,-11.14 -37.793,-33.11 -39.531,-62.37 -1.062,-17.473 4.734,-38.02 16.145,-50.149 11.328,-12.043 27,-18.679 44.129,-18.679 1.652,0 3.32,0.066 5,0.187 18.906,1.422 30.41,9.192 41.867,20.414 22.246,21.731 15.027,52.397 10.886,64.567 -9.57,27.93 -19.707,40.03 -48.984,48.81"
         style="fill:#315b9c;fill-opacity:1;fill-rule:nonzero;stroke:none"
         id="path50"
         inkscape:connector-curvature="0" /><path
         d="m 804.551,511.359 c 0.262,-0.039 0.527,-0.078 0.793,-0.121 l -2.336,0.352 1.543,-0.231"
         style="fill:#315b9c;fill-opacity:1;fill-rule:nonzero;stroke:none"
         id="path52"
         inkscape:connector-curvature="0" /><path
         d="m 810.77,510.43 c 0,0.011 0,0.019 0,0.019 -1.817,0.27 -3.622,0.512 -5.426,0.789 l 5.426,-0.808"
         style="fill:#315b9c;fill-opacity:1;fill-rule:nonzero;stroke:none"
         id="path54"
         inkscape:connector-curvature="0" /><path
         d="m 889.434,1012.34 c 5.918,-37.188 29.082,-71 60.351,-89.36 -2.336,0.09 -4.68,0.149 -7.031,0.149 -57.852,0 -116.961,-30.258 -143.738,-73.598 -20.11,-32.609 -27.871,-83.929 -21.594,-139.82 -16.277,35.617 -47.942,92.859 -91.848,117.379 -6.668,3.738 -14.746,5.621 -24.011,5.621 -15.032,0 -32.161,-5.18 -46.524,-14 -6.941,38.187 -26.348,82.219 -33.469,96.379 -13.75,27.172 -51.941,63.07 -89.351,76.89 32.515,11.57 61.304,24.04 84.168,49.24 27.937,30.81 32.461,63.73 13.742,100.44 13.953,-4.77 27.051,-7.09 39.851,-7.09 8.641,0 15.633,1.08 20.743,1.87 1.32,0.21 2.547,0.4 3.679,0.55 48.938,6.75 79.739,33.63 91.661,79.95 15.253,-41.29 50.89,-80.92 89.296,-98.45 1.496,-0.68 3.071,-1.42 4.739,-2.21 14.023,-6.64 33.23,-15.74 61.804,-15.74 4.68,0 9.477,0.25 14.336,0.75 -22.761,-23.46 -32.261,-54.75 -26.804,-88.95 z m 977.936,623.05 c -17.33,22.91 -36.21,22.57 -63.41,17.22 -32.49,-6.38 -47.84,-12.46 -84.93,-2.56 -11.29,3.02 -22.46,7.7 -33.71,12 2.68,6.81 3.87,14.39 4.49,22.79 0.61,8.29 -1.8,16.87 -3.97,24.78 -3.24,11.77 -15.26,20.56 -12.28,34.01 4.25,19.16 13.47,35.48 -13.55,36.6 -2.7,0.11 -2.38,-3.89 0.18,-4.12 22.73,-1.95 -4.34,-30.88 -2.82,-40.72 1.47,-9.44 4.66,-17.34 8.33,-26.14 5.93,-14.22 2.93,-27.3 -2.51,-39.94 -4.62,1.2 -9.25,2.19 -13.96,2.7 -115.41,12.4 -165.36,-85.02 -257.7,-130.19 -33.19,-16.23 -70.56,-25.02 -106.74,-35.95 5.04,6.9 10.13,13.83 15.59,20.29 11.47,13.63 17.09,29.43 19.51,46.76 5.12,36.79 7.39,30.31 34.34,49.12 8.36,5.84 17.1,12.12 19.31,22.95 7.33,35.72 9.99,60.73 37.4,88.11 22.75,22.76 -17.02,73.16 10.19,86.12 0.22,0.1 0.19,0.38 -0.02,0.46 -7.1,3.38 -19.83,2.19 -21.31,-8.09 -1.62,-11.24 -0.47,-19.13 3.25,-29.82 15.32,-44.13 -23.36,-50.45 -41.92,-74.02 -19.09,-24.25 22.14,-52.68 -29.11,-71.26 -0.31,-0.13 -0.56,-0.2 -0.88,-0.31 0.63,3.11 0.58,6.24 -0.7,9.34 -5.82,14.22 -19.67,14.62 -32.75,19 -13.21,4.42 -15.69,33.79 -26.68,43.81 -9.05,8.25 -19.8,8.99 -31.63,9.12 -2.91,0.02 -3.02,-5.04 -0.11,-5.12 13.57,-0.39 20.74,-4.81 28.94,-16.69 7.31,-10.54 7.33,-23.91 14.22,-34.24 5.31,-7.95 12.47,-10.42 21.43,-13.28 15.04,-4.82 9.1,-15.25 2.48,-24.43 -3.08,-2.39 -5.61,-6.32 -8.56,-11.49 -5.42,-9.48 -3.09,-25.52 -3.09,-36.6 -0.03,-26.98 -43.9,-73.65 -71.84,-94.39 -32.94,-19.31 -60.09,-49.37 -85.51,-76.91 -21.89,-23.71 -41.68,-44.32 -58.35,-67.91 -0.37,3.22 -1.03,6.44 -2.11,9.61 -4.27,12.69 -11.13,23.51 -13.81,36.8 -2.02,9.88 -0.43,19.96 -0.39,29.91 0.06,20.3 -9.06,30.97 -29.41,29.18 -2.5,-0.21 -2.54,-4.3 0.02,-4.42 28.77,-1.4 15.68,-38.57 15.8,-56.5 0.07,-9.76 3.24,-18.25 7.1,-26.98 6.98,-15.73 3.72,-29.15 2.43,-45.4 -0.13,-1.69 -5.86,-18.55 -8.86,-26.37 -19.14,-49.61 -31,-105.53 -73.295,-132.79 -23.235,-15.93 -37.156,-23.16 -76.914,-28 -6.184,-0.76 -13.848,-0.2 -23.496,2.19 -15.274,3.75 -31.328,10.44 -47.696,19.88 -21.211,12.28 -36.464,33.17 -46.093,47.82 -16.934,25.76 -27.2,47.72 -32.293,69.11 l -0.481,2.01 c -3.984,16.54 -8.105,33.65 9.961,40.8 9.817,3.94 15.945,8.36 21.895,15.73 5.293,6.7 7.519,15.77 9.492,23.79 l 0.195,0.79 c 1.543,6.39 3.223,13.18 5.293,19.97 2.59,8.27 8.899,13.21 16.887,13.21 2.32,0 4.605,-0.43 6.785,-1.26 2.551,-0.98 3.535,-1.11 4.172,-1.11 l 2.195,0.16 0.574,1.71 c 0.715,2.13 -1.171,3.77 -4.285,6.13 -12.343,8.88 -22.375,9.26 -33.933,1.57 -9.375,-6.25 -12.981,-20.73 -16.157,-33.5 -1.148,-4.62 -2.234,-9 -3.472,-12.33 -3.449,-9.19 -11.582,-12.53 -20.199,-16.06 -7.184,-2.96 -14.579,-6 -19.52,-12.72 -1.348,3.17 -3.484,7.32 -6.445,12.82 -1.328,2.48 -2.442,4.52 -2.871,5.55 -3.457,8.28 -6.707,16.6 -10.032,25.2 -8.394,21.65 -16.328,42.1 -5.839,63.15 4.535,9.1 10.89,17.27 17.042,25.16 6.172,7.92 12.559,16.11 17.278,25.41 3.113,6.14 6.16,12.83 9.383,19.91 16.035,35.17 34.199,75.02 71.132,75.02 7.383,0 15.391,-1.62 23.809,-4.83 8.77,-3.35 18.027,-5.13 26.777,-5.13 10.86,0 20.801,2.61 29.524,7.73 8.847,5.21 16.875,11.28 24.637,17.13 15.703,11.87 29.257,22.11 44.875,22.11 11.179,0 22.683,-5.46 35.195,-16.71 1.61,-1.45 4.43,-0.88 5.43,1.13 0.59,1.19 0.49,2.58 -0.31,3.64 -6.6,8.82 -24.214,29.32 -45.3,29.32 -6.656,0 -13.074,-2.07 -19.058,-6.14 -7.075,-4.82 -13.918,-10.97 -20.539,-16.93 -15.145,-13.61 -30.809,-27.7 -50.833,-27.7 -7.769,0 -15.691,2.04 -24.199,6.24 -9.761,4.8 -24.383,11.17 -38.593,11.17 -5.477,0 -10.516,-0.96 -15.008,-2.87 -37.598,-16.05 -54.153,-51.18 -70.164,-85.15 l -3.118,-6.61 c -5.128,-10.8 -13.574,-20.98 -21.738,-30.83 -7.527,-9.09 -15.281,-18.42 -20.508,-28.34 -14.367,33.83 -26.086,62.96 -36.086,93.31 -6.062,18.34 -0.625,34.57 5.137,51.76 5.293,15.79 10.766,32.11 6.582,50.16 -4.043,17.62 -9.832,34.39 -15.933,51.43 4.238,9.17 12.656,16.73 21.558,24.71 8.098,7.26 16.457,14.76 21.723,23.81 13.426,23.13 23.301,23.56 47.137,24.59 l 0.82,0.04 c 11.445,0.56 18.348,0.9 26.055,11.16 10.183,13.58 8.996,15.97 8.418,17.12 -0.528,1.06 -1.583,1.69 -2.801,1.69 -1.184,0 -3.371,0 -14.055,-10.09 -3.437,-3.25 -7.832,-4.69 -14.238,-4.69 -3.977,0 -8.133,0.54 -12.547,1.12 -7.356,0.98 -15.305,1.73 -21.164,0.4 -15.918,-3.58 -23.543,-13.6 -30.567,-24.42 -9.824,-15.05 -20.546,-23.86 -32.949,-34.07 -2.168,-1.78 -4.394,-3.61 -6.672,-5.51 -2.793,7.98 -5.261,15.57 -7.515,23.07 -13.852,47 11.797,70.83 41.504,98.45 4.968,4.62 10.027,9.33 14.976,14.22 11.778,11.62 17.871,29.85 16.723,50 -1.223,21.87 -12.512,33.37 -24.465,45.54 -5.227,5.32 -10.625,10.82 -15.32,17.47 l -1.282,1.17 -1.191,0 c -1.105,0 -2.156,-0.57 -2.742,-1.48 l -0.781,-1.73 0.586,-1.25 c 3.503,-7.57 7.886,-14.66 12.125,-21.53 13.253,-21.45 24.699,-39.98 7.824,-66.6 -7.532,-11.81 -18.684,-20.07 -30.489,-28.82 -12.375,-9.16 -25.156,-18.63 -33.3,-32.52 -25.071,-42.75 -9.004,-86.98 6.535,-129.74 5.933,-16.34 12.078,-33.24 15.601,-49.49 3.176,-14.56 -1.961,-29.25 -7.398,-44.8 -1.301,-3.7 -2.629,-7.48 -3.84,-11.3 -8.933,17.88 -27.5,34.04 -47.344,40.65 -12.929,4.31 -25.117,4.97 -38.027,5.69 -9.18,0.51 -18.66,1.02 -29.031,2.9 -14.348,2.61 -42.571,29.45 -47.727,73.65 l -0.969,8.32 -3.75,-7.5 c -5.457,-10.92 -4.773,-27.9 1.868,-46.6 7.656,-21.54 21.281,-39.38 34.707,-45.46 10.129,-4.54 23.593,-7.15 36.945,-7.15 3.727,0 7.352,0.21 10.75,0.62 2.527,0.3 5.09,0.46 7.617,0.46 27.949,0 51.25,-17.83 59.375,-45.41 2.832,-9.67 15.879,-42.38 21.453,-56.34 l 1.992,-5.02 c 4.094,-10.73 8.762,-21.4 13.286,-31.71 2.222,-5.08 4.453,-10.15 6.621,-15.25 5.73,-13.43 11.668,-26.93 17.625,-40.45 -6.289,-3.71 -12.239,-5.5 -18.125,-5.5 -15.215,0 -27.918,12.2 -41.375,25.11 -12.688,12.18 -25.813,24.77 -42.231,28.07 -10.125,2.04 -30.886,-5.81 -48.886,-12.73 -10.973,-4.22 -21.344,-8.2 -26.063,-8.37 -6.797,0 -13.867,6.28 -18.086,10.03 -2.402,2.13 -3.601,3.17 -4.797,3.59 l -4.804,1.71 1.593,-4.84 c 4.485,-13.65 13.992,-19.24 18.567,-21.93 l 0.972,-0.57 c 4.582,-2.81 9.321,-4.18 14.465,-4.18 8.496,0 16.613,3.79 24.453,7.45 3.262,1.51 6.516,3.04 9.766,4.27 19.055,7.25 33.184,6.17 44.746,-3.3 l 5.762,-4.75 c 21.64,-17.88 46.172,-38.14 70.926,-38.14 7.472,0 14.589,1.92 21.203,5.7 2.734,-6.21 5.41,-12.23 8.027,-18.11 17.461,-39.29 32.527,-73.2 45.234,-116.65 0.098,-0.5 0.43,-2.96 0.813,-5.74 0.769,-5.65 1.109,-8.02 1.316,-9.14 -8.41,-36.24 -26.933,-56.45 -60,-65.48 -15.515,-4.2 -34.797,-2.97 -60.566,4.06 -7.234,1.98 -20.117,4.89 -33.75,7.96 -23.567,5.33 -50.281,11.35 -57.52,14.64 -10.031,4.49 -19.16,11.2 -27.16,19.95 -16.812,18.28 -28.035,41.15 -38.887,63.26 l -0.71,1.47 c -17.61,35.95 -38.758,63.23 -64.629,83.38 -2.332,11.34 -7.981,22.02 -15.086,34.73 -8.34,14.93 -6.36,24.72 -3.852,37.11 0.891,4.4 1.809,8.95 2.387,14.14 1.687,14.97 -0.344,25.06 -8.059,40.05 -4.004,7.65 -13,17.44 -21.125,20.59 l -8.687,3.37 5.828,-7.27 c 1.387,-1.73 2.683,-3.25 3.894,-4.68 5.012,-5.88 8.313,-9.78 11.614,-20.17 5.422,-17.16 3.816,-26.18 -3.75,-44.58 -3.34,-8.09 -4.325,-15.42 -3.41,-25.31 0.976,-10.69 5.121,-19.72 9.472,-28.35 -6.363,3.29 -12.781,6.19 -19.441,8.78 -13.606,5.33 -27.942,7.73 -41.809,10.06 -5.547,0.92 -11.094,1.85 -16.609,2.96 -1.524,0.73 -5.215,1.86 -15.32,4.89 -6.583,1.98 -14.766,4.44 -16.106,5.09 -25.625,12.55 -44.785,38.39 -61.687,61.2 -2.727,3.67 -5.422,7.3 -8.098,10.82 -17.246,22.59 -33.457,39.5 -51.027,53.22 -6.141,4.78 -16.09,10.73 -24.5005,13.21 -3.1445,0.92 -9.5312,1.85 -16.2968,2.82 -7.5313,1.1 -18.8985,2.74 -20.6954,3.99 l -1.1406,0.69 -0.8594,0 c -1.1914,0 -2.2968,-0.65 -2.871,-1.7 -0.5782,-1.04 -0.5391,-2.27 0.1523,-3.39 6.2031,-8.99 15.7227,-11 24.9336,-12.95 4.1289,-0.87 8.4101,-1.77 12.3633,-3.3 25.3515,-9.85 43.6245,-37.16 59.7465,-61.25 3.203,-4.78 6.32,-9.42 9.367,-13.75 23.836,-33.84 44.351,-54.63 68.054,-68.83 -7.839,-8.9 -14.992,-19.88 -21.359,-29.64 -6.004,-9.22 -11.187,-17.18 -14.93,-20.2 -11.484,-9.35 -26.75,-14.71 -41.882,-14.71 -13.372,0 -25.649,4.04 -35.5,11.68 -1.082,0.84 -2.227,1.81 -3.411,2.83 -4.707,4 -10.039,8.55 -16.3863,9.4 -12.3828,1.66 -20.1641,-10.49 -26.3555,-20.1 -1.6992,-2.64 -3.3086,-5.14 -4.7187,-6.91 l -1.1211,-1.43 1.6015,-3.18 2.6172,0.05 0.6836,0.52 c 2.0391,1.61 4.1602,3.7 6.4141,5.9 6.4687,6.36 14.1211,13.61 21.7031,11.71 6.1331,-1.52 13.1411,-8.08 19.3241,-13.88 3.086,-2.89 5.996,-5.62 8.75,-7.71 12.461,-9.34 30.781,-12.78 47.442,-9.14 19.191,4.28 36.589,16.53 50.324,35.46 2.769,3.8 5.457,8.42 8.308,13.31 5.371,9.24 11.426,19.66 19.063,25.63 10.703,-4.43 21.738,-7.78 33.699,-10.24 31.699,-6.54 57.68,-12.75 79.406,-27.94 7.676,-5.38 25.469,-23.94 31.375,-30.7 15.293,-17.24 25.871,-39.31 36.106,-60.65 6.289,-13.11 12.804,-26.68 20.332,-38.97 26.648,-43.52 72.18,-52.07 116.23,-60.35 0.305,-0.06 0.598,-0.09 0.891,-0.1 8.523,-21.88 15.625,-41 8.394,-65.61 -5.562,-18.98 -20.769,-35.9 -42.793,-47.65 -27.285,-14.53 -47.871,-22.95 -70.781,-28.96 -22.058,10.51 -37.273,15.86 -58.472,15.92 -19.465,0 -36.309,-14.25 -52.598,-28.026 -11.328,-9.57 -22.024,-18.613 -33.266,-22.969 -21.226,-8.203 -46.883,-6.789 -68.23,3.633 -21.36,10.41 -26.016,27.742 -31.414,47.822 -1.926,7.2 -3.93,14.63 -6.821,22.03 -4.793,12.28 -10.503,25.34 -19.734,37.68 -6.601,8.88 -16.086,13.2 -28.984,13.2 -7.5,0 -15.274,-1.37 -22.801,-2.68 -6.633,-1.18 -12.902,-2.28 -19.008,-2.4 -11.758,0 -19.891,9.57 -28.4921,19.7 -9.5508,11.23 -19.5039,22.94 -34.9922,20.61 -23.2304,-3.46 -42.5898,-22.32 -59.152325,-57.63 -0.527344,-1.08 -0.46875,-2.3 0.140625,-3.27 1.23047,-1.96 4.57813,-2.15 5.99219,-0.33 11.55471,14.58 21.57421,24.84 33.49611,34.32 6.2617,4.97 12.3164,7.49 17.9883,7.49 12.2382,0 21.6328,-11.23 29.9257,-21.13 1.7461,-2.1 3.4258,-4.1 5.0391,-5.88 9.5856,-10.66 24.9886,-12.11 38.7886,-12.13 5.594,0 11.336,0.87 16.883,1.7 l 4.309,0.63 c 2.207,0.32 4.351,0.46 6.363,0.46 24.301,0 30.578,-22.5 36.66,-44.27 l 0.864,-3.07 c 1.211,-4.28 2.058,-8.75 2.886,-13.07 1.594,-8.29 3.215,-16.793 7.453,-23.969 -5.632,1.472 -10.898,2.488 -15.937,3.086 -22.734,2.672 -37.512,-12.348 -51.516,-26.758 -3.894,-4.016 -7.578,-7.805 -11.414,-11.203 -0.383,-0.344 -1.015,-0.86 -1.797,-1.504 -9.843,-8.063 -14.621,-12.852 -13.437,-16.582 0.305,-0.949 1.269,-2.578 4.836,-2.809 9.09,0 27.801,14.199 30.301,16.559 20.539,19.394 47.988,23.387 75.234,11.062 22.473,-10.175 43.27,-17.211 71.785,-18.531 22.668,-1.019 42.055,7.34 57.949,15.563 9.614,4.992 18.008,12.511 26.125,19.777 l 4.61,4.109 c 0.539,0.469 1.062,0.903 1.601,1.301 1.282,-5.703 3.157,-11.34 4.715,-16.035 0.742,-2.238 1.418,-4.258 1.914,-5.969 4.629,-15.836 -1.758,-21.176 -11.414,-29.265 -3.027,-2.532 -6.465,-5.403 -9.765,-8.852 -10.872,-11.328 -11.817,-30.539 -7.188,-42.871 1.57,-4.199 7.41,-10.301 11.563,-12.098 2.773,-1.211 5.773,-1.812 8.898,-1.812 6.824,0 12.605,2.922 14.977,4.66 2.367,1.801 4.433,3.601 3.671,5.859 -0.203,0.633 -0.957,2.063 -3.367,2.063 -1.301,0 -3.008,-0.379 -4.25,-0.66 l -0.652,-0.153 c -6.32,-1.328 -11.082,-0.238 -14.363,3.41 -4.622,5.153 -4.868,13.84 -4.747,14.93 0.985,7.453 13.043,19.543 21.305,25.75 5.473,4.121 12.055,10.063 14.477,19.531 1.343,5.34 -1.164,14.981 -4.074,26.141 -2.352,9.043 -4.786,18.367 -4.739,24.395 3.176,0.847 6.367,1.269 9.707,1.269 9.028,0 17.551,-3.047 26.574,-6.269 7.415,-2.649 15.071,-5.391 23.282,-6.446 35.515,-4.531 72.508,-30.277 94.226,-65.609 9.953,-16.149 42.004,-71.899 38.774,-114.149 -5.063,-6.461 -17.883,-27.82 -20.742,-36.941 -2.54,-7.949 -4.211,-15.031 -5.832,-21.879 -4.415,-18.711 -7.911,-33.492 -26.418,-49.781 -51.524,-45.36 -83.497,-88.988 -97.743,-133.399 -0.879,-2.75 -1.738,-5.531 -2.605,-8.3 -6.086,-19.602 -12.387,-39.86 -27.442,-54.539 -4.718,-4.602 -12.16,-10.082 -20.839,-10.082 -2.27,0 -4.551,0.378 -6.797,1.109 -7.91,2.59 -12.871,8.543 -18.125,14.851 -2.297,2.75 -4.68,5.598 -7.356,8.231 -7.195,7.027 -16.941,9.789 -26.379,12.449 -8.699,2.449 -17.714,5 -24.429,10.942 -4.922,4.328 -6.887,10.218 -8.957,16.468 -2.727,8.211 -5.535,16.692 -15.41,21.121 -2.625,1.168 -5.594,1.758 -8.836,1.758 -11.664,0 -24.993,-7.711 -33.813,-12.82 l -2.574,-1.469 c -1.496,-0.879 -2.207,-2.57 -1.77,-4.191 0.457,-1.68 1.993,-2.86 4.192,-2.86 l 0.078,0 c 2.691,0.332 6.133,1.282 10.113,2.371 6.32,1.739 13.496,3.711 19.492,3.711 7.727,0 9.809,-3.39 10.715,-5.953 1.121,-3.199 1.934,-6.457 2.703,-9.617 1.242,-5.031 2.532,-10.242 5.157,-15.43 7.257,-14.332 24.691,-20.351 38.695,-25.179 l 1.687,-0.582 c 11.653,-4.02 16.875,-10.489 22.911,-17.989 1.707,-2.121 3.457,-4.293 5.402,-6.48 -6.418,-0.59 -12.934,-0.981 -19.27,-1.352 -9.297,-0.539 -18.086,-1.058 -26.257,-2.168 -22.766,-3.23 -41.223,-11.07 -54.836,-23.312 -6.043,-5.379 -10.911,-11.789 -15.301,-20.16 -2.981,-5.649 -5.012,-10.778 -6.035,-15.27 -0.278,-1.211 -1.399,-14.508 1.265,-17.847 0.657,-0.813 1.555,-1.274 2.539,-1.274 2.473,0 4.114,2.363 6.504,9.313 14.692,42.808 56.75,46.031 101.281,49.418 14.083,1.082 28.641,2.179 42.454,4.601 33.242,5.809 55.718,26.949 70.757,66.512 13.965,36.558 29.614,65.269 50.571,92.758 2.008,-1.18 4.187,-2.039 6.511,-2.578 1.915,-0.422 3.692,-0.762 5.352,-1.082 10.188,-1.95 14.402,-2.758 18.008,-16.372 1.472,-5.578 2.082,-11.179 2.722,-17.109 0.715,-6.59 1.458,-13.418 3.5,-20.18 5.418,-17.879 17.176,-32.109 36.961,-44.769 l 0.965,-0.539 0.754,0 c 1.199,0 2.278,0.699 2.813,1.82 0.547,1.149 0.398,2.481 -0.481,3.57 -13.57,15.219 -22.117,31.911 -26.902,52.52 -1.262,5.449 -1.438,11.219 -1.61,17.309 -0.351,11.718 -0.714,23.839 -9.386,33.492 -3.75,4.218 -8.672,6.34 -13.426,8.386 -3.566,1.551 -6.965,3.012 -9.641,5.262 4.688,6.86 11.231,13.231 17.571,19.391 1.746,1.711 3.472,3.379 5.132,5.051 3.208,3.218 6.743,6.429 10.344,9.679 10.696,9.68 21.739,19.668 27.364,32.707 3.847,8.934 5.644,19.641 7.546,30.981 2.942,17.562 6.282,37.461 18.039,53.472 13.262,12.739 27.969,19.469 42.547,19.469 15.285,0 30.227,-7.148 44.399,-21.238 38.562,-38.371 57.832,-88.024 68.355,-156.25 0.813,-5.274 1.953,-10.633 3.274,-16.031 -0.188,-0.09 -0.364,-0.25 -0.547,-0.352 11.758,-49.32 31.726,-107.07 54.804,-151.84 -30.703,-11.91 -51.417,-61.199 -95.957,-29.84 -28.449,20.02 -60.378,27.86 -87.429,2.61 -5.031,-4.699 2.39,-12.84 7.078,-7.918 25.613,26.949 56.094,9.82 77.18,-11.43 9.128,-9.23 26.57,-9.723 38.718,-10.269 30.567,-1.372 47.364,28.886 71.946,35.539 36.129,-63.36 84.937,-120.582 148.433,-168.43 43.531,-32.813 92.831,-59.711 144.841,-76.762 -8.2,-16.84 0.97,-48.621 8.87,-71.129 5.69,-16.23 14.87,-43.2184 -11.66,-46.7614 -15.17,-2.0078 -26.54,-4.1797 -38.89,-13.4102 -18.26,-13.6171 8.29,-46.289 9.65,-60.97652 0.55,-5.67188 8.69,-5.30079 9.66,-0.05079 3.64,19.78911 -25.01,53.26951 12.61,59.05081 12.65,1.9492 30.08,0.2969 37.35,13.6094 8.91,16.289 7.86,29.7497 3.7,47.3397 -2.57,10.891 -22.99,56 6.83,58.25 8.68,0.66 93.55,-8.723 137.85,-0.922 59.46,10.449 105.6,52.492 154.42,84.25 87.29,56.801 206.28,1.641 228.78,-96.789 0.15,-0.691 1.32,-0.859 1.5,-0.039 12.7,67.488 -73.28,136.469 -135.84,139.188 -55.41,2.421 -95.09,-14.731 -140.41,-45.411 -0.31,-0.207 -0.65,-0.418 -0.98,-0.628 -6.93,21.109 -15.23,36.191 -11.02,62.519 3.42,21.25 7.67,36.922 23.79,52.422 5.1,4.898 11.51,11.289 14.75,17.73 16.09,31.887 6.45,55.969 -19.89,78.129 -2.48,2.102 -5.95,-1.48 -3.49,-3.699 54.36,-48.75 -18.33,-81.23 -32.09,-126.949 -10.64,-35.391 -10.03,-62.453 9.87,-91.672 -69.84,-42.32 -137.89,-55.5 -221.51,-32.949 -58.57,15.769 -113.25,45.187 -161.75,83.199 31.95,4.23 64.96,11.352 88.26,33.32 17.51,16.489 18.12,33.27 10.48,54.16 -6.79,18.559 -45.43,47.301 2.19,62.711 16.49,5.34 37.62,-2.269 54.08,-4.863 1.03,-0.129 1.28,1.461 0.34,1.75 -17.45,5.094 -48.05,20.141 -66.29,9.41 -18.16,-10.636 -27.89,-22.238 -21.59,-43.66 5.71,-19.379 26.22,-33.949 7.63,-56.18 -9.06,-10.859 -23.45,-16.058 -36.51,-20.117 -22.22,-6.883 -45.88,-8.722 -68.976,-10.801 -50.867,46.161 -93.543,101.59 -124.563,159.68 -23.289,43.629 -40.742,88.949 -54.207,159.539 -0.398,3.27 -0.839,6.602 -1.152,9.723 -0.879,8.699 -1.848,17.219 -2.805,25.617 -4.968,43.77 -9.668,85.121 2.375,130.981 15.594,59.511 73.008,91.269 170.618,94.402 4.597,0.137 10.054,0.617 15.835,1.117 6.45,0.551 13.115,1.141 18.315,1.191 l 2.69,0.008 c 18.39,0 33,-2.16 45.97,-6.816 8.31,-2.961 24.89,-11.871 32.39,-18.051 19.7,-16.25 28.39,-28.269 34.47,-47.641 4.89,-15.71 8.47,-20.281 20.49,-31.492 9.87,-9.277 20.03,-14.5 29.88,-19.539 14.57,-7.469 27.15,-13.91 35.07,-31.98 0.91,-2.09 1.8,-4.309 2.64,-6.41 3.29,-8.168 4.65,-11.559 7.5,-11.559 l 1.39,0.172 0.73,0.726 c 1.11,1.122 1.71,3.114 1.67,10.352 -0.16,29.539 -20.62,43.289 -40.42,56.59 -7.85,5.281 -15.97,10.738 -22.93,17.172 -9.5,8.828 -14.38,21.316 -19.1,33.398 -2.41,6.16 -4.88,12.469 -7.96,18.238 12.25,-4.187 26.04,-8.539 39.96,-11.617 20.2,-4.511 42.59,-6.121 63.14,-4.551 11.22,0.879 22.69,3.11 33.79,5.27 14.19,2.77 28.88,5.629 43.07,5.629 6.75,0 12.89,-0.629 18.77,-1.918 23.66,-5.18 55.66,-22.723 81.38,-36.813 16.52,-9.046 30.8,-16.878 39.64,-19.726 6.95,-2.242 14.29,-3.344 22.45,-3.344 15.57,0 31.48,4.07 46.87,8.024 15.08,3.859 29.32,7.5 42.94,7.5 18.04,0 31.83,-6.661 43.32,-20.903 1.46,-1.918 4.75,-1.609 5.93,0.481 0.63,1.09 0.63,2.398 -0.01,3.5 -11.23,19.531 -27.38,28.629 -50.84,28.629 -13.8,0 -28.57,-3.129 -43.27,-6.239 -9.23,-1.949 -18.37,-2.941 -27.19,-2.949 -32.58,0 -58.6,12.91 -88.52,30.149 3.42,1.429 7.52,2.101 12.54,2.101 3.97,0 8.18,-0.41 12.25,-0.812 4.11,-0.399 8.37,-0.821 12.42,-0.821 7.89,0 13.72,1.641 18.38,5.16 8.87,6.731 11.99,12.051 15.64,21.442 10.9,27.769 19.42,37.75 49.62,35.23 0.42,-0.039 1.09,-0.058 1.86,-0.058 3.67,0 7.12,0.379 7.58,3.129 0.48,2.937 -3.09,4.39 -7.45,5.871 -30.53,10.386 -52.19,-0.34 -63.52,-31.102 -5.45,-14.73 -22.27,-15.379 -40.08,-16.051 -15.49,-0.589 -31.49,-1.187 -42.19,-10.82 -8.91,5.07 -20.39,11.352 -32.76,16.801 -16.83,7.449 -35.35,9.191 -60.49,5.398 -24.8,-3.75 -44,-5.457 -62.01,-5.558 14.83,14.621 26.5,34.269 31.88,49.199 3.76,10.449 2.73,20.894 1.66,31.668 -2.89,28.933 16.33,35.691 31.42,52.863 7.64,8.67 8.84,21.44 9.46,32.28 1.21,21.1 3.3,33.47 22.98,46.47 2.68,1.77 -0.2,5.39 -2.83,4.45 -10.93,-3.93 -23.79,-7.87 -28.09,-20.11 -3.24,-9.21 -2.6,-20.37 -3.16,-29.95 -1.52,-25.89 -25.25,-35.69 -41.27,-49.902 -13.86,-12.324 -12.73,-31.484 -12.13,-48.152 1.16,-31.598 -37.97,-63.715 -66.66,-59.277 -3.15,0.492 -5.74,-0.289 -7.72,-1.797 -17.93,4.59 -35.56,11.238 -52.63,17.777 -24.22,9.281 -49.26,18.879 -75.65,22.539 -14.83,2.051 -28.28,1.973 -41.146,-0.289 -3.328,-0.59 -8.836,0.629 -13.062,1.539 -1.113,0.25 -2.129,0.461 -3.051,0.641 -11.617,2.031 -25.281,10.082 -36.543,21.512 -11.465,11.582 -20.242,26.269 -26.082,43.644 -11.387,34.305 -4.91,70.675 16.914,94.905 6.067,6.72 14.207,12.22 22.949,15.49 3.133,1.19 27.024,10.59 53.641,24.31 3.24,-0.2 6.23,-0.36 7.68,-0.33 7.26,0.14 14.7,2.12 21.59,4.3 12.52,3.95 16.28,-5.88 27.57,-6.81 18.29,-1.49 32.89,0.99 46.72,13.81 14.69,13.61 6.58,37.93 35.07,40.18 3.47,0.27 4.33,5.9 0.84,6.9 -7.57,2.16 -17.7,6.72 -25.15,1.66 -19.54,-13.27 -11.86,-42.34 -45.31,-42.4 -15.65,-0.04 -24.07,15.27 -40.34,10.55 -2.12,-0.61 -4.06,-1.1 -6,-1.59 14.64,22.31 25.12,49.97 35.07,77.71 15.56,43.39 38.17,84.85 66.6,121.67 2.17,2.72 6.63,5.08 13.61,11.79 4.63,4.44 34.85,10.69 42.35,13.78 36.46,15.07 37.08,-2.9 61.96,-11.82 13.52,-4.85 31.23,9.67 40.83,16.17 26.7,18.07 32.19,-13.16 52.04,-8.82 1.27,0.28 1.37,2.28 0.05,2.57 -10.58,2.3 -22.74,15.95 -33.75,20.53 -14.83,6.17 -57.39,-20.39 -64.95,-3.97 -9.1,19.7 -39.15,14.77 -65.48,7.76 38.49,33.92 85.56,65.14 123.16,78.36 37.93,13.35 81.33,23.91 117.41,42.6 42.83,22.19 108.32,88 116.3,93.79 41.91,30.41 81.16,31.05 123.12,23.1 11.19,-2.91 39.35,-9.1 54.96,-13.07 19.42,-4.95 34.64,-6.6 54.34,-5.53 31.35,1.7 60.17,25.19 91.94,2.68 4.6,-3.26 10.32,2.55 6.89,7.08"
         style="fill:#315b9c;fill-opacity:1;fill-rule:nonzero;stroke:none"
         id="path56"
         inkscape:connector-curvature="0" /><path
         d="m 2236.99,1504.01 c 7.54,0 13.82,3.17 18.62,9.44 4.72,6.19 7.12,13.83 7.12,22.68 0,7.52 -2.4,14.47 -7.12,20.67 -4.82,6.29 -11.08,9.46 -18.62,9.46 l -157.67,0 c -8.08,0 -15.26,-2.4 -21.33,-7.14 -6.17,-4.78 -9.3,-11.06 -9.3,-18.62 l 0,-724.66 c 0,-7.559 3.13,-13.828 9.3,-18.641 6.07,-4.719 13.25,-7.109 21.33,-7.109 l 157.67,0 c 7.54,0 13.8,3.172 18.62,9.43 4.72,6.199 7.12,13.5 7.12,21.679 0,8.192 -2.4,15.481 -7.12,21.672 -4.8,6.27 -11.08,9.438 -18.62,9.438 l -121.17,0 0,651.701 121.17,0"
         style="fill:#5e6061;fill-opacity:1;fill-rule:nonzero;stroke:none"
         id="path58"
         inkscape:connector-curvature="0" /><path
         d="m 2981.32,1559.14 c -6.43,4.72 -13.76,7.12 -21.81,7.12 l -157.67,0 c -7.57,0 -13.69,-3.2 -18.16,-9.5 -4.37,-6.15 -6.59,-13.09 -6.59,-20.63 0,-8.9 2.38,-16.53 7.09,-22.68 4.79,-6.27 10.74,-9.44 17.66,-9.44 l 122.13,0 0,-651.701 -122.13,0 c -6.92,0 -12.87,-3.168 -17.66,-9.438 -4.71,-6.141 -7.09,-13.441 -7.09,-21.672 0,-8.199 2.22,-15.488 6.59,-21.64 4.47,-6.278 10.59,-9.469 18.16,-9.469 l 157.67,0 c 8.05,0 15.38,2.379 21.81,7.09 6.49,4.808 9.79,11.101 9.79,18.66 l 0,724.66 c 0,7.59 -3.3,13.85 -9.79,18.64"
         style="fill:#5e6061;fill-opacity:1;fill-rule:nonzero;stroke:none"
         id="path60"
         inkscape:connector-curvature="0" /><path
         d="m 2330.16,832.809 179.83,460.911 c -14.73,60.14 -36.58,110.55 -65.64,151.25 -29.06,40.7 -60.51,61.05 -94.33,61.05 -14.73,0 -22.08,11.4 -22.08,34.22 0,22.05 11.03,33.09 33.1,33.09 16.91,0 33.48,-3.51 49.66,-10.48 16.18,-7 29.97,-14.53 41.38,-22.62 11.41,-8.1 23.34,-21.34 35.85,-39.73 l 28.7,-44.14 c 7.35,-11.05 16.37,-29.08 27.04,-54.07 10.66,-25.05 17.81,-42.34 21.52,-51.87 l 19.84,-54.1 171.03,-463.511 c 1.47,-1.457 2.22,-4.399 2.22,-8.797 0,-9.543 -4.96,-17.782 -14.9,-24.742 -9.92,-6.989 -19.69,-10.461 -29.24,-10.461 -11.78,0 -19.86,5.14 -24.29,15.402 L 2547.51,1209.01 2396.36,804.211 c -2.95,-10.262 -11.41,-15.402 -25.38,-15.402 -10.31,0 -20.23,3.472 -29.8,10.461 -9.56,6.96 -14.34,14.839 -14.34,23.628 0,2.942 1.1,6.262 3.32,9.911"
         style="fill:#315b9c;fill-opacity:1;fill-rule:nonzero;stroke:none"
         id="path62"
         inkscape:connector-curvature="0" /><path
         d="m 3170.12,928.18 c 0,-29.782 8.49,-51.95 25.52,-66.481 17.04,-14.551 39.36,-21.82 67.04,-21.82 33.32,0 65.05,12.402 95.21,37.23 30.14,24.821 45.22,49.653 45.22,74.489 l 0,68.082 -44.69,0 c -28.38,0 -52.31,-1.07 -71.82,-3.2 -19.51,-2.13 -38.83,-6.03 -57.97,-11.7 -19.16,-5.682 -33.71,-14.882 -43.63,-27.651 -9.94,-12.777 -14.88,-29.098 -14.88,-48.949 z m -69.16,-6.391 c 0,55.824 21.09,94.601 63.3,116.351 42.19,21.74 103.73,32.6 184.59,32.6 l 54.26,0 0,25.06 c 0,38.26 -10.3,71.5 -30.86,99.7 -20.57,28.19 -52.13,42.29 -94.69,42.29 -28.38,0 -54.08,-5.06 -77.13,-15.15 -23.05,-10.09 -35.29,-15.12 -36.7,-15.12 -8.52,0 -15.27,3.83 -20.21,11.51 -4.98,7.69 -7.45,16.07 -7.45,25.14 0,13.47 15.24,25.88 45.75,37.23 30.48,11.34 63.12,17.03 97.87,17.03 66.66,0 115.45,-19.33 146.29,-57.98 30.86,-38.68 46.29,-87.77 46.29,-147.37 l 0,-276.6 c 0,-7.808 -3.21,-14.371 -9.57,-19.691 -6.39,-5.328 -14.56,-7.98 -24.48,-7.98 -9.24,0 -16.85,2.652 -22.87,7.98 -6.03,5.32 -9.04,11.883 -9.04,19.691 l 0,46.801 c -47.54,-54.609 -101.08,-81.91 -160.67,-81.91 -42.55,0 -77.3,11.867 -104.25,35.641 -26.98,23.75 -40.43,58.668 -40.43,104.777"
         style="fill:#5e6061;fill-opacity:1;fill-rule:nonzero;stroke:none"
         id="path64"
         inkscape:connector-curvature="0" /><path
         d="m 3671.21,951.012 c 0,-19.063 13.3,-41.274 39.88,-66.66 26.61,-25.411 56.94,-38.082 90.98,-38.082 35.45,0 66.31,14.101 92.56,42.32 26.23,28.199 39.35,59.961 39.35,95.234 l 0,115.316 c 0,34.57 -13.12,65.6 -39.35,93.11 -26.25,27.52 -57.46,41.28 -93.63,41.28 -34.05,0 -64.2,-12.35 -90.43,-37.04 -26.25,-24.69 -39.36,-57.16 -39.36,-97.35 l 0,-148.128 z m -69.16,-134.571 0,757.579 c 0,7.07 3.18,13.1 9.57,18.05 6.39,4.96 14.53,7.44 24.47,7.44 9.93,0 18.27,-2.48 25,-7.44 6.74,-4.97 10.12,-11.01 10.12,-18.09 l 0,-357.38 c 12.75,23.67 31.39,43.24 55.86,58.67 24.45,15.43 53.01,23.16 85.64,23.16 52.49,0 97.35,-19.53 134.58,-58.52 37.24,-39.02 55.85,-85.83 55.85,-140.44 l 0,-115.954 c 0,-53.207 -18.98,-100.196 -56.91,-140.977 -37.95,-40.801 -81.76,-61.168 -131.39,-61.168 -31.93,0 -61.36,8.059 -88.32,24.207 -26.95,16.141 -46.11,35.692 -57.44,58.684 l 0,-47.434 c 0,-7.18 -3.2,-13.648 -9.57,-19.406 -6.38,-5.742 -14.2,-8.613 -23.42,-8.613 -9.21,0 -17.2,2.832 -23.92,8.492 -6.76,5.668 -10.12,12.051 -10.12,19.14"
         style="fill:#5e6061;fill-opacity:1;fill-rule:nonzero;stroke:none"
         id="path66"
         inkscape:connector-curvature="0" /><path
         d="m 1558.42,1164.37 153.2,0 c 48.22,0 85.47,13.47 111.72,40.43 26.23,26.96 39.36,67.73 39.36,122.34 l 0,12.78 c 0,107.81 -50.38,161.72 -151.08,161.72 l -153.2,0 0,-337.27 z m -70.22,-347.89 0,724.51 c 0,15.61 9.93,24.12 29.79,25.55 l 195.76,0 c 66.66,0 119.86,-18.09 159.59,-54.27 39.71,-36.17 59.57,-93.27 59.57,-171.29 l 0,-10.63 c 0,-78.04 -20.04,-135.3 -60.12,-171.83 -40.08,-36.53 -93.79,-54.79 -161.17,-54.79 l -153.2,0 0,-287.25 c 0,-8.511 -3.56,-15.269 -10.65,-20.21 -7.09,-4.981 -15.25,-7.461 -24.47,-7.461 -9.94,0 -18.26,2.48 -25,7.461 -6.74,4.941 -10.1,11.699 -10.1,20.21"
         style="fill:#5e6061;fill-opacity:1;fill-rule:nonzero;stroke:none"
         id="path68"
         inkscape:connector-curvature="0" /></g></g></svg>