<?xml version="1.0" encoding="UTF-8" standalone="no"?>
<!-- Created with Inkscape (http://www.inkscape.org/) -->

<svg
   xmlns:dc="http://purl.org/dc/elements/1.1/"
   xmlns:cc="http://creativecommons.org/ns#"
   xmlns:rdf="http://www.w3.org/1999/02/22-rdf-syntax-ns#"
   xmlns:svg="http://www.w3.org/2000/svg"
   xmlns="http://www.w3.org/2000/svg"
   xmlns:sodipodi="http://sodipodi.sourceforge.net/DTD/sodipodi-0.dtd"
   xmlns:inkscape="http://www.inkscape.org/namespaces/inkscape"
   width="600"
   height="176.29393"
   id="svg4193"
   version="1.1"
   inkscape:version="0.48.5 r10040"
   sodipodi:docname="New document 5">
  <defs
     id="defs4195" />
  <sodipodi:namedview
     id="base"
     pagecolor="#ffffff"
     bordercolor="#666666"
     borderopacity="1.0"
     inkscape:pageopacity="0.0"
     inkscape:pageshadow="2"
     inkscape:zoom="0.35"
     inkscape:cx="830.27435"
     inkscape:cy="130.00203"
     inkscape:document-units="px"
     inkscape:current-layer="layer1"
     showgrid="false"
     fit-margin-top="0"
     fit-margin-left="0"
     fit-margin-right="0"
     fit-margin-bottom="0"
     inkscape:window-width="1865"
     inkscape:window-height="1056"
     inkscape:window-x="55"
     inkscape:window-y="24"
     inkscape:window-maximized="1" />
  <metadata
     id="metadata4198">
    <rdf:RDF>
      <cc:Work
         rdf:about="">
        <dc:format>image/svg+xml</dc:format>
        <dc:type
           rdf:resource="http://purl.org/dc/dcmitype/StillImage" />
        <dc:title></dc:title>
      </cc:Work>
    </rdf:RDF>
  </metadata>
  <g
     inkscape:label="Layer 1"
     inkscape:groupmode="layer"
     id="layer1"
     transform="translate(455.27436,-486.0703)">
    <g
       transform="matrix(0.43148434,0,0,0.43148434,-119.05652,122.74592)"
       id="g4115">
      <g
         style="stroke:#000000;stroke-width:44.54929733;stroke-miterlimit:4;stroke-opacity:1;stroke-dasharray:none"
         transform="matrix(0.07213866,-0.08524467,0.08985855,0.06843462,-414.70177,1193.1169)"
         id="g4117"
         inkscape:label="Layer 1">
        <path
           sodipodi:nodetypes="csssscssssscsssszssscssszsssscsssszssscssszszzczzscsszssssssssssssssssssssszsss"
           id="path4119"
           d="m 414.47452,415.83979 c -20.86466,10.69021 -17.83785,5.49502 -38.09717,23.81751 -17.32824,15.67163 -24.89995,19.44818 -27.24413,54.16428 -1.38531,20.51562 16.00197,19.92932 35.77573,36.37364 17.5559,14.5999 26.19551,26.40515 40.08875,44.77505 13.89324,18.3699 49.85432,33.98365 51.02107,36.64737 -3.44558,-3.14176 -35.96082,-11.89294 -48.60132,-27.95587 -9.65443,-12.26838 -23.08787,-23.82375 -27.70792,-29.34151 -7.30757,-8.7275 -36.62476,-35.14128 -51.43617,-31.11779 -9.5249,2.58743 -13.66236,22.5323 -18.93207,31.47928 -6.67535,11.33349 -22.45801,34.21949 -38.51313,53.03195 -16.05511,18.81246 -12.97435,52.34357 -12.1136,51.07976 0.20235,1.05227 -2.87129,-34.17246 12.0443,-54.99456 14.91558,-20.82211 31.26957,-42.22434 35.02746,-54.86895 7.01424,-23.6016 10.84897,-34.58487 12.63349,-57.35683 1.73028,-22.07979 3.58329,-27.25563 0.94934,-36.15437 -6.96268,-23.52324 -6.83798,-31.35998 -25.28561,-42.9918 -19.02403,-11.99526 -39.0488,-14.51073 -63.66111,-4.72089 -30.47811,12.12303 -45.02463,26.76332 -60.02604,40.84558 -7.37918,6.92705 -44.25347,46.38368 -49.95028,50.26595 -20.91344,14.25211 -83.208574,50.3993 -83.208574,50.3993 0,0 68.531944,-43.76375 82.209884,-56.49228 9.89128,-9.20471 25.41041,-27.23459 31.34204,-35.262 5.93163,-8.02741 42.01889,-48.46241 68.8532,-66.7344 16.67703,-11.35571 31.61345,-34.36077 29.46287,-48.5409 -2.15058,-14.18013 -19.99793,-44.06875 -31.83764,-52.38584 -14.77641,-10.38004 -26.68585,-37.59684 -38.67747,-41.90625 -20.00847,-7.1904 -40.1214,16.6303 -64.87512,10.66776 -24.75371,-5.96254 -37.062751,-11.3203 -55.715901,-10.34111 -20.485394,1.07537 -55.829464,21.3754 -55.829464,21.3754 0,0 43.589313,-23.83012 57.068409,-25.43014 12.505754,-1.48448 44.929876,5.10457 54.191606,9.27347 13.55825,6.10287 49.91348,-21.22765 67.49272,-18.40482 21.58519,3.46609 20.32236,17.06918 45.1402,30.84634 18.83818,10.45766 44.00838,13.34119 58.56938,0.77114 14.561,-12.57005 16.27216,-27.94889 15.5657,-44.96333 C 319.35188,200.8771 315.28898,175.3943 304.9383,156.91749 298.0549,144.63007 291.11929,131.77715 290.78672,117.80761 290.32526,98.860027 279.598,53.708716 279.598,53.708716 c 0,0 12.29571,47.936934 13.44048,59.846804 2.54904,26.51949 18.05378,37.3678 22.42147,47.45489 10.16056,23.46561 7.62778,38.49952 17.45703,55.25657 8.20576,13.98929 15.85094,25.75639 37.03864,27.27207 21.1877,1.51567 38.75141,-8.92642 52.00622,-21.01343 16.97367,-15.47822 40.57278,-48.83383 48.63899,-58.51006 8.24199,-9.8871 27.25788,-36.16028 41.63623,-60.99417 14.75453,-25.483605 49.37476,-57.820964 49.37476,-57.820964 0.0172,-0.04478 -34.0747,36.809036 -47.05732,58.957234 -13.09264,22.33589 -17.9941,31.2941 -37.54398,58.77736 -19.54989,27.48326 -32.56714,45.73299 -38.43028,67.85604 -4.41393,16.65483 -3.88986,36.80436 0.87191,47.68954 7.24508,16.92275 34.34116,42.09908 46.42303,49.4559 53.02587,32.28825 101.51034,28.26956 151.92011,28.26987 55.59061,3.4e-4 185.48119,10.23275 300.53092,13.6942 115.08829,3.46261 212.34919,3.44239 542.50619,26.93746 19.4541,1.38441 39.3246,-68.90066 73.6214,-101.62548 17.1484,-16.36241 35.5397,-18.44492 58.1658,-30.28351 11.3131,-5.9193 21.5283,-19.82285 29.4795,-33.00857 3.9756,-6.59284 14.6533,-23.97808 23.9459,-38.48492 11.5151,-17.97651 1.8247,-16.88995 7.2682,-25.19399 3.7041,-5.65068 20.4222,7.59233 17.4892,12.42721 -5.1901,8.55562 -11.6836,-1.63955 -22.6903,14.84858 -9.4935,14.22127 -20.1041,30.29728 -23.7913,37.14452 -7.3744,13.69445 -17.4194,28.5255 -29.6959,36.26231 -24.5529,15.47361 -40.7798,14.89305 -55.0267,30.99381 -28.4937,32.20151 -43.5651,71.7053 -38.7619,84.32617 5.4005,14.19047 89.216,10.3945 126.0117,10.78299 29.2019,0.30831 96.2642,11.73547 159.2409,7.72766 31.4884,-2.0039 42.7735,1.52835 78.3954,5.1639 39.3279,3.98233 90.1578,-1.62667 101.5409,1.65641 5.1347,1.48096 0.5803,17.58503 -4.434,16.54448 -11.3565,-2.35668 -11.026,-9.17124 -39.396,-10.42033 -33.8856,-1.52506 -91.1173,-5.91292 -119.1874,-5.37432 -35.0498,0.67253 -224.2751,0.49484 -301.3183,1.65979 -31.0082,0.46887 -382.5664,-19.56396 -422.8557,-19.90197 -40.2893,-0.33801 -250.01969,-3.2356 -299.04991,-4.7432 -49.00782,-1.5069 -122.72113,-12.70096 -165.82711,-9.08207 -43.71015,3.6696 -94.20576,0.30182 -140.66862,9.91938 -46.02282,9.52648 -67.47665,21.85429 -78.81364,27.66291 z"
           style="fill:none;stroke:#000000;stroke-width:44.54929733;stroke-linecap:round;stroke-linejoin:round;stroke-miterlimit:4;stroke-opacity:1;stroke-dasharray:none;stroke-dashoffset:2.98349977"
           inkscape:connector-curvature="0" />
        <path
           sodipodi:nodetypes="csssscsssssss"
           id="path4121"
           d="m 511.62898,90.195542 c -2.27087,-0.516615 -4.36687,-5.016 -4.91037,-9.559055 -0.67198,-5.617076 -17.76071,-19.519717 -29.44428,-30.78581 -5.84179,-5.633049 -13.41298,-10.298889 -18.90758,-16.021021 -2.74729,-2.861063 -17.76029,-15.074223 -20.68793,-18.562334 -2.92763,-3.48811 -28.27359,-24.7450674 -28.27359,-24.7450674 0,0 36.24587,28.8724554 39.59642,32.2198914 3.35056,3.347436 11.69824,10.128298 14.43493,12.77153 5.47337,5.286465 4.83037,3.572541 11.17175,8.842386 12.68276,10.539695 35.43502,27.757739 39.97715,27.36112 4.755,-0.415208 9.71426,0.659037 10.40092,2.247454 1.14244,2.642756 -0.84523,7.007984 -3.79435,10.558773 -2.94912,3.55079 -6.8597,6.28714 -9.56307,5.672133 z"
           style="fill:none;stroke:#000000;stroke-width:44.54929733;stroke-linecap:round;stroke-linejoin:round;stroke-miterlimit:4;stroke-opacity:1;stroke-dasharray:none;stroke-dashoffset:2.98349977"
           inkscape:connector-curvature="0" />
        <path
           sodipodi:nodetypes="csssscsssssss"
           id="path4123"
           d="m 74.412534,236.34966 c -1.146533,-2.02713 0.769992,-6.60582 3.763852,-10.06583 3.701639,-4.27796 12.064888,-36.07645 12.531884,-52.30027 0.2335,-8.11193 3.59786,-20.33712 1.299059,-24.76685 -1.827048,-3.52068 -13.22394,-19.57784 -12.615087,-24.09086 0.608872,-4.513 -0.07868,-31.4662 -0.07868,-31.4662 0,0 3.046272,24.67372 2.826124,29.40478 -0.220149,4.73109 11.214818,19.80727 12.688433,24.06431 2.33238,6.73789 -0.91537,20.13639 -0.54399,28.37329 0.742791,16.47379 -7.567031,47.50367 -4.216279,50.5957 3.507781,3.23695 6.051575,7.62757 5.339105,9.20456 -1.185362,2.62378 -5.751522,4.09223 -10.362556,4.30141 -4.611024,0.2092 -9.266963,-0.84085 -10.631863,-3.25404 z"
           style="fill:none;stroke:#000000;stroke-width:44.54929733;stroke-linecap:round;stroke-linejoin:round;stroke-miterlimit:4;stroke-opacity:1;stroke-dasharray:none;stroke-dashoffset:2.98349977"
           inkscape:connector-curvature="0" />
        <path
           id="path4125"
           d="m 757.84864,449.58094 0,0 z"
           style="fill:none;stroke:#000000;stroke-width:44.54929733;stroke-linecap:butt;stroke-linejoin:miter;stroke-miterlimit:4;stroke-opacity:1;stroke-dasharray:none"
           inkscape:connector-curvature="0" />
        <ellipse
           sodipodi:ry="23.41321"
           sodipodi:rx="21.564798"
           sodipodi:cy="309.10168"
           sodipodi:cx="281.57465"
           transform="matrix(1.9159051,0,0,1.7338186,-161.06706,-193.63323)"
           id="path4127"
           style="fill:none;stroke:#000000;stroke-width:24.44285965;stroke-linecap:round;stroke-linejoin:round;stroke-miterlimit:4;stroke-opacity:1;stroke-dasharray:none;stroke-dashoffset:2.98349977"
           cx="281.57465"
           cy="309.10168"
           rx="21.564798"
           ry="23.41321"
           d="m 303.13944,309.10168 c 0,12.93076 -9.65488,23.41321 -21.56479,23.41321 -11.90991,0 -21.5648,-10.48245 -21.5648,-23.41321 0,-12.93075 9.65489,-23.41321 21.5648,-23.41321 11.90991,0 21.56479,10.48246 21.56479,23.41321 z" />
        <path
           sodipodi:nodetypes="csssscsssssss"
           id="path4129"
           d="m 290.04301,266.76786 c -2.04397,-1.11623 -2.83373,-6.01662 -2.11791,-10.53574 0.88506,-5.58747 -27.21904,-49.15889 -35.38807,-63.18379 -4.08451,-7.01245 -9.59261,-16.53179 -13.3188,-23.53528 -1.86308,-3.50174 -19.15774,-33.53977 -21.02337,-37.69398 -1.86561,-4.15422 6.52833,-0.21908 6.52833,-0.21908 0,0 1.98984,8.87857 4.30071,13.01274 2.31088,4.13419 16.32269,30.67835 18.23497,33.96762 3.82456,6.57853 8.53135,15.48488 13.19555,22.28411 9.32842,13.59847 32.99328,48.07443 37.47145,48.93133 4.68804,0.89704 9.16647,3.28279 9.39401,4.99824 0.37856,2.85414 -2.72402,6.51198 -6.52957,9.12412 -3.80555,2.61213 -8.31406,4.17852 -10.7473,2.84971 z"
           style="fill:none;stroke:#000000;stroke-width:44.54929733;stroke-linecap:round;stroke-linejoin:round;stroke-miterlimit:4;stroke-opacity:1;stroke-dasharray:none;stroke-dashoffset:2.98349977"
           inkscape:connector-curvature="0" />
      </g>
      <g
         style="stroke:#000000;stroke-width:44.54929352;stroke-miterlimit:4;stroke-opacity:1;stroke-dasharray:none"
         inkscape:label="Layer 1"
         id="g4131"
         transform="matrix(0.07194903,0.08538878,-0.09001047,0.06825473,-332.05839,840.80784)">
        <path
           inkscape:connector-curvature="0"
           style="fill:none;stroke:#000000;stroke-width:44.54929352;stroke-linecap:round;stroke-linejoin:round;stroke-miterlimit:4;stroke-opacity:1;stroke-dasharray:none;stroke-dashoffset:2.98349977"
           d="m 414.47452,415.83979 c -20.86466,10.69021 -17.83785,5.49502 -38.09717,23.81751 -17.32824,15.67163 -24.89995,19.44818 -27.24413,54.16428 -1.38531,20.51562 16.00197,19.92932 35.77573,36.37364 17.5559,14.5999 26.19551,26.40515 40.08875,44.77505 13.89324,18.3699 49.85432,33.98365 51.02107,36.64737 -3.44558,-3.14176 -35.96082,-11.89294 -48.60132,-27.95587 -9.65443,-12.26838 -23.08787,-23.82375 -27.70792,-29.34151 -7.30757,-8.7275 -36.62476,-35.14128 -51.43617,-31.11779 -9.5249,2.58743 -13.66236,22.5323 -18.93207,31.47928 -6.67535,11.33349 -22.45801,34.21949 -38.51313,53.03195 -16.05511,18.81246 -12.97435,52.34357 -12.1136,51.07976 0.20235,1.05227 -2.87129,-34.17246 12.0443,-54.99456 14.91558,-20.82211 31.26957,-42.22434 35.02746,-54.86895 7.01424,-23.6016 10.84897,-34.58487 12.63349,-57.35683 1.73028,-22.07979 3.58329,-27.25563 0.94934,-36.15437 -6.96268,-23.52324 -6.83798,-31.35998 -25.28561,-42.9918 -19.02403,-11.99526 -39.0488,-14.51073 -63.66111,-4.72089 -30.47811,12.12303 -45.02463,26.76332 -60.02604,40.84558 -7.37918,6.92705 -44.25347,46.38368 -49.95028,50.26595 -20.91344,14.25211 -83.208574,50.3993 -83.208574,50.3993 0,0 68.531944,-43.76375 82.209884,-56.49228 9.89128,-9.20471 25.41041,-27.23459 31.34204,-35.262 5.93163,-8.02741 42.01889,-48.46241 68.8532,-66.7344 16.67703,-11.35571 31.61345,-34.36077 29.46287,-48.5409 -2.15058,-14.18013 -19.99793,-44.06875 -31.83764,-52.38584 -14.77641,-10.38004 -26.68585,-37.59684 -38.67747,-41.90625 -20.00847,-7.1904 -40.1214,16.6303 -64.87512,10.66776 -24.75371,-5.96254 -37.062751,-11.3203 -55.715901,-10.34111 -20.485394,1.07537 -55.829464,21.3754 -55.829464,21.3754 0,0 43.589313,-23.83012 57.068409,-25.43014 12.505754,-1.48448 44.929876,5.10457 54.191606,9.27347 13.55825,6.10287 49.91348,-21.22765 67.49272,-18.40482 21.58519,3.46609 20.32236,17.06918 45.1402,30.84634 18.83818,10.45766 44.00838,13.34119 58.56938,0.77114 14.561,-12.57005 16.27216,-27.94889 15.5657,-44.96333 C 319.35188,200.8771 315.28898,175.3943 304.9383,156.91749 298.0549,144.63007 291.11929,131.77715 290.78672,117.80761 290.32526,98.860027 279.598,53.708716 279.598,53.708716 c 0,0 12.29571,47.936934 13.44048,59.846804 2.54904,26.51949 18.05378,37.3678 22.42147,47.45489 10.16056,23.46561 7.62778,38.49952 17.45703,55.25657 8.20576,13.98929 15.85094,25.75639 37.03864,27.27207 21.1877,1.51567 38.75141,-8.92642 52.00622,-21.01343 16.97367,-15.47822 40.57278,-48.83383 48.63899,-58.51006 8.24199,-9.8871 27.25788,-36.16028 41.63623,-60.99417 14.75453,-25.483605 49.37476,-57.820964 49.37476,-57.820964 0.0172,-0.04478 -34.0747,36.809036 -47.05732,58.957234 -13.09264,22.33589 -17.9941,31.2941 -37.54398,58.77736 -19.54989,27.48326 -32.56714,45.73299 -38.43028,67.85604 -4.41393,16.65483 -3.88986,36.80436 0.87191,47.68954 7.24508,16.92275 34.34116,42.09908 46.42303,49.4559 53.02587,32.28825 101.51034,28.26956 151.92011,28.26987 55.59061,3.4e-4 185.48119,10.23275 300.53092,13.6942 115.08829,3.46261 212.34919,3.44239 542.50619,26.93746 19.4541,1.38441 39.3246,-68.90066 73.6214,-101.62548 17.1484,-16.36241 35.5397,-18.44492 58.1658,-30.28351 11.3131,-5.9193 21.5283,-19.82285 29.4795,-33.00857 3.9756,-6.59284 14.6533,-23.97808 23.9459,-38.48492 11.5151,-17.97651 1.8247,-16.88995 7.2682,-25.19399 3.7041,-5.65068 20.4222,7.59233 17.4892,12.42721 -5.1901,8.55562 -11.6836,-1.63955 -22.6903,14.84858 -9.4935,14.22127 -20.1041,30.29728 -23.7913,37.14452 -7.3744,13.69445 -17.4194,28.5255 -29.6959,36.26231 -24.5529,15.47361 -40.7798,14.89305 -55.0267,30.99381 -28.4937,32.20151 -43.5651,71.7053 -38.7619,84.32617 5.4005,14.19047 89.216,10.3945 126.0117,10.78299 29.2019,0.30831 96.2642,11.73547 159.2409,7.72766 31.4884,-2.0039 42.7735,1.52835 78.3954,5.1639 39.3279,3.98233 90.1578,-1.62667 101.5409,1.65641 5.1347,1.48096 0.5803,17.58503 -4.434,16.54448 -11.3565,-2.35668 -11.026,-9.17124 -39.396,-10.42033 -33.8856,-1.52506 -91.1173,-5.91292 -119.1874,-5.37432 -35.0498,0.67253 -224.2751,0.49484 -301.3183,1.65979 -31.0082,0.46887 -382.5664,-19.56396 -422.8557,-19.90197 -40.2893,-0.33801 -250.01969,-3.2356 -299.04991,-4.7432 -49.00782,-1.5069 -122.72113,-12.70096 -165.82711,-9.08207 -43.71015,3.6696 -94.20576,0.30182 -140.66862,9.91938 -46.02282,9.52648 -67.47665,21.85429 -78.81364,27.66291 z"
           id="path4133"
           sodipodi:nodetypes="csssscssssscsssszssscssszsssscsssszssscssszszzczzscsszssssssssssssssssssssszsss" />
        <path
           inkscape:connector-curvature="0"
           style="fill:none;stroke:#000000;stroke-width:44.54929352;stroke-linecap:round;stroke-linejoin:round;stroke-miterlimit:4;stroke-opacity:1;stroke-dasharray:none;stroke-dashoffset:2.98349977"
           d="m 511.62898,90.195542 c -2.27087,-0.516615 -4.36687,-5.016 -4.91037,-9.559055 -0.67198,-5.617076 -17.76071,-19.519717 -29.44428,-30.78581 -5.84179,-5.633049 -13.41298,-10.298889 -18.90758,-16.021021 -2.74729,-2.861063 -17.76029,-15.074223 -20.68793,-18.562334 -2.92763,-3.48811 -28.27359,-24.7450674 -28.27359,-24.7450674 0,0 36.24587,28.8724554 39.59642,32.2198914 3.35056,3.347436 11.69824,10.128298 14.43493,12.77153 5.47337,5.286465 4.83037,3.572541 11.17175,8.842386 12.68276,10.539695 35.43502,27.757739 39.97715,27.36112 4.755,-0.415208 9.71426,0.659037 10.40092,2.247454 1.14244,2.642756 -0.84523,7.007984 -3.79435,10.558773 -2.94912,3.55079 -6.8597,6.28714 -9.56307,5.672133 z"
           id="path4135"
           sodipodi:nodetypes="csssscsssssss" />
        <path
           inkscape:connector-curvature="0"
           style="fill:none;stroke:#000000;stroke-width:44.54929352;stroke-linecap:round;stroke-linejoin:round;stroke-miterlimit:4;stroke-opacity:1;stroke-dasharray:none;stroke-dashoffset:2.98349977"
           d="m 74.412534,236.34966 c -1.146533,-2.02713 0.769992,-6.60582 3.763852,-10.06583 3.701639,-4.27796 12.064888,-36.07645 12.531884,-52.30027 0.2335,-8.11193 3.59786,-20.33712 1.299059,-24.76685 -1.827048,-3.52068 -13.22394,-19.57784 -12.615087,-24.09086 0.608872,-4.513 -0.07868,-31.4662 -0.07868,-31.4662 0,0 3.046272,24.67372 2.826124,29.40478 -0.220149,4.73109 11.214818,19.80727 12.688433,24.06431 2.33238,6.73789 -0.91537,20.13639 -0.54399,28.37329 0.742791,16.47379 -7.567031,47.50367 -4.216279,50.5957 3.507781,3.23695 6.051575,7.62757 5.339105,9.20456 -1.185362,2.62378 -5.751522,4.09223 -10.362556,4.30141 -4.611024,0.2092 -9.266963,-0.84085 -10.631863,-3.25404 z"
           id="path4137"
           sodipodi:nodetypes="csssscsssssss" />
        <path
           inkscape:connector-curvature="0"
           style="fill:none;stroke:#000000;stroke-width:44.54929352;stroke-linecap:butt;stroke-linejoin:miter;stroke-miterlimit:4;stroke-opacity:1;stroke-dasharray:none"
           d="m 757.84864,449.58094 0,0 z"
           id="path4139" />
        <ellipse
           sodipodi:ry="23.41321"
           sodipodi:rx="21.564798"
           sodipodi:cy="309.10168"
           sodipodi:cx="281.57465"
           style="fill:none;stroke:#000000;stroke-width:24.44285774;stroke-linecap:round;stroke-linejoin:round;stroke-miterlimit:4;stroke-opacity:1;stroke-dasharray:none;stroke-dashoffset:2.98349977"
           id="path4141"
           transform="matrix(1.9159051,0,0,1.7338186,-161.06706,-193.63323)"
           cx="281.57465"
           cy="309.10168"
           rx="21.564798"
           ry="23.41321"
           d="m 303.13944,309.10168 c 0,12.93076 -9.65488,23.41321 -21.56479,23.41321 -11.90991,0 -21.5648,-10.48245 -21.5648,-23.41321 0,-12.93075 9.65489,-23.41321 21.5648,-23.41321 11.90991,0 21.56479,10.48246 21.56479,23.41321 z" />
        <path
           inkscape:connector-curvature="0"
           style="fill:none;stroke:#000000;stroke-width:44.54929352;stroke-linecap:round;stroke-linejoin:round;stroke-miterlimit:4;stroke-opacity:1;stroke-dasharray:none;stroke-dashoffset:2.98349977"
           d="m 290.04301,266.76786 c -2.04397,-1.11623 -2.83373,-6.01662 -2.11791,-10.53574 0.88506,-5.58747 -27.21904,-49.15889 -35.38807,-63.18379 -4.08451,-7.01245 -9.59261,-16.53179 -13.3188,-23.53528 -1.86308,-3.50174 -19.15774,-33.53977 -21.02337,-37.69398 -1.86561,-4.15422 6.52833,-0.21908 6.52833,-0.21908 0,0 1.98984,8.87857 4.30071,13.01274 2.31088,4.13419 16.32269,30.67835 18.23497,33.96762 3.82456,6.57853 8.53135,15.48488 13.19555,22.28411 9.32842,13.59847 32.99328,48.07443 37.47145,48.93133 4.68804,0.89704 9.16647,3.28279 9.39401,4.99824 0.37856,2.85414 -2.72402,6.51198 -6.52957,9.12412 -3.80555,2.61213 -8.31406,4.17852 -10.7473,2.84971 z"
           id="path4143"
           sodipodi:nodetypes="csssscsssssss" />
      </g>
      <g
         style="stroke:#000000;stroke-width:44.54929352;stroke-miterlimit:4;stroke-opacity:1;stroke-dasharray:none"
         transform="matrix(0.07541639,0.08194614,-0.08705677,0.07243491,-199.24635,1001.1112)"
         id="g4145"
         inkscape:label="Layer 1">
        <path
           sodipodi:nodetypes="csssscssssscsssszssscssszsssscsssszssscssszszzczzscsszssssssssssssssssssssszsss"
           id="path4147"
           d="m 414.47452,415.83979 c -20.86466,10.69021 -17.83785,5.49502 -38.09717,23.81751 -17.32824,15.67163 -24.89995,19.44818 -27.24413,54.16428 -1.38531,20.51562 16.00197,19.92932 35.77573,36.37364 17.5559,14.5999 26.19551,26.40515 40.08875,44.77505 13.89324,18.3699 49.85432,33.98365 51.02107,36.64737 -3.44558,-3.14176 -35.96082,-11.89294 -48.60132,-27.95587 -9.65443,-12.26838 -23.08787,-23.82375 -27.70792,-29.34151 -7.30757,-8.7275 -36.62476,-35.14128 -51.43617,-31.11779 -9.5249,2.58743 -13.66236,22.5323 -18.93207,31.47928 -6.67535,11.33349 -22.45801,34.21949 -38.51313,53.03195 -16.05511,18.81246 -12.97435,52.34357 -12.1136,51.07976 0.20235,1.05227 -2.87129,-34.17246 12.0443,-54.99456 14.91558,-20.82211 31.26957,-42.22434 35.02746,-54.86895 7.01424,-23.6016 10.84897,-34.58487 12.63349,-57.35683 1.73028,-22.07979 3.58329,-27.25563 0.94934,-36.15437 -6.96268,-23.52324 -6.83798,-31.35998 -25.28561,-42.9918 -19.02403,-11.99526 -39.0488,-14.51073 -63.66111,-4.72089 -30.47811,12.12303 -45.02463,26.76332 -60.02604,40.84558 -7.37918,6.92705 -44.25347,46.38368 -49.95028,50.26595 -20.91344,14.25211 -83.208574,50.3993 -83.208574,50.3993 0,0 68.531944,-43.76375 82.209884,-56.49228 9.89128,-9.20471 25.41041,-27.23459 31.34204,-35.262 5.93163,-8.02741 42.01889,-48.46241 68.8532,-66.7344 16.67703,-11.35571 31.61345,-34.36077 29.46287,-48.5409 -2.15058,-14.18013 -19.99793,-44.06875 -31.83764,-52.38584 -14.77641,-10.38004 -26.68585,-37.59684 -38.67747,-41.90625 -20.00847,-7.1904 -40.1214,16.6303 -64.87512,10.66776 -24.75371,-5.96254 -37.062751,-11.3203 -55.715901,-10.34111 -20.485394,1.07537 -55.829464,21.3754 -55.829464,21.3754 0,0 43.589313,-23.83012 57.068409,-25.43014 12.505754,-1.48448 44.929876,5.10457 54.191606,9.27347 13.55825,6.10287 49.91348,-21.22765 67.49272,-18.40482 21.58519,3.46609 20.32236,17.06918 45.1402,30.84634 18.83818,10.45766 44.00838,13.34119 58.56938,0.77114 14.561,-12.57005 16.27216,-27.94889 15.5657,-44.96333 C 319.35188,200.8771 315.28898,175.3943 304.9383,156.91749 298.0549,144.63007 291.11929,131.77715 290.78672,117.80761 290.32526,98.860027 279.598,53.708716 279.598,53.708716 c 0,0 12.29571,47.936934 13.44048,59.846804 2.54904,26.51949 18.05378,37.3678 22.42147,47.45489 10.16056,23.46561 7.62778,38.49952 17.45703,55.25657 8.20576,13.98929 15.85094,25.75639 37.03864,27.27207 21.1877,1.51567 38.75141,-8.92642 52.00622,-21.01343 16.97367,-15.47822 40.57278,-48.83383 48.63899,-58.51006 8.24199,-9.8871 27.25788,-36.16028 41.63623,-60.99417 14.75453,-25.483605 49.37476,-57.820964 49.37476,-57.820964 0.0172,-0.04478 -34.0747,36.809036 -47.05732,58.957234 -13.09264,22.33589 -17.9941,31.2941 -37.54398,58.77736 -19.54989,27.48326 -32.56714,45.73299 -38.43028,67.85604 -4.41393,16.65483 -3.88986,36.80436 0.87191,47.68954 7.24508,16.92275 34.34116,42.09908 46.42303,49.4559 53.02587,32.28825 101.51034,28.26956 151.92011,28.26987 55.59061,3.4e-4 185.48119,10.23275 300.53092,13.6942 115.08829,3.46261 212.34919,3.44239 542.50619,26.93746 19.4541,1.38441 39.3246,-68.90066 73.6214,-101.62548 17.1484,-16.36241 35.5397,-18.44492 58.1658,-30.28351 11.3131,-5.9193 21.5283,-19.82285 29.4795,-33.00857 3.9756,-6.59284 14.6533,-23.97808 23.9459,-38.48492 11.5151,-17.97651 1.8247,-16.88995 7.2682,-25.19399 3.7041,-5.65068 20.4222,7.59233 17.4892,12.42721 -5.1901,8.55562 -11.6836,-1.63955 -22.6903,14.84858 -9.4935,14.22127 -20.1041,30.29728 -23.7913,37.14452 -7.3744,13.69445 -17.4194,28.5255 -29.6959,36.26231 -24.5529,15.47361 -40.7798,14.89305 -55.0267,30.99381 -28.4937,32.20151 -43.5651,71.7053 -38.7619,84.32617 5.4005,14.19047 89.216,10.3945 126.0117,10.78299 29.2019,0.30831 96.2642,11.73547 159.2409,7.72766 31.4884,-2.0039 42.7735,1.52835 78.3954,5.1639 39.3279,3.98233 90.1578,-1.62667 101.5409,1.65641 5.1347,1.48096 0.5803,17.58503 -4.434,16.54448 -11.3565,-2.35668 -11.026,-9.17124 -39.396,-10.42033 -33.8856,-1.52506 -91.1173,-5.91292 -119.1874,-5.37432 -35.0498,0.67253 -224.2751,0.49484 -301.3183,1.65979 -31.0082,0.46887 -382.5664,-19.56396 -422.8557,-19.90197 -40.2893,-0.33801 -250.01969,-3.2356 -299.04991,-4.7432 -49.00782,-1.5069 -122.72113,-12.70096 -165.82711,-9.08207 -43.71015,3.6696 -94.20576,0.30182 -140.66862,9.91938 -46.02282,9.52648 -67.47665,21.85429 -78.81364,27.66291 z"
           style="fill:none;stroke:#000000;stroke-width:44.54929352;stroke-linecap:round;stroke-linejoin:round;stroke-miterlimit:4;stroke-opacity:1;stroke-dasharray:none;stroke-dashoffset:2.98349977"
           inkscape:connector-curvature="0" />
        <path
           sodipodi:nodetypes="csssscsssssss"
           id="path4149"
           d="m 511.62898,90.195542 c -2.27087,-0.516615 -4.36687,-5.016 -4.91037,-9.559055 -0.67198,-5.617076 -17.76071,-19.519717 -29.44428,-30.78581 -5.84179,-5.633049 -13.41298,-10.298889 -18.90758,-16.021021 -2.74729,-2.861063 -17.76029,-15.074223 -20.68793,-18.562334 -2.92763,-3.48811 -28.27359,-24.7450674 -28.27359,-24.7450674 0,0 36.24587,28.8724554 39.59642,32.2198914 3.35056,3.347436 11.69824,10.128298 14.43493,12.77153 5.47337,5.286465 4.83037,3.572541 11.17175,8.842386 12.68276,10.539695 35.43502,27.757739 39.97715,27.36112 4.755,-0.415208 9.71426,0.659037 10.40092,2.247454 1.14244,2.642756 -0.84523,7.007984 -3.79435,10.558773 -2.94912,3.55079 -6.8597,6.28714 -9.56307,5.672133 z"
           style="fill:none;stroke:#000000;stroke-width:44.54929352;stroke-linecap:round;stroke-linejoin:round;stroke-miterlimit:4;stroke-opacity:1;stroke-dasharray:none;stroke-dashoffset:2.98349977"
           inkscape:connector-curvature="0" />
        <path
           sodipodi:nodetypes="csssscsssssss"
           id="path4151"
           d="m 74.412534,236.34966 c -1.146533,-2.02713 0.769992,-6.60582 3.763852,-10.06583 3.701639,-4.27796 12.064888,-36.07645 12.531884,-52.30027 0.2335,-8.11193 3.59786,-20.33712 1.299059,-24.76685 -1.827048,-3.52068 -13.22394,-19.57784 -12.615087,-24.09086 0.608872,-4.513 -0.07868,-31.4662 -0.07868,-31.4662 0,0 3.046272,24.67372 2.826124,29.40478 -0.220149,4.73109 11.214818,19.80727 12.688433,24.06431 2.33238,6.73789 -0.91537,20.13639 -0.54399,28.37329 0.742791,16.47379 -7.567031,47.50367 -4.216279,50.5957 3.507781,3.23695 6.051575,7.62757 5.339105,9.20456 -1.185362,2.62378 -5.751522,4.09223 -10.362556,4.30141 -4.611024,0.2092 -9.266963,-0.84085 -10.631863,-3.25404 z"
           style="fill:none;stroke:#000000;stroke-width:44.54929352;stroke-linecap:round;stroke-linejoin:round;stroke-miterlimit:4;stroke-opacity:1;stroke-dasharray:none;stroke-dashoffset:2.98349977"
           inkscape:connector-curvature="0" />
        <path
           id="path4153"
           d="m 757.84864,449.58094 0,0 z"
           style="fill:none;stroke:#000000;stroke-width:44.54929352;stroke-linecap:butt;stroke-linejoin:miter;stroke-miterlimit:4;stroke-opacity:1;stroke-dasharray:none"
           inkscape:connector-curvature="0" />
        <ellipse
           transform="matrix(1.9159051,0,0,1.7338186,-161.06706,-193.63323)"
           id="path4155"
           style="fill:none;stroke:#000000;stroke-width:24.44285965;stroke-linecap:round;stroke-linejoin:round;stroke-miterlimit:4;stroke-opacity:1;stroke-dasharray:none;stroke-dashoffset:2.98349977"
           cx="281.57465"
           cy="309.10168"
           rx="21.564798"
           ry="23.41321"
           d="m 303.13944,309.10168 c 0,12.93076 -9.65488,23.41321 -21.56479,23.41321 -11.90991,0 -21.5648,-10.48245 -21.5648,-23.41321 0,-12.93075 9.65489,-23.41321 21.5648,-23.41321 11.90991,0 21.56479,10.48246 21.56479,23.41321 z"
           sodipodi:cx="281.57465"
           sodipodi:cy="309.10168"
           sodipodi:rx="21.564798"
           sodipodi:ry="23.41321" />
        <path
           sodipodi:nodetypes="csssscsssssss"
           id="path4157"
           d="m 290.04301,266.76786 c -2.04397,-1.11623 -2.83373,-6.01662 -2.11791,-10.53574 0.88506,-5.58747 -27.21904,-49.15889 -35.38807,-63.18379 -4.08451,-7.01245 -9.59261,-16.53179 -13.3188,-23.53528 -1.86308,-3.50174 -19.15774,-33.53977 -21.02337,-37.69398 -1.86561,-4.15422 6.52833,-0.21908 6.52833,-0.21908 0,0 1.98984,8.87857 4.30071,13.01274 2.31088,4.13419 16.32269,30.67835 18.23497,33.96762 3.82456,6.57853 8.53135,15.48488 13.19555,22.28411 9.32842,13.59847 32.99328,48.07443 37.47145,48.93133 4.68804,0.89704 9.16647,3.28279 9.39401,4.99824 0.37856,2.85414 -2.72402,6.51198 -6.52957,9.12412 -3.80555,2.61213 -8.31406,4.17852 -10.7473,2.84971 z"
           style="fill:none;stroke:#000000;stroke-width:44.54929352;stroke-linecap:round;stroke-linejoin:round;stroke-miterlimit:4;stroke-opacity:1;stroke-dasharray:none;stroke-dashoffset:2.98349977"
           inkscape:connector-curvature="0" />
      </g>
      <text
         sodipodi:linespacing="125%"
         id="text4159"
         y="1190.1956"
         x="-114.52261"
         style="font-size:127.29139709px;font-style:normal;font-variant:normal;font-weight:normal;font-stretch:normal;line-height:125%;letter-spacing:0px;word-spacing:0px;fill:#000000;fill-opacity:1;stroke:none;font-family:Symbol;-inkscape-font-specification:Symbol"
         xml:space="preserve"><tspan
           style="font-size:458.2489624px;font-style:normal;font-variant:normal;font-weight:normal;font-stretch:normal;stroke:none;font-family:Sans;-inkscape-font-specification:Sans"
           y="1190.1956"
           x="-114.52261"
           id="tspan4161"
           sodipodi:role="line">]ab</tspan></text>
      <text
         xml:space="preserve"
         style="font-size:127.29139709px;font-style:normal;font-variant:normal;font-weight:normal;font-stretch:normal;line-height:125%;letter-spacing:0px;word-spacing:0px;fill:#000000;fill-opacity:1;stroke:none;font-family:Symbol;-inkscape-font-specification:Symbol"
         x="-824.18677"
         y="1190.1956"
         id="text4163"
         sodipodi:linespacing="125%"><tspan
           sodipodi:role="line"
           id="tspan4165"
           x="-824.18677"
           y="1190.1956"
           style="font-size:458.2489624px;font-style:normal;font-variant:normal;font-weight:normal;font-stretch:normal;stroke:none;font-family:Sans;-inkscape-font-specification:Sans">P[</tspan></text>
    </g>
  </g>
</svg>
