<svg xmlns="http://www.w3.org/2000/svg" width="600" height="176.294"><g style="stroke:#000;stroke-width:44.54929733;stroke-miterlimit:4;stroke-opacity:1;stroke-dasharray:none" transform="matrix(.03113 -.03678 .03877 .02953 157.28 151.487)"><path d="M414.475 415.84c-20.865 10.69-17.838 5.495-38.098 23.817-17.328 15.672-24.9 19.448-27.244 54.165-1.385 20.515 16.002 19.929 35.776 36.373 17.556 14.6 26.195 26.405 40.089 44.775s49.854 33.984 51.02 36.648c-3.445-3.142-35.96-11.893-48.6-27.956-9.655-12.269-23.088-23.824-27.708-29.342-7.308-8.727-36.625-35.141-51.437-31.118-9.525 2.588-13.662 22.533-18.932 31.48-6.675 11.333-22.458 34.22-38.513 53.032s-12.974 52.343-12.113 51.08c.202 1.052-2.872-34.173 12.044-54.995 14.915-20.822 31.27-42.224 35.027-54.869 7.015-23.602 10.85-34.585 12.634-57.357 1.73-22.08 3.583-27.256.95-36.154-6.964-23.523-6.839-31.36-25.286-42.992-19.024-11.995-39.05-14.51-63.662-4.72-30.478 12.122-45.024 26.762-60.026 40.845-7.379 6.927-44.253 46.383-49.95 50.266-20.913 14.252-83.208 50.399-83.208 50.399s68.531-43.764 82.21-56.492c9.89-9.205 25.41-27.235 31.341-35.262s42.02-48.463 68.854-66.735c16.677-11.356 31.613-34.36 29.463-48.54-2.151-14.18-19.998-44.07-31.838-52.387-14.777-10.38-26.686-37.596-38.678-41.906-20.008-7.19-40.121 16.63-64.875 10.668-24.753-5.963-37.062-11.32-55.716-10.341-20.485 1.075-55.83 21.375-55.83 21.375s43.59-23.83 57.07-25.43c12.505-1.484 44.93 5.105 54.191 9.274 13.558 6.102 49.913-21.228 67.493-18.405 21.585 3.466 20.322 17.069 45.14 30.846 18.838 10.458 44.008 13.341 58.57.771 14.56-12.57 16.271-27.949 15.565-44.963-.846-20.813-4.909-46.296-15.26-64.773-6.883-12.287-13.819-25.14-14.151-39.11-.462-18.947-11.189-64.098-11.189-64.098s12.296 47.937 13.44 59.847c2.55 26.519 18.054 37.367 22.422 47.454 10.16 23.466 7.628 38.5 17.457 55.257 8.206 13.99 15.85 25.756 37.039 27.272 21.187 1.516 38.751-8.926 52.006-21.013 16.974-15.479 40.573-48.834 48.639-58.51 8.242-9.888 27.258-36.16 41.636-60.995 14.755-25.483 49.375-57.82 49.375-57.82.017-.045-34.075 36.808-47.057 58.957-13.093 22.336-17.995 31.294-37.544 58.777-19.55 27.483-32.568 45.733-38.43 67.856-4.415 16.655-3.89 36.804.871 47.69 7.245 16.922 34.341 42.099 46.423 49.456 53.026 32.288 101.51 28.27 151.92 28.27 55.59 0 185.481 10.232 300.531 13.694 115.088 3.462 212.35 3.442 542.506 26.937 19.454 1.384 39.325-68.9 73.622-101.625 17.148-16.363 35.54-18.445 58.166-30.284 11.313-5.92 21.528-19.823 29.48-33.009 3.975-6.592 14.652-23.978 23.945-38.484 11.515-17.977 1.825-16.89 7.268-25.194 3.704-5.651 20.422 7.592 17.49 12.427-5.19 8.555-11.684-1.64-22.69 14.848-9.494 14.222-20.105 30.298-23.792 37.145-7.375 13.694-17.42 28.525-29.696 36.262-24.553 15.474-40.78 14.893-55.027 30.994-28.494 32.202-43.565 71.705-38.762 84.326 5.4 14.19 89.216 10.395 126.012 10.783 29.202.308 96.264 11.736 159.24 7.728 31.49-2.004 42.774 1.528 78.396 5.164 39.328 3.982 90.158-1.627 101.541 1.656 5.135 1.481.58 17.585-4.434 16.545-11.356-2.357-11.026-9.172-39.396-10.42-33.885-1.526-91.117-5.914-119.187-5.375-35.05.672-224.275.495-301.319 1.66-31.008.469-382.566-19.564-422.855-19.902s-250.02-3.236-299.05-4.743c-49.008-1.507-122.721-12.701-165.827-9.082-43.71 3.67-94.206.301-140.669 9.919-46.023 9.526-67.476 21.854-78.813 27.663" style="fill:none;stroke:#000;stroke-width:44.54929733;stroke-linecap:round;stroke-linejoin:round;stroke-miterlimit:4;stroke-opacity:1;stroke-dasharray:none;stroke-dashoffset:2.98349977"/><path d="M511.629 90.196c-2.27-.517-4.367-5.016-4.91-9.56-.672-5.617-17.761-19.52-29.445-30.785-5.841-5.633-13.413-10.3-18.907-16.021-2.748-2.861-17.76-15.075-20.688-18.563S409.405-9.478 409.405-9.478s36.246 28.873 39.597 32.22c3.35 3.348 11.698 10.128 14.435 12.772 5.473 5.286 4.83 3.572 11.171 8.842 12.683 10.54 35.435 27.758 39.977 27.361 4.755-.415 9.715.66 10.401 2.248 1.143 2.642-.845 7.008-3.794 10.558-2.95 3.551-6.86 6.288-9.563 5.673M74.413 236.35c-1.147-2.027.77-6.606 3.763-10.066 3.702-4.278 12.065-36.077 12.532-52.3.234-8.112 3.598-20.338 1.3-24.767-1.828-3.521-13.225-19.578-12.616-24.091.61-4.513-.078-31.466-.078-31.466s3.046 24.673 2.826 29.404 11.215 19.808 12.688 24.065c2.332 6.738-.915 20.136-.544 28.373.743 16.474-7.567 47.504-4.216 50.596 3.508 3.237 6.051 7.627 5.339 9.204-1.185 2.624-5.752 4.093-10.363 4.302s-9.267-.841-10.631-3.254" style="fill:none;stroke:#000;stroke-width:44.54929733;stroke-linecap:round;stroke-linejoin:round;stroke-miterlimit:4;stroke-opacity:1;stroke-dasharray:none;stroke-dashoffset:2.98349977"/><path d="M757.849 449.58z" style="fill:none;stroke:#000;stroke-width:44.54929733;stroke-linecap:butt;stroke-linejoin:miter;stroke-miterlimit:4;stroke-opacity:1;stroke-dasharray:none"/><ellipse cx="281.575" cy="309.102" rx="21.565" ry="23.413" style="fill:none;stroke:#000;stroke-width:24.44285965;stroke-linecap:round;stroke-linejoin:round;stroke-miterlimit:4;stroke-opacity:1;stroke-dasharray:none;stroke-dashoffset:2.98349977" transform="matrix(1.9159 0 0 1.73382 -161.067 -193.633)"/><path d="M290.043 266.768c-2.044-1.116-2.834-6.017-2.118-10.536.885-5.587-27.219-49.159-35.388-63.184-4.084-7.012-9.593-16.531-13.319-23.535-1.863-3.502-19.158-33.54-21.023-37.694-1.866-4.154 6.528-.219 6.528-.219s1.99 8.879 4.3 13.013c2.312 4.134 16.324 30.678 18.236 33.967 3.824 6.579 8.531 15.485 13.195 22.284 9.329 13.599 32.994 48.075 37.472 48.932 4.688.897 9.166 3.283 9.394 4.998.378 2.854-2.724 6.512-6.53 9.124s-8.314 4.179-10.747 2.85" style="fill:none;stroke:#000;stroke-width:44.54929733;stroke-linecap:round;stroke-linejoin:round;stroke-miterlimit:4;stroke-opacity:1;stroke-dasharray:none;stroke-dashoffset:2.98349977"/></g><g style="stroke:#000;stroke-width:44.54929352;stroke-miterlimit:4;stroke-opacity:1;stroke-dasharray:none" transform="matrix(.03104 .03684 -.03884 .02945 192.94 -.529)"><path d="M414.475 415.84c-20.865 10.69-17.838 5.495-38.098 23.817-17.328 15.672-24.9 19.448-27.244 54.165-1.385 20.515 16.002 19.929 35.776 36.373 17.556 14.6 26.195 26.405 40.089 44.775s49.854 33.984 51.02 36.648c-3.445-3.142-35.96-11.893-48.6-27.956-9.655-12.269-23.088-23.824-27.708-29.342-7.308-8.727-36.625-35.141-51.437-31.118-9.525 2.588-13.662 22.533-18.932 31.48-6.675 11.333-22.458 34.22-38.513 53.032s-12.974 52.343-12.113 51.08c.202 1.052-2.872-34.173 12.044-54.995 14.915-20.822 31.27-42.224 35.027-54.869 7.015-23.602 10.85-34.585 12.634-57.357 1.73-22.08 3.583-27.256.95-36.154-6.964-23.523-6.839-31.36-25.286-42.992-19.024-11.995-39.05-14.51-63.662-4.72-30.478 12.122-45.024 26.762-60.026 40.845-7.379 6.927-44.253 46.383-49.95 50.266-20.913 14.252-83.208 50.399-83.208 50.399s68.531-43.764 82.21-56.492c9.89-9.205 25.41-27.235 31.341-35.262s42.02-48.463 68.854-66.735c16.677-11.356 31.613-34.36 29.463-48.54-2.151-14.18-19.998-44.07-31.838-52.387-14.777-10.38-26.686-37.596-38.678-41.906-20.008-7.19-40.121 16.63-64.875 10.668-24.753-5.963-37.062-11.32-55.716-10.341-20.485 1.075-55.83 21.375-55.83 21.375s43.59-23.83 57.07-25.43c12.505-1.484 44.93 5.105 54.191 9.274 13.558 6.102 49.913-21.228 67.493-18.405 21.585 3.466 20.322 17.069 45.14 30.846 18.838 10.458 44.008 13.341 58.57.771 14.56-12.57 16.271-27.949 15.565-44.963-.846-20.813-4.909-46.296-15.26-64.773-6.883-12.287-13.819-25.14-14.151-39.11-.462-18.947-11.189-64.098-11.189-64.098s12.296 47.937 13.44 59.847c2.55 26.519 18.054 37.367 22.422 47.454 10.16 23.466 7.628 38.5 17.457 55.257 8.206 13.99 15.85 25.756 37.039 27.272 21.187 1.516 38.751-8.926 52.006-21.013 16.974-15.479 40.573-48.834 48.639-58.51 8.242-9.888 27.258-36.16 41.636-60.995 14.755-25.483 49.375-57.82 49.375-57.82.017-.045-34.075 36.808-47.057 58.957-13.093 22.336-17.995 31.294-37.544 58.777-19.55 27.483-32.568 45.733-38.43 67.856-4.415 16.655-3.89 36.804.871 47.69 7.245 16.922 34.341 42.099 46.423 49.456 53.026 32.288 101.51 28.27 151.92 28.27 55.59 0 185.481 10.232 300.531 13.694 115.088 3.462 212.35 3.442 542.506 26.937 19.454 1.384 39.325-68.9 73.622-101.625 17.148-16.363 35.54-18.445 58.166-30.284 11.313-5.92 21.528-19.823 29.48-33.009 3.975-6.592 14.652-23.978 23.945-38.484 11.515-17.977 1.825-16.89 7.268-25.194 3.704-5.651 20.422 7.592 17.49 12.427-5.19 8.555-11.684-1.64-22.69 14.848-9.494 14.222-20.105 30.298-23.792 37.145-7.375 13.694-17.42 28.525-29.696 36.262-24.553 15.474-40.78 14.893-55.027 30.994-28.494 32.202-43.565 71.705-38.762 84.326 5.4 14.19 89.216 10.395 126.012 10.783 29.202.308 96.264 11.736 159.24 7.728 31.49-2.004 42.774 1.528 78.396 5.164 39.328 3.982 90.158-1.627 101.541 1.656 5.135 1.481.58 17.585-4.434 16.545-11.356-2.357-11.026-9.172-39.396-10.42-33.885-1.526-91.117-5.914-119.187-5.375-35.05.672-224.275.495-301.319 1.66-31.008.469-382.566-19.564-422.855-19.902s-250.02-3.236-299.05-4.743c-49.008-1.507-122.721-12.701-165.827-9.082-43.71 3.67-94.206.301-140.669 9.919-46.023 9.526-67.476 21.854-78.813 27.663" style="fill:none;stroke:#000;stroke-width:44.54929352;stroke-linecap:round;stroke-linejoin:round;stroke-miterlimit:4;stroke-opacity:1;stroke-dasharray:none;stroke-dashoffset:2.98349977"/><path d="M511.629 90.196c-2.27-.517-4.367-5.016-4.91-9.56-.672-5.617-17.761-19.52-29.445-30.785-5.841-5.633-13.413-10.3-18.907-16.021-2.748-2.861-17.76-15.075-20.688-18.563S409.405-9.478 409.405-9.478s36.246 28.873 39.597 32.22c3.35 3.348 11.698 10.128 14.435 12.772 5.473 5.286 4.83 3.572 11.171 8.842 12.683 10.54 35.435 27.758 39.977 27.361 4.755-.415 9.715.66 10.401 2.248 1.143 2.642-.845 7.008-3.794 10.558-2.95 3.551-6.86 6.288-9.563 5.673M74.413 236.35c-1.147-2.027.77-6.606 3.763-10.066 3.702-4.278 12.065-36.077 12.532-52.3.234-8.112 3.598-20.338 1.3-24.767-1.828-3.521-13.225-19.578-12.616-24.091.61-4.513-.078-31.466-.078-31.466s3.046 24.673 2.826 29.404 11.215 19.808 12.688 24.065c2.332 6.738-.915 20.136-.544 28.373.743 16.474-7.567 47.504-4.216 50.596 3.508 3.237 6.051 7.627 5.339 9.204-1.185 2.624-5.752 4.093-10.363 4.302s-9.267-.841-10.631-3.254" style="fill:none;stroke:#000;stroke-width:44.54929352;stroke-linecap:round;stroke-linejoin:round;stroke-miterlimit:4;stroke-opacity:1;stroke-dasharray:none;stroke-dashoffset:2.98349977"/><path d="M757.849 449.58z" style="fill:none;stroke:#000;stroke-width:44.54929352;stroke-linecap:butt;stroke-linejoin:miter;stroke-miterlimit:4;stroke-opacity:1;stroke-dasharray:none"/><ellipse cx="281.575" cy="309.102" rx="21.565" ry="23.413" style="fill:none;stroke:#000;stroke-width:24.44285774;stroke-linecap:round;stroke-linejoin:round;stroke-miterlimit:4;stroke-opacity:1;stroke-dasharray:none;stroke-dashoffset:2.98349977" transform="matrix(1.9159 0 0 1.73382 -161.067 -193.633)"/><path d="M290.043 266.768c-2.044-1.116-2.834-6.017-2.118-10.536.885-5.587-27.219-49.159-35.388-63.184-4.084-7.012-9.593-16.531-13.319-23.535-1.863-3.502-19.158-33.54-21.023-37.694-1.866-4.154 6.528-.219 6.528-.219s1.99 8.879 4.3 13.013c2.312 4.134 16.324 30.678 18.236 33.967 3.824 6.579 8.531 15.485 13.195 22.284 9.329 13.599 32.994 48.075 37.472 48.932 4.688.897 9.166 3.283 9.394 4.998.378 2.854-2.724 6.512-6.53 9.124s-8.314 4.179-10.747 2.85" style="fill:none;stroke:#000;stroke-width:44.54929352;stroke-linecap:round;stroke-linejoin:round;stroke-miterlimit:4;stroke-opacity:1;stroke-dasharray:none;stroke-dashoffset:2.98349977"/></g><g style="stroke:#000;stroke-width:44.54929352;stroke-miterlimit:4;stroke-opacity:1;stroke-dasharray:none" transform="matrix(.03254 .03536 -.03756 .03125 250.246 68.64)"><path d="M414.475 415.84c-20.865 10.69-17.838 5.495-38.098 23.817-17.328 15.672-24.9 19.448-27.244 54.165-1.385 20.515 16.002 19.929 35.776 36.373 17.556 14.6 26.195 26.405 40.089 44.775s49.854 33.984 51.02 36.648c-3.445-3.142-35.96-11.893-48.6-27.956-9.655-12.269-23.088-23.824-27.708-29.342-7.308-8.727-36.625-35.141-51.437-31.118-9.525 2.588-13.662 22.533-18.932 31.48-6.675 11.333-22.458 34.22-38.513 53.032s-12.974 52.343-12.113 51.08c.202 1.052-2.872-34.173 12.044-54.995 14.915-20.822 31.27-42.224 35.027-54.869 7.015-23.602 10.85-34.585 12.634-57.357 1.73-22.08 3.583-27.256.95-36.154-6.964-23.523-6.839-31.36-25.286-42.992-19.024-11.995-39.05-14.51-63.662-4.72-30.478 12.122-45.024 26.762-60.026 40.845-7.379 6.927-44.253 46.383-49.95 50.266-20.913 14.252-83.208 50.399-83.208 50.399s68.531-43.764 82.21-56.492c9.89-9.205 25.41-27.235 31.341-35.262s42.02-48.463 68.854-66.735c16.677-11.356 31.613-34.36 29.463-48.54-2.151-14.18-19.998-44.07-31.838-52.387-14.777-10.38-26.686-37.596-38.678-41.906-20.008-7.19-40.121 16.63-64.875 10.668-24.753-5.963-37.062-11.32-55.716-10.341-20.485 1.075-55.83 21.375-55.83 21.375s43.59-23.83 57.07-25.43c12.505-1.484 44.93 5.105 54.191 9.274 13.558 6.102 49.913-21.228 67.493-18.405 21.585 3.466 20.322 17.069 45.14 30.846 18.838 10.458 44.008 13.341 58.57.771 14.56-12.57 16.271-27.949 15.565-44.963-.846-20.813-4.909-46.296-15.26-64.773-6.883-12.287-13.819-25.14-14.151-39.11-.462-18.947-11.189-64.098-11.189-64.098s12.296 47.937 13.44 59.847c2.55 26.519 18.054 37.367 22.422 47.454 10.16 23.466 7.628 38.5 17.457 55.257 8.206 13.99 15.85 25.756 37.039 27.272 21.187 1.516 38.751-8.926 52.006-21.013 16.974-15.479 40.573-48.834 48.639-58.51 8.242-9.888 27.258-36.16 41.636-60.995 14.755-25.483 49.375-57.82 49.375-57.82.017-.045-34.075 36.808-47.057 58.957-13.093 22.336-17.995 31.294-37.544 58.777-19.55 27.483-32.568 45.733-38.43 67.856-4.415 16.655-3.89 36.804.871 47.69 7.245 16.922 34.341 42.099 46.423 49.456 53.026 32.288 101.51 28.27 151.92 28.27 55.59 0 185.481 10.232 300.531 13.694 115.088 3.462 212.35 3.442 542.506 26.937 19.454 1.384 39.325-68.9 73.622-101.625 17.148-16.363 35.54-18.445 58.166-30.284 11.313-5.92 21.528-19.823 29.48-33.009 3.975-6.592 14.652-23.978 23.945-38.484 11.515-17.977 1.825-16.89 7.268-25.194 3.704-5.651 20.422 7.592 17.49 12.427-5.19 8.555-11.684-1.64-22.69 14.848-9.494 14.222-20.105 30.298-23.792 37.145-7.375 13.694-17.42 28.525-29.696 36.262-24.553 15.474-40.78 14.893-55.027 30.994-28.494 32.202-43.565 71.705-38.762 84.326 5.4 14.19 89.216 10.395 126.012 10.783 29.202.308 96.264 11.736 159.24 7.728 31.49-2.004 42.774 1.528 78.396 5.164 39.328 3.982 90.158-1.627 101.541 1.656 5.135 1.481.58 17.585-4.434 16.545-11.356-2.357-11.026-9.172-39.396-10.42-33.885-1.526-91.117-5.914-119.187-5.375-35.05.672-224.275.495-301.319 1.66-31.008.469-382.566-19.564-422.855-19.902s-250.02-3.236-299.05-4.743c-49.008-1.507-122.721-12.701-165.827-9.082-43.71 3.67-94.206.301-140.669 9.919-46.023 9.526-67.476 21.854-78.813 27.663" style="fill:none;stroke:#000;stroke-width:44.54929352;stroke-linecap:round;stroke-linejoin:round;stroke-miterlimit:4;stroke-opacity:1;stroke-dasharray:none;stroke-dashoffset:2.98349977"/><path d="M511.629 90.196c-2.27-.517-4.367-5.016-4.91-9.56-.672-5.617-17.761-19.52-29.445-30.785-5.841-5.633-13.413-10.3-18.907-16.021-2.748-2.861-17.76-15.075-20.688-18.563S409.405-9.478 409.405-9.478s36.246 28.873 39.597 32.22c3.35 3.348 11.698 10.128 14.435 12.772 5.473 5.286 4.83 3.572 11.171 8.842 12.683 10.54 35.435 27.758 39.977 27.361 4.755-.415 9.715.66 10.401 2.248 1.143 2.642-.845 7.008-3.794 10.558-2.95 3.551-6.86 6.288-9.563 5.673M74.413 236.35c-1.147-2.027.77-6.606 3.763-10.066 3.702-4.278 12.065-36.077 12.532-52.3.234-8.112 3.598-20.338 1.3-24.767-1.828-3.521-13.225-19.578-12.616-24.091.61-4.513-.078-31.466-.078-31.466s3.046 24.673 2.826 29.404 11.215 19.808 12.688 24.065c2.332 6.738-.915 20.136-.544 28.373.743 16.474-7.567 47.504-4.216 50.596 3.508 3.237 6.051 7.627 5.339 9.204-1.185 2.624-5.752 4.093-10.363 4.302s-9.267-.841-10.631-3.254" style="fill:none;stroke:#000;stroke-width:44.54929352;stroke-linecap:round;stroke-linejoin:round;stroke-miterlimit:4;stroke-opacity:1;stroke-dasharray:none;stroke-dashoffset:2.98349977"/><path d="M757.849 449.58z" style="fill:none;stroke:#000;stroke-width:44.54929352;stroke-linecap:butt;stroke-linejoin:miter;stroke-miterlimit:4;stroke-opacity:1;stroke-dasharray:none"/><ellipse cx="281.575" cy="309.102" rx="21.565" ry="23.413" style="fill:none;stroke:#000;stroke-width:24.44285965;stroke-linecap:round;stroke-linejoin:round;stroke-miterlimit:4;stroke-opacity:1;stroke-dasharray:none;stroke-dashoffset:2.98349977" transform="matrix(1.9159 0 0 1.73382 -161.067 -193.633)"/><path d="M290.043 266.768c-2.044-1.116-2.834-6.017-2.118-10.536.885-5.587-27.219-49.159-35.388-63.184-4.084-7.012-9.593-16.531-13.319-23.535-1.863-3.502-19.158-33.54-21.023-37.694-1.866-4.154 6.528-.219 6.528-.219s1.99 8.879 4.3 13.013c2.312 4.134 16.324 30.678 18.236 33.967 3.824 6.579 8.531 15.485 13.195 22.284 9.329 13.599 32.994 48.075 37.472 48.932 4.688.897 9.166 3.283 9.394 4.998.378 2.854-2.724 6.512-6.53 9.124s-8.314 4.179-10.747 2.85" style="fill:none;stroke:#000;stroke-width:44.54929352;stroke-linecap:round;stroke-linejoin:round;stroke-miterlimit:4;stroke-opacity:1;stroke-dasharray:none;stroke-dashoffset:2.98349977"/></g><g style="font-size:127.29139709px;font-style:normal;font-variant:normal;font-weight:400;font-stretch:normal;line-height:125%;letter-spacing:0;word-spacing:0;fill:#000;fill-opacity:1;stroke:none;font-family:Symbol;-inkscape-font-specification:Symbol"><path d="M24.876 842.034v408.575h-94.871v-31.997h53.477V874.031h-53.477v-31.997zm196.68 222.188q-49.896 0-69.14 11.411-19.243 11.412-19.243 38.934 0 21.927 14.32 34.905 14.545 12.754 39.382 12.754 34.233 0 54.82-24.165 20.808-24.39 20.809-64.665v-9.174zm82.118-17.006v142.98h-41.17v-38.039q-14.097 22.824-35.13 33.787-21.034 10.74-51.463 10.74-38.487 0-61.31-21.48-22.598-21.705-22.598-57.952 0-42.29 28.193-63.77 28.416-21.48 84.579-21.48h57.729v-4.028q0-28.417-18.796-43.856-18.572-15.663-52.358-15.663-21.48 0-41.842 5.146-20.362 5.147-39.157 15.44v-38.039q22.599-8.726 43.855-12.978 21.257-4.474 41.395-4.475 54.372 0 81.223 28.193t26.85 85.475m264.926 17.9q0-45.422-18.796-71.154-18.572-25.955-51.24-25.956-32.668 0-51.463 25.956-18.572 25.732-18.572 71.154t18.572 71.378q18.795 25.731 51.463 25.731t51.24-25.732q18.795-25.955 18.796-71.377m-140.07-87.488q12.976-22.375 32.667-33.116 19.914-10.963 47.436-10.964 45.645 0 74.063 36.248 28.64 36.25 28.64 95.32t-28.64 95.32q-28.417 36.247-74.063 36.247-27.522 0-47.436-10.74-19.69-10.964-32.668-33.34v37.592h-41.394V842.034h41.394z" style="font-size:458.2489624px;font-family:Sans;-inkscape-font-specification:Sans" transform="translate(336.218 -363.324)scale(.43148)"/></g><g style="font-size:127.29139709px;font-style:normal;font-variant:normal;font-weight:400;font-stretch:normal;line-height:125%;letter-spacing:0;word-spacing:0;fill:#000;fill-opacity:1;stroke:none;font-family:Symbol;-inkscape-font-specification:Symbol"><path d="M-734.014 893.274V1018.8h56.834q31.55 0 48.778-16.334 17.23-16.335 17.23-46.541 0-29.984-17.23-46.317-17.229-16.335-48.778-16.334zm-45.198-37.144h102.032q56.162 0 84.803 25.508 28.864 25.285 28.864 74.287 0 49.45-28.864 74.734-28.641 25.284-84.803 25.284h-56.834v134.253h-45.198zm270.966-14.096h94.872v31.997h-53.7v344.581h53.7v31.997h-94.872z" style="font-size:458.2489624px;font-family:Sans;-inkscape-font-specification:Sans" transform="translate(336.218 -363.324)scale(.43148)"/></g></svg>