<?xml version="1.0" encoding="UTF-8" standalone="no"?>
<svg
   xmlns:dc="http://purl.org/dc/elements/1.1/"
   xmlns:cc="http://creativecommons.org/ns#"
   xmlns:rdf="http://www.w3.org/1999/02/22-rdf-syntax-ns#"
   xmlns:svg="http://www.w3.org/2000/svg"
   xmlns="http://www.w3.org/2000/svg"
   viewBox="0 0 500.38751 243.89999"
   height="243.89999"
   width="500.38751"
   xml:space="preserve"
   version="1.1"
   id="svg2"><metadata
     id="metadata8"><rdf:RDF><cc:Work
         rdf:about=""><dc:format>image/svg+xml</dc:format><dc:type
           rdf:resource="http://purl.org/dc/dcmitype/StillImage" /><dc:title></dc:title></cc:Work></rdf:RDF></metadata><defs
     id="defs6" /><g
     transform="matrix(1.25,0,0,-1.25,0,243.9)"
     id="g10"><g
       transform="scale(0.1,0.1)"
       id="g12"><path
         id="path14"
         style="fill:#a7a5a6;fill-opacity:1;fill-rule:nonzero;stroke:none"
         d="m 1287,501.5 48.13,0 c 30.95,0 46.44,16.371 46.44,49.102 l 0,5.648 c 0,31.398 -15.49,47.121 -46.44,47.121 l -48.13,0 0,-101.871 z m 0,120.77 43.48,0 c 15.7,0 27.15,3.261 34.33,9.8 7.19,6.52 10.79,17.532 10.79,33.012 0,14.379 -3.99,24.387 -11.94,30.027 -7.97,5.641 -19.47,8.461 -34.51,8.461 l -42.15,0 0,-81.3 z m -21.56,-132.719 0,225.969 c 0,2.652 1,4.691 2.99,6.14 1.99,1.43 4.31,2.149 6.97,2.149 l 54.41,0 c 10.18,0 19.03,-0.778 26.55,-2.321 7.52,-1.547 14.53,-4.308 21.07,-8.297 6.51,-3.98 11.49,-9.781 14.92,-17.421 3.44,-7.629 5.14,-17.079 5.14,-28.372 0,-13.707 -2.54,-25.328 -7.62,-34.828 -5.09,-9.531 -11.95,-16.16 -20.58,-19.922 11.07,-4.418 19.53,-11.058 25.39,-19.91 5.86,-8.847 8.79,-21.226 8.79,-37.16 l 0,-5.969 c 0,-23.89 -5.98,-41.257 -17.91,-52.089 -11.96,-10.84 -27.87,-16.258 -47.8,-16.258 l -62.36,0 c -3.11,0 -5.55,0.828 -7.3,2.488 -1.78,1.66 -2.66,3.59 -2.66,5.801" /><path
         id="path16"
         style="fill:#a7a5a6;fill-opacity:1;fill-rule:nonzero;stroke:none"
         d="m 1439.64,489.879 0,140.359 c 0,2.211 0.99,4.09 2.99,5.641 1.99,1.551 4.53,2.32 7.63,2.32 2.87,0 5.3,-0.777 7.29,-2.347 1.99,-1.582 2.99,-3.473 2.99,-5.723 l 0,-16.457 c 3.98,7.379 9.84,13.637 17.59,18.797 7.74,5.14 16.7,7.722 26.88,7.722 l 11.6,0 c 2.21,0 4.2,-1.011 5.98,-3.031 1.78,-2.031 2.65,-4.39 2.65,-7.078 0,-2.711 -0.87,-5.07 -2.65,-7.094 -1.78,-2.027 -3.77,-3.027 -5.98,-3.027 l -11.6,0 c -11.5,0 -21.68,-4.473 -30.53,-13.41 -8.85,-8.942 -13.28,-20.59 -13.28,-34.922 l 0,-81.77 c 0,-2.211 -1.05,-4.187 -3.14,-5.961 -2.11,-1.757 -4.71,-2.636 -7.8,-2.636 -2.89,0 -5.37,0.879 -7.48,2.648 -2.09,1.77 -3.14,3.762 -3.14,5.969" /><path
         id="path18"
         style="fill:#a7a5a6;fill-opacity:1;fill-rule:nonzero;stroke:none"
         d="m 1560.09,524.719 c 0,-9.278 2.65,-16.207 7.95,-20.739 5.31,-4.531 12.28,-6.789 20.92,-6.789 10.39,0 20.29,3.86 29.68,11.61 9.4,7.738 14.1,15.469 14.1,23.23 l 0,21.231 -13.92,0 c -8.85,0 -16.33,-0.332 -22.4,-1 -6.1,-0.66 -12.11,-1.883 -18.09,-3.653 -5.98,-1.769 -10.51,-4.64 -13.59,-8.621 -3.11,-3.988 -4.65,-9.066 -4.65,-15.269 z m -21.58,-1.989 c 0,17.399 6.58,29.5 19.74,36.282 13.17,6.789 32.37,10.179 57.58,10.179 l 16.91,0 0,7.809 c 0,11.93 -3.2,22.289 -9.61,31.09 -6.42,8.789 -16.26,13.191 -29.53,13.191 -8.86,0 -16.87,-1.582 -24.06,-4.722 -7.19,-3.137 -11.01,-4.719 -11.44,-4.719 -2.66,0 -4.77,1.191 -6.31,3.601 -1.55,2.387 -2.33,5 -2.33,7.829 0,4.199 4.75,8.082 14.28,11.621 9.49,3.539 19.67,5.3 30.53,5.3 20.78,0 35.99,-6.019 45.6,-18.082 9.63,-12.05 14.44,-27.379 14.44,-45.949 l 0,-86.281 c 0,-2.43 -1,-4.469 -2.97,-6.129 -1.99,-1.66 -4.55,-2.488 -7.64,-2.488 -2.89,0 -5.25,0.828 -7.13,2.488 -1.89,1.66 -2.83,3.699 -2.83,6.129 l 0,14.601 c -14.82,-17.031 -31.52,-25.55 -50.1,-25.55 -13.28,0 -24.12,3.699 -32.52,11.121 -8.41,7.41 -12.61,18.301 -12.61,32.679" /><path
         id="path20"
         style="fill:#a7a5a6;fill-opacity:1;fill-rule:nonzero;stroke:none"
         d="m 1694.79,489.879 0,140.359 c 0,2.211 1,4.09 2.99,5.641 2,1.551 4.53,2.32 7.64,2.32 3.09,0 5.68,-0.769 7.79,-2.32 2.09,-1.551 3.15,-3.43 3.15,-5.641 l 0,-140.359 c 0,-2.207 -1.12,-4.199 -3.32,-5.969 -2.21,-1.769 -4.75,-2.648 -7.62,-2.648 -2.89,0 -5.37,0.879 -7.48,2.648 -2.09,1.77 -3.15,3.762 -3.15,5.969 z m 0,198.93 c -2.87,2.761 -4.31,6.019 -4.31,9.781 0,3.762 1.44,6.969 4.31,9.629 2.88,2.652 6.41,3.972 10.63,3.972 3.98,0 7.34,-1.32 10.12,-3.972 2.75,-2.66 4.14,-5.867 4.14,-9.629 0,-3.762 -1.39,-7.02 -4.14,-9.781 -2.78,-2.778 -6.14,-4.149 -10.12,-4.149 -4.22,0 -7.75,1.371 -10.63,4.149" /><path
         id="path22"
         style="fill:#a7a5a6;fill-opacity:1;fill-rule:nonzero;stroke:none"
         d="m 1758.17,489.879 0,140.359 c 0,2.434 1,4.371 2.97,5.801 1.99,1.441 4.53,2.16 7.64,2.16 2.66,0 4.98,-0.777 6.97,-2.347 1.99,-1.582 2.99,-3.481 2.99,-5.723 l 0,-15.469 c 3.75,7.16 9.51,13.211 17.25,18.141 7.75,4.918 16.81,7.39 27.2,7.39 15.94,0 29.75,-6.082 41.49,-18.25 11.72,-12.171 17.58,-26.769 17.58,-43.8 l 0,-88.262 c 0,-2.649 -1.12,-4.758 -3.32,-6.301 -2.21,-1.547 -4.75,-2.316 -7.62,-2.316 -2.66,0 -5.1,0.769 -7.31,2.308 -2.2,1.551 -3.32,3.641 -3.32,6.289 l 0,88.051 c 0,10.82 -4.1,20.531 -12.28,29.141 -8.19,8.597 -17.91,12.91 -29.2,12.91 -10.39,0 -19.57,-3.871 -27.54,-11.59 -7.95,-7.73 -11.93,-17.883 -11.93,-30.461 l 0,-88.051 c 0,-2.211 -1.12,-4.187 -3.32,-5.961 -2.21,-1.757 -4.77,-2.636 -7.64,-2.636 -3.11,0 -5.65,0.879 -7.64,2.648 -1.97,1.77 -2.97,3.762 -2.97,5.969" /><path
         id="path24"
         style="fill:#a7a5a6;fill-opacity:1;fill-rule:nonzero;stroke:none"
         d="m 1912.78,502.828 c 0,2.211 0.76,4.41 2.33,6.633 1.54,2.211 3.32,3.32 5.31,3.32 1.54,0 3.96,-1.281 7.29,-3.82 3.32,-2.551 8.08,-5.141 14.27,-7.789 6.19,-2.66 13.6,-3.981 22.23,-3.981 11.72,0 20.35,2.2 25.88,6.629 5.53,4.418 8.3,10.059 8.3,16.918 0,7.973 -2.81,14.332 -8.46,19.09 -5.64,4.754 -12.46,8.344 -20.41,10.75 -7.97,2.434 -15.99,4.863 -24.06,7.313 -8.07,2.437 -14.92,6.711 -20.57,12.789 -5.64,6.09 -8.45,14.211 -8.45,24.39 0,12.16 4.35,22.731 13.1,31.692 8.73,8.949 21.84,13.429 39.32,13.429 10.84,0 20.95,-1.722 30.35,-5.14 9.41,-3.43 14.1,-7.129 14.1,-11.121 0,-2.2 -0.88,-4.641 -2.64,-7.289 -1.77,-2.661 -3.88,-3.993 -6.3,-3.993 -0.67,0 -4.77,1.551 -12.29,4.653 -7.52,3.097 -15.16,4.64 -22.89,4.64 -11.07,0 -19.36,-2.601 -24.88,-7.8 -5.53,-5.2 -8.3,-11.051 -8.3,-17.551 0,-6.719 2.87,-12.031 8.59,-15.93 5.74,-3.89 12.6,-7.031 20.59,-9.39 7.96,-2.372 16.05,-4.758 24.25,-7.18 8.19,-2.43 15.04,-7.25 20.57,-14.43 5.53,-7.199 8.28,-16.512 8.28,-27.922 0,-13.277 -4.69,-23.718 -14.1,-31.359 -9.4,-7.629 -22.5,-11.449 -39.32,-11.449 -14.59,0 -26.93,2.601 -36.99,7.808 -10.08,5.192 -15.1,10.551 -15.1,16.09" /><path
         id="path26"
         style="fill:#a7a5a6;fill-opacity:1;fill-rule:nonzero;stroke:none"
         d="m 2129.13,550.859 c 0,-14.8 5.08,-27.281 15.27,-37.437 10.18,-10.16 24.03,-15.242 41.53,-15.242 22.15,0 38.77,8.949 49.84,26.84 l -71.99,75.859 c -4.79,-2.867 -8.71,-5.469 -11.76,-7.789 -3.06,-2.32 -6.6,-5.508 -10.64,-9.61 -4.03,-4.082 -7.07,-8.878 -9.14,-14.41 -2.09,-5.519 -3.11,-11.59 -3.11,-18.211 z m -21.91,-2 c 0,15.692 4.22,29.161 12.67,40.422 8.44,11.258 18.95,19.77 31.51,25.508 -8.44,9.93 -14.91,19.332 -19.46,28.172 -4.53,8.82 -6.79,18.867 -6.79,30.141 0,17.449 5.72,31.207 17.14,41.269 11.45,10.051 25.65,15.078 42.58,15.078 16.31,0 29.48,-3.758 39.51,-11.277 10.04,-7.512 15.08,-14.363 15.08,-20.563 0,-2.871 -1.01,-5.238 -3.02,-7.109 -2.02,-1.879 -4.46,-2.82 -7.37,-2.82 -1.78,0 -3.85,1.211 -6.19,3.648 -2.34,2.422 -4.69,5.121 -7.03,8.113 -2.34,2.981 -6.19,5.68 -11.54,8.118 -5.37,2.429 -11.51,3.64 -18.42,3.64 -12.07,0 -21.54,-3.59 -28.48,-10.758 -6.91,-7.179 -10.37,-16.742 -10.37,-28.671 0,-7.282 1.66,-14.579 5.02,-21.86 3.34,-7.289 6.86,-13.191 10.55,-17.719 3.69,-4.543 8.86,-10.429 15.56,-17.73 l 67.97,-73.539 c 6.49,14.578 10.28,34.668 11.39,60.289 0.21,3.32 1,5.629 2.32,6.961 1.33,1.328 3.87,1.988 7.64,1.988 6.19,0 9.3,-3.859 9.3,-11.601 0,-26.731 -5.55,-50.911 -16.6,-72.547 l 30.52,-32.961 c 1.33,-1.551 2,-3.102 2,-4.653 0,-2.476 -1.06,-4.679 -3.15,-6.597 -2.11,-1.91 -4.37,-2.871 -6.82,-2.871 -2.2,0 -4.29,1.011 -6.28,3.019 l -26.96,29.153 c -16.31,-22.114 -38.61,-33.161 -66.97,-33.161 -23.01,0 -41.33,6.879 -54.92,20.637 -13.6,13.774 -20.39,30.531 -20.39,50.281" /><path
         id="path28"
         style="fill:#a7a5a6;fill-opacity:1;fill-rule:nonzero;stroke:none"
         d="m 2387.26,550.27 0,102.859 c 0,24.109 6.48,41.93 19.41,53.43 12.95,11.492 29.71,17.25 50.27,17.25 21.02,0 37.66,-5.368 49.94,-16.09 12.27,-10.731 18.42,-23.848 18.42,-39.321 0,-5.308 -0.84,-8.847 -2.5,-10.617 -1.66,-1.781 -4.47,-2.66 -8.45,-2.66 -6.86,0 -10.51,2.77 -10.94,8.309 -0.24,3.308 -0.67,6.511 -1.33,9.609 -0.66,3.102 -1.99,6.59 -3.98,10.449 -2,3.871 -4.59,7.25 -7.82,10.133 -3.2,2.867 -7.67,5.238 -13.43,7.129 -5.75,1.871 -12.39,2.82 -19.91,2.82 -31.85,0 -47.77,-16.808 -47.77,-50.441 l 0,-102.859 c 0,-33.84 16.37,-50.758 49.1,-50.758 9.3,0 17.03,1.269 23.22,3.808 6.2,2.551 10.73,6.25 13.62,11.121 2.87,4.86 4.8,9 5.8,12.438 0.99,3.43 1.83,7.91 2.5,13.441 0.64,5.75 4.3,8.621 10.94,8.621 3.98,0 6.79,-0.929 8.45,-2.812 1.66,-1.879 2.5,-5.481 2.5,-10.789 0,-15.699 -6.25,-28.981 -18.75,-39.82 -12.5,-10.829 -29.37,-16.25 -50.6,-16.25 -20.35,0 -36.9,5.75 -49.61,17.25 -12.72,11.5 -19.08,29.421 -19.08,53.75" /><path
         id="path30"
         style="fill:#a7a5a6;fill-opacity:1;fill-rule:nonzero;stroke:none"
         d="m 2574.4,542.082 c 0,-11.223 4.05,-21.184 12.11,-29.883 8.07,-8.679 17.76,-13.019 29.05,-13.019 11.48,0 21.32,4.34 29.53,13.019 8.16,8.699 12.26,18.66 12.26,29.883 l 0,35.957 c 0,10.781 -4.14,20.461 -12.44,29.043 -8.3,8.578 -18.08,12.879 -29.35,12.879 -11.29,0 -20.98,-4.301 -29.05,-12.879 -8.06,-8.582 -12.11,-18.262 -12.11,-29.043 l 0,-35.957 z m -21.56,-0.102 0,36.161 c 0,16.82 6.19,31.359 18.58,43.629 12.38,12.289 27.09,18.421 44.14,18.421 17.03,0 31.85,-6.082 44.45,-18.25 12.62,-12.171 18.91,-26.769 18.91,-43.8 l 0,-36.161 c 0,-16.589 -6.35,-31.25 -19.07,-43.96 -12.73,-12.731 -27.5,-19.09 -44.29,-19.09 -16.6,0 -31.19,6.359 -43.81,19.09 -12.6,12.71 -18.91,27.371 -18.91,43.96" /><path
         id="path32"
         style="fill:#a7a5a6;fill-opacity:1;fill-rule:nonzero;stroke:none"
         d="m 2714.42,489.879 0,140.359 c 0,2.211 1,4.09 2.99,5.641 1.99,1.551 4.53,2.32 7.64,2.32 2.87,0 5.29,-0.777 7.28,-2.347 2,-1.582 2.99,-3.481 2.99,-5.723 l 0,-15.469 c 3.99,7.391 9.79,13.488 17.42,18.309 7.64,4.812 16.55,7.222 26.72,7.222 10.61,0 20.12,-3.062 28.54,-9.211 8.4,-6.128 14.59,-14.218 18.57,-24.261 5.53,10.922 12.83,19.242 21.9,24.941 9.08,5.692 18.59,8.531 28.53,8.531 15.06,0 28.11,-5.632 39.16,-16.921 11.06,-11.282 16.6,-26.329 16.6,-45.129 l 0,-88.262 c 0,-2.207 -1.05,-4.199 -3.16,-5.969 -2.11,-1.769 -4.71,-2.648 -7.79,-2.648 -2.87,0 -5.37,0.879 -7.46,2.636 -2.11,1.774 -3.17,3.75 -3.17,5.961 l 0,88.051 c 0,13.031 -3.81,23.281 -11.44,30.789 -7.64,7.5 -16.43,11.262 -26.37,11.262 -10.18,0 -19.2,-3.82 -27.05,-11.43 -7.85,-7.601 -11.78,-17.383 -11.78,-29.293 l 0,-89.707 c 0,-5.519 -3.65,-8.269 -10.96,-8.269 -7.07,0 -10.6,2.75 -10.6,8.269 l 0,89.367 c 0,11.704 -3.71,21.473 -11.11,29.301 -7.43,7.832 -16.33,11.762 -26.72,11.762 -10.41,0 -19.53,-3.82 -27.39,-11.43 -7.85,-7.601 -11.77,-17.82 -11.77,-30.621 l 0,-88.051 c 0,-2.211 -1.12,-4.187 -3.32,-5.961 -2.21,-1.757 -4.75,-2.636 -7.62,-2.636 -2.89,0 -5.37,0.879 -7.48,2.648 -2.09,1.77 -3.15,3.762 -3.15,5.969" /><path
         id="path34"
         style="fill:#a7a5a6;fill-opacity:1;fill-rule:nonzero;stroke:none"
         d="m 2994.79,531.84 c 0,-5.93 4.17,-12.871 12.45,-20.789 8.3,-7.922 17.75,-11.871 28.38,-11.871 10.84,0 20.41,4.39 28.69,13.191 8.3,8.801 12.46,18.699 12.46,29.711 l 0,35.957 c 0,10.781 -4.16,20.461 -12.46,29.043 -8.28,8.578 -18.07,12.879 -29.36,12.879 -10.62,0 -19.96,-3.859 -28.05,-11.551 -8.06,-7.711 -12.11,-17.84 -12.11,-30.371 l 0,-46.199 z m -21.56,-119.258 0,217.656 c 0,2.211 1,4.09 2.99,5.641 1.99,1.551 4.53,2.32 7.64,2.32 2.87,0 5.29,-0.777 7.28,-2.347 1.99,-1.582 2.99,-3.473 2.99,-5.723 l 0,-15.449 c 3.99,7.148 9.84,13.199 17.6,18.129 7.73,4.921 16.7,7.382 26.87,7.382 16.37,0 30.41,-6.082 42.13,-18.25 11.74,-12.171 17.6,-26.769 17.6,-43.8 l 0,-36.161 c 0,-16.589 -5.92,-31.25 -17.75,-43.96 -11.84,-12.731 -25.51,-19.09 -40.98,-19.09 -9.75,0 -18.69,2.519 -26.88,7.558 -8.18,5.032 -14.16,11.133 -17.93,18.293 l 0,-92.179 c 0,-2 -1.05,-3.883 -3.14,-5.661 -2.11,-1.769 -4.71,-2.671 -7.79,-2.671 -2.89,0 -5.37,0.89 -7.48,2.66 -2.09,1.781 -3.15,3.648 -3.15,5.652" /><path
         id="path36"
         style="fill:#a7a5a6;fill-opacity:1;fill-rule:nonzero;stroke:none"
         d="m 3132.18,541.32 0,88.59 c 0,1.988 1.03,3.871 3.14,5.629 2.09,1.781 4.69,2.66 7.8,2.66 2.65,0 5.09,-0.879 7.3,-2.648 2.21,-1.762 3.32,-3.641 3.32,-5.621 l 0,-88.391 c 0,-11.019 4.08,-20.848 12.27,-29.449 8.18,-8.621 17.93,-12.91 29.2,-12.91 11.28,0 21.01,4.289 29.19,12.91 8.19,8.601 12.29,18.43 12.29,29.449 l 0,88.723 c 0,2.207 1.11,4.078 3.32,5.629 2.21,1.539 4.75,2.308 7.64,2.308 2.87,0 5.35,-0.769 7.46,-2.32 2.09,-1.551 3.14,-3.43 3.14,-5.641 l 0,-88.918 c 0,-16.601 -6.25,-31.148 -18.75,-43.64 -12.5,-12.5 -27.26,-18.75 -44.29,-18.75 -17.25,0 -32.08,6.25 -44.46,18.75 -12.38,12.492 -18.57,27.039 -18.57,43.64" /><path
         id="path38"
         style="fill:#a7a5a6;fill-opacity:1;fill-rule:nonzero;stroke:none"
         d="m 3297.74,529.969 0,174.613 c 0,2.199 1.1,4.078 3.3,5.617 2.23,1.563 4.65,2.332 7.31,2.332 2.87,0 5.43,-0.769 7.64,-2.32 2.2,-1.539 3.32,-3.41 3.32,-5.609 l 0,-66.403 42.79,0 c 2.21,0 4.04,-0.898 5.49,-2.699 1.42,-1.809 2.15,-3.941 2.15,-6.422 0,-2.476 -0.73,-4.617 -2.15,-6.43 -1.45,-1.796 -3.28,-2.687 -5.49,-2.687 l -42.79,0 0,-89.5 c 0,-10.762 2.26,-18.27 6.79,-22.551 4.53,-4.281 12.56,-6.41 24.07,-6.41 l 9.27,0 c 2.89,0 5.26,-0.98 7.15,-2.922 1.88,-1.937 2.81,-4.289 2.81,-7.027 0,-2.75 -0.93,-5.153 -2.81,-7.211 -1.89,-2.059 -4.26,-3.078 -7.15,-3.078 l -9.27,0 c -34.96,0 -52.43,16.226 -52.43,48.707" /><path
         id="path40"
         style="fill:#a7a5a6;fill-opacity:1;fill-rule:nonzero;stroke:none"
         d="m 3407.57,524.719 c 0,-9.278 2.65,-16.207 7.95,-20.739 5.31,-4.531 12.28,-6.789 20.92,-6.789 10.39,0 20.29,3.86 29.68,11.61 9.4,7.738 14.1,15.469 14.1,23.23 l 0,21.231 -13.92,0 c -8.85,0 -16.33,-0.332 -22.4,-1 -6.1,-0.66 -12.11,-1.883 -18.09,-3.653 -5.98,-1.769 -10.51,-4.64 -13.59,-8.621 -3.11,-3.988 -4.65,-9.066 -4.65,-15.269 z m -21.58,-1.989 c 0,17.399 6.58,29.5 19.74,36.282 13.17,6.789 32.37,10.179 57.58,10.179 l 16.91,0 0,7.809 c 0,11.93 -3.2,22.289 -9.6,31.09 -6.43,8.789 -16.27,13.191 -29.54,13.191 -8.86,0 -16.87,-1.582 -24.06,-4.722 -7.19,-3.137 -11.01,-4.719 -11.44,-4.719 -2.66,0 -4.77,1.191 -6.31,3.601 -1.55,2.387 -2.33,5 -2.33,7.829 0,4.199 4.75,8.082 14.28,11.621 9.49,3.539 19.67,5.3 30.53,5.3 20.78,0 35.99,-6.019 45.6,-18.082 9.63,-12.05 14.44,-27.379 14.44,-45.949 l 0,-86.281 c 0,-2.43 -1,-4.469 -2.97,-6.129 -1.99,-1.66 -4.55,-2.488 -7.64,-2.488 -2.89,0 -5.25,0.828 -7.13,2.488 -1.89,1.66 -2.83,3.699 -2.83,6.129 l 0,14.601 c -14.82,-17.031 -31.52,-25.55 -50.1,-25.55 -13.28,0 -24.12,3.699 -32.52,11.121 -8.41,7.41 -12.61,18.301 -12.61,32.679" /><path
         id="path42"
         style="fill:#a7a5a6;fill-opacity:1;fill-rule:nonzero;stroke:none"
         d="m 3541.61,529.969 0,174.613 c 0,2.199 1.11,4.078 3.32,5.617 2.21,1.563 4.65,2.332 7.31,2.332 2.87,0 5.41,-0.769 7.61,-2.32 2.23,-1.539 3.32,-3.41 3.32,-5.609 l 0,-66.403 42.82,0 c 2.2,0 4.02,-0.898 5.47,-2.699 1.44,-1.809 2.16,-3.941 2.16,-6.422 0,-2.476 -0.72,-4.617 -2.16,-6.43 -1.45,-1.796 -3.27,-2.687 -5.47,-2.687 l -42.82,0 0,-89.5 c 0,-10.762 2.27,-18.27 6.82,-22.551 4.53,-4.281 12.54,-6.41 24.04,-6.41 l 9.3,0 c 2.87,0 5.25,-0.98 7.13,-2.922 1.87,-1.937 2.83,-4.289 2.83,-7.027 0,-2.75 -0.96,-5.153 -2.83,-7.211 -1.88,-2.059 -4.26,-3.078 -7.13,-3.078 l -9.3,0 c -34.94,0 -52.42,16.226 -52.42,48.707" /><path
         id="path44"
         style="fill:#a7a5a6;fill-opacity:1;fill-rule:nonzero;stroke:none"
         d="m 3640.83,489.879 0,140.359 c 0,2.211 1,4.09 2.97,5.641 1.99,1.551 4.53,2.32 7.64,2.32 3.1,0 5.7,-0.769 7.79,-2.32 2.11,-1.551 3.16,-3.43 3.16,-5.641 l 0,-140.359 c 0,-2.207 -1.11,-4.199 -3.32,-5.969 -2.2,-1.769 -4.76,-2.648 -7.63,-2.648 -2.88,0 -5.38,0.879 -7.47,2.648 -2.1,1.77 -3.14,3.762 -3.14,5.969 z m 0,198.93 c -2.89,2.761 -4.32,6.019 -4.32,9.781 0,3.762 1.43,6.969 4.32,9.629 2.87,2.652 6.41,3.972 10.61,3.972 3.98,0 7.36,-1.32 10.11,-3.972 2.78,-2.66 4.16,-5.867 4.16,-9.629 0,-3.762 -1.38,-7.02 -4.16,-9.781 -2.75,-2.778 -6.13,-4.149 -10.11,-4.149 -4.2,0 -7.74,1.371 -10.61,4.149" /><path
         id="path46"
         style="fill:#a7a5a6;fill-opacity:1;fill-rule:nonzero;stroke:none"
         d="m 3719.46,542.082 c 0,-11.223 4.05,-21.184 12.11,-29.883 8.07,-8.679 17.76,-13.019 29.05,-13.019 11.48,0 21.32,4.34 29.53,13.019 8.16,8.699 12.26,18.66 12.26,29.883 l 0,35.957 c 0,10.781 -4.14,20.461 -12.44,29.043 -8.3,8.578 -18.09,12.879 -29.35,12.879 -11.29,0 -20.98,-4.301 -29.05,-12.879 -8.06,-8.582 -12.11,-18.262 -12.11,-29.043 l 0,-35.957 z m -21.56,-0.102 0,36.161 c 0,16.82 6.19,31.359 18.57,43.629 12.39,12.289 27.09,18.421 44.15,18.421 17.03,0 31.85,-6.082 44.45,-18.25 12.62,-12.171 18.9,-26.769 18.9,-43.8 l 0,-36.161 c 0,-16.589 -6.34,-31.25 -19.06,-43.96 -12.73,-12.731 -27.5,-19.09 -44.29,-19.09 -16.61,0 -31.2,6.359 -43.81,19.09 -12.6,12.71 -18.91,27.371 -18.91,43.96" /><path
         id="path48"
         style="fill:#a7a5a6;fill-opacity:1;fill-rule:nonzero;stroke:none"
         d="m 3859.48,489.879 0,140.359 c 0,2.434 1,4.371 2.99,5.801 1.99,1.441 4.53,2.16 7.64,2.16 2.65,0 4.98,-0.777 6.95,-2.347 1.99,-1.582 2.99,-3.481 2.99,-5.723 l 0,-15.469 c 3.77,7.16 9.51,13.211 17.26,18.141 7.74,4.918 16.8,7.39 27.21,7.39 15.92,0 29.75,-6.082 41.47,-18.25 11.73,-12.171 17.59,-26.769 17.59,-43.8 l 0,-88.262 c 0,-2.649 -1.11,-4.758 -3.32,-6.301 -2.2,-1.547 -4.76,-2.316 -7.63,-2.316 -2.66,0 -5.08,0.769 -7.31,2.308 -2.2,1.551 -3.3,3.641 -3.3,6.289 l 0,88.051 c 0,10.82 -4.1,20.531 -12.28,29.141 -8.19,8.597 -17.91,12.91 -29.2,12.91 -10.41,0 -19.57,-3.871 -27.54,-11.59 -7.97,-7.73 -11.96,-17.883 -11.96,-30.461 l 0,-88.051 c 0,-2.211 -1.11,-4.187 -3.32,-5.961 -2.2,-1.757 -4.74,-2.636 -7.61,-2.636 -3.11,0 -5.65,0.879 -7.64,2.648 -1.99,1.77 -2.99,3.762 -2.99,5.969" /><path
         id="path50"
         style="fill:#a7a5a6;fill-opacity:1;fill-rule:nonzero;stroke:none"
         d="m 747.781,954.148 c -7.527,-3.988 -16.386,-4.097 -23.98,-4.097 -19.289,0 -34.531,12.933 -39.797,33.773 -5.352,21.176 -1.848,50.596 18.672,63.316 3.965,2.46 18.918,5.56 23.945,5.56 19.961,0 38.215,-20.47 42.461,-36.85 5.43,-20.705 7.102,-46.674 -21.301,-61.702 z m -13.367,113.032 c -5.566,1.68 -20.019,0.87 -29.512,-2.78 -28.957,-11.14 -37.793,-33.11 -39.531,-62.37 -1.062,-17.471 4.734,-38.018 16.145,-50.147 11.328,-12.043 27,-18.684 44.129,-18.684 1.652,0 3.32,0.071 5,0.199 18.906,1.411 30.41,9.192 41.867,20.407 22.246,21.73 15.027,52.395 10.886,64.575 -9.57,27.92 -19.707,40.03 -48.984,48.8" /><path
         id="path52"
         style="fill:#a7a5a6;fill-opacity:1;fill-rule:nonzero;stroke:none"
         d="m 804.551,511.301 c 0.262,-0.039 0.527,-0.082 0.793,-0.121 l -2.336,0.351 1.543,-0.23" /><path
         id="path54"
         style="fill:#a7a5a6;fill-opacity:1;fill-rule:nonzero;stroke:none"
         d="m 810.77,510.371 c 0,0.008 0,0.02 0,0.02 -1.817,0.269 -3.622,0.519 -5.426,0.789 l 5.426,-0.809" /><path
         id="path56"
         style="fill:#a7a5a6;fill-opacity:1;fill-rule:nonzero;stroke:none"
         d="m 889.434,1012.28 c 5.918,-37.186 29.082,-70.999 60.351,-89.358 -2.336,0.098 -4.68,0.148 -7.031,0.148 -57.852,0 -116.961,-30.261 -143.738,-73.601 -20.11,-32.61 -27.871,-83.93 -21.594,-139.809 -16.277,35.61 -47.942,92.852 -91.848,117.371 -6.668,3.739 -14.746,5.617 -24.011,5.617 -15.032,0 -32.161,-5.179 -46.524,-14 -6.941,38.192 -26.348,82.223 -33.469,96.383 -13.75,27.168 -51.941,63.071 -89.351,76.891 32.515,11.568 61.304,24.038 84.168,49.238 27.937,30.81 32.461,63.73 13.742,100.44 13.953,-4.76 27.051,-7.09 39.851,-7.09 8.641,0 15.633,1.08 20.743,1.87 1.32,0.21 2.547,0.41 3.679,0.55 48.938,6.75 79.739,33.63 91.661,79.95 15.253,-41.29 50.89,-80.92 89.296,-98.45 1.496,-0.68 3.071,-1.42 4.739,-2.21 14.023,-6.64 33.23,-15.74 61.804,-15.74 4.68,0 9.477,0.25 14.336,0.75 -22.761,-23.46 -32.261,-54.75 -26.804,-88.95 z m 977.936,623.05 c -17.33,22.91 -36.21,22.57 -63.41,17.22 -32.49,-6.38 -47.84,-12.46 -84.93,-2.55 -11.29,3.02 -22.46,7.69 -33.71,11.99 2.68,6.81 3.87,14.39 4.49,22.79 0.61,8.29 -1.8,16.87 -3.97,24.78 -3.24,11.78 -15.26,20.57 -12.28,34.01 4.25,19.16 13.47,35.48 -13.55,36.6 -2.7,0.11 -2.38,-3.89 0.18,-4.12 22.73,-1.95 -4.34,-30.88 -2.82,-40.72 1.47,-9.44 4.66,-17.33 8.33,-26.14 5.93,-14.22 2.93,-27.3 -2.51,-39.94 -4.62,1.2 -9.25,2.19 -13.96,2.7 -115.41,12.4 -165.36,-85.02 -257.7,-130.18 -33.19,-16.23 -70.56,-25.04 -106.74,-35.96 5.04,6.9 10.13,13.83 15.59,20.29 11.47,13.63 17.09,29.44 19.51,46.76 5.12,36.8 7.39,30.31 34.34,49.12 8.36,5.84 17.1,12.12 19.31,22.95 7.33,35.72 9.99,60.73 37.4,88.12 22.75,22.75 -17.02,73.15 10.19,86.11 0.22,0.11 0.19,0.38 -0.02,0.47 -7.1,3.37 -19.83,2.18 -21.31,-8.1 -1.62,-11.24 -0.47,-19.13 3.25,-29.82 15.32,-44.14 -23.36,-50.45 -41.92,-74.02 -19.09,-24.24 22.14,-52.67 -29.11,-71.26 -0.31,-0.13 -0.56,-0.2 -0.88,-0.31 0.63,3.11 0.58,6.24 -0.7,9.34 -5.82,14.22 -19.67,14.61 -32.75,19 -13.21,4.42 -15.69,33.79 -26.68,43.81 -9.05,8.25 -19.8,8.99 -31.63,9.12 -2.91,0.02 -3.02,-5.04 -0.11,-5.12 13.57,-0.39 20.74,-4.81 28.94,-16.68 7.31,-10.55 7.33,-23.92 14.22,-34.25 5.31,-7.95 12.47,-10.41 21.43,-13.28 15.04,-4.82 9.1,-15.25 2.48,-24.43 -3.08,-2.39 -5.61,-6.32 -8.56,-11.49 -5.42,-9.48 -3.09,-25.52 -3.09,-36.59 -0.03,-26.99 -43.9,-73.66 -71.84,-94.4 -32.94,-19.31 -60.09,-49.36 -85.51,-76.9 -21.89,-23.73 -41.68,-44.33 -58.35,-67.93 -0.37,3.23 -1.03,6.45 -2.11,9.63 -4.27,12.68 -11.13,23.5 -13.81,36.79 -2.02,9.89 -0.43,19.96 -0.39,29.91 0.06,20.3 -9.06,30.97 -29.41,29.19 -2.5,-0.22 -2.54,-4.31 0.02,-4.43 28.77,-1.4 15.68,-38.57 15.8,-56.49 0.07,-9.77 3.24,-18.26 7.1,-26.99 6.98,-15.73 3.72,-29.15 2.43,-45.4 -0.13,-1.69 -5.86,-18.55 -8.86,-26.36 -19.14,-49.62 -31,-105.54 -73.295,-132.79 -23.235,-15.93 -37.156,-23.17 -76.914,-28.02 -6.184,-0.75 -13.848,-0.19 -23.496,2.2 -15.274,3.75 -31.328,10.44 -47.696,19.89 -21.211,12.27 -36.464,33.16 -46.093,47.81 -16.934,25.76 -27.2,47.72 -32.293,69.11 l -0.481,2.01 c -3.984,16.54 -8.105,33.65 9.961,40.8 9.817,3.95 15.945,8.36 21.895,15.73 5.293,6.7 7.519,15.77 9.492,23.79 l 0.195,0.79 c 1.543,6.39 3.223,13.19 5.293,19.97 2.59,8.27 8.899,13.21 16.887,13.21 2.32,0 4.605,-0.42 6.785,-1.26 2.551,-0.98 3.535,-1.11 4.172,-1.11 l 2.195,0.16 0.574,1.71 c 0.715,2.13 -1.171,3.77 -4.285,6.13 -12.343,8.88 -22.375,9.26 -33.933,1.56 -9.375,-6.23 -12.981,-20.72 -16.157,-33.49 -1.148,-4.62 -2.234,-8.99 -3.472,-12.32 -3.449,-9.19 -11.582,-12.53 -20.199,-16.07 -7.184,-2.96 -14.579,-6 -19.52,-12.71 -1.348,3.16 -3.484,7.31 -6.445,12.81 -1.328,2.48 -2.442,4.52 -2.871,5.55 -3.457,8.29 -6.707,16.6 -10.032,25.2 -8.394,21.65 -16.328,42.1 -5.839,63.15 4.535,9.11 10.89,17.27 17.042,25.16 6.172,7.92 12.559,16.11 17.278,25.41 3.113,6.14 6.16,12.83 9.383,19.91 16.035,35.17 34.199,75.02 71.132,75.02 7.383,0 15.391,-1.62 23.809,-4.83 8.77,-3.35 18.027,-5.13 26.777,-5.13 10.86,0 20.801,2.61 29.524,7.73 8.847,5.21 16.875,11.27 24.637,17.13 15.703,11.87 29.257,22.11 44.875,22.11 11.179,0 22.683,-5.47 35.195,-16.72 1.61,-1.44 4.43,-0.86 5.43,1.14 0.59,1.19 0.49,2.57 -0.31,3.64 -6.6,8.82 -24.214,29.32 -45.3,29.32 -6.656,0 -13.074,-2.07 -19.058,-6.14 -7.075,-4.82 -13.918,-10.97 -20.539,-16.93 -15.145,-13.61 -30.809,-27.69 -50.833,-27.69 -7.769,0 -15.691,2.03 -24.199,6.23 -9.761,4.8 -24.383,11.18 -38.593,11.18 -5.477,0 -10.516,-0.97 -15.008,-2.88 -37.598,-16.05 -54.153,-51.18 -70.164,-85.15 l -3.118,-6.61 c -5.128,-10.79 -13.574,-20.98 -21.738,-30.83 -7.527,-9.09 -15.281,-18.42 -20.508,-28.34 -14.367,33.83 -26.086,62.97 -36.086,93.31 -6.062,18.34 -0.625,34.57 5.137,51.76 5.293,15.79 10.766,32.11 6.582,50.16 -4.043,17.62 -9.832,34.39 -15.933,51.43 4.238,9.17 12.656,16.73 21.558,24.72 8.098,7.25 16.457,14.75 21.723,23.8 13.426,23.13 23.301,23.56 47.137,24.59 l 0.82,0.04 c 11.445,0.56 18.348,0.9 26.055,11.16 10.183,13.58 8.996,15.97 8.418,17.12 -0.528,1.06 -1.583,1.69 -2.801,1.69 -1.184,0 -3.371,0 -14.055,-10.08 -3.437,-3.26 -7.832,-4.7 -14.238,-4.7 -3.977,0 -8.133,0.54 -12.547,1.12 -7.356,0.98 -15.305,1.73 -21.164,0.4 -15.918,-3.58 -23.543,-13.6 -30.567,-24.42 -9.824,-15.05 -20.546,-23.86 -32.949,-34.06 -2.168,-1.79 -4.394,-3.62 -6.672,-5.52 -2.793,7.98 -5.261,15.57 -7.515,23.07 -13.852,47 11.797,70.83 41.504,98.45 4.968,4.62 10.027,9.33 14.976,14.22 11.778,11.62 17.871,29.85 16.723,50 -1.223,21.87 -12.512,33.37 -24.465,45.54 -5.227,5.32 -10.625,10.82 -15.32,17.47 l -1.282,1.17 -1.191,0 c -1.105,0 -2.156,-0.57 -2.742,-1.47 l -0.781,-1.74 0.586,-1.25 c 3.503,-7.57 7.886,-14.66 12.125,-21.53 13.253,-21.45 24.699,-39.98 7.824,-66.6 -7.532,-11.81 -18.684,-20.07 -30.489,-28.82 -12.375,-9.15 -25.156,-18.63 -33.3,-32.52 -25.071,-42.75 -9.004,-86.98 6.535,-129.74 5.933,-16.34 12.078,-33.23 15.601,-49.5 3.176,-14.55 -1.961,-29.23 -7.398,-44.79 -1.301,-3.7 -2.629,-7.48 -3.84,-11.3 -8.933,17.88 -27.5,34.04 -47.344,40.65 -12.929,4.31 -25.117,4.98 -38.027,5.69 -9.18,0.51 -18.66,1.02 -29.031,2.9 -14.348,2.61 -42.571,29.46 -47.727,73.65 l -0.969,8.32 -3.75,-7.5 c -5.457,-10.92 -4.773,-27.9 1.868,-46.6 7.656,-21.54 21.281,-39.38 34.707,-45.46 10.129,-4.54 23.593,-7.15 36.945,-7.15 3.727,0 7.352,0.21 10.75,0.62 2.527,0.3 5.09,0.46 7.617,0.46 27.949,0 51.25,-17.83 59.375,-45.41 2.832,-9.67 15.879,-42.38 21.453,-56.34 l 1.992,-5.02 c 4.094,-10.73 8.762,-21.4 13.286,-31.71 2.222,-5.08 4.453,-10.15 6.621,-15.25 5.73,-13.43 11.668,-26.93 17.625,-40.45 -6.289,-3.7 -12.239,-5.5 -18.125,-5.5 -15.215,0 -27.918,12.2 -41.375,25.11 -12.688,12.17 -25.813,24.77 -42.231,28.07 -10.125,2.05 -30.886,-5.81 -48.886,-12.73 -10.973,-4.22 -21.344,-8.2 -26.063,-8.37 -6.797,0 -13.867,6.28 -18.086,10.03 -2.402,2.13 -3.601,3.17 -4.797,3.59 l -4.804,1.71 1.593,-4.84 c 4.485,-13.65 13.992,-19.24 18.567,-21.93 l 0.972,-0.57 c 4.582,-2.81 9.321,-4.18 14.465,-4.18 8.496,0 16.613,3.79 24.453,7.45 3.262,1.51 6.516,3.04 9.766,4.27 19.055,7.25 33.184,6.17 44.746,-3.3 l 5.762,-4.75 c 21.64,-17.88 46.172,-38.14 70.926,-38.14 7.472,0 14.589,1.92 21.203,5.7 2.734,-6.21 5.41,-12.23 8.027,-18.11 17.461,-39.28 32.527,-73.2 45.234,-116.65 0.098,-0.49 0.43,-2.95 0.813,-5.74 0.769,-5.64 1.109,-8.02 1.316,-9.14 -8.41,-36.24 -26.933,-56.45 -60,-65.48 -15.515,-4.2 -34.797,-2.97 -60.566,4.07 -7.234,1.97 -20.117,4.88 -33.75,7.95 -23.567,5.33 -50.281,11.35 -57.52,14.64 -10.031,4.5 -19.16,11.2 -27.16,19.95 -16.812,18.28 -28.035,41.15 -38.887,63.27 l -0.71,1.46 c -17.61,35.95 -38.758,63.23 -64.629,83.38 -2.332,11.34 -7.981,22.02 -15.086,34.72 -8.34,14.95 -6.36,24.73 -3.852,37.13 0.891,4.39 1.809,8.94 2.387,14.14 1.687,14.96 -0.344,25.05 -8.059,40.05 -4.004,7.64 -13,17.43 -21.125,20.58 l -8.687,3.37 5.828,-7.27 c 1.387,-1.73 2.683,-3.25 3.894,-4.68 5.012,-5.88 8.313,-9.78 11.614,-20.17 5.422,-17.16 3.816,-26.18 -3.75,-44.58 -3.34,-8.09 -4.325,-15.42 -3.41,-25.3 0.976,-10.7 5.121,-19.73 9.472,-28.36 -6.363,3.29 -12.781,6.19 -19.441,8.78 -13.606,5.33 -27.942,7.73 -41.809,10.06 -5.547,0.92 -11.094,1.85 -16.609,2.97 -1.524,0.73 -5.215,1.85 -15.32,4.89 -6.583,1.97 -14.766,4.43 -16.106,5.09 -25.625,12.54 -44.785,38.38 -61.687,61.19 -2.727,3.67 -5.422,7.3 -8.098,10.82 -17.246,22.58 -33.457,39.5 -51.027,53.22 -6.141,4.79 -16.09,10.73 -24.5005,13.22 -3.1445,0.91 -9.5312,1.84 -16.2968,2.82 -7.5313,1.09 -18.8985,2.73 -20.6954,3.98 l -1.1406,0.7 -0.8594,0 c -1.1914,0 -2.2968,-0.66 -2.871,-1.71 -0.5782,-1.04 -0.5391,-2.27 0.1523,-3.38 6.2031,-9 15.7227,-11.01 24.9336,-12.95 4.1289,-0.88 8.4101,-1.78 12.3633,-3.32 25.3515,-9.84 43.6245,-37.14 59.7465,-61.23 3.203,-4.79 6.32,-9.43 9.367,-13.75 23.836,-33.85 44.351,-54.63 68.054,-68.84 -7.839,-8.9 -14.992,-19.88 -21.359,-29.64 -6.004,-9.22 -11.187,-17.18 -14.93,-20.2 -11.484,-9.34 -26.75,-14.7 -41.882,-14.7 -13.372,0 -25.649,4.03 -35.5,11.66 -1.082,0.86 -2.227,1.82 -3.411,2.84 -4.707,4 -10.039,8.55 -16.3863,9.4 -12.3828,1.66 -20.1641,-10.49 -26.3555,-20.1 -1.6992,-2.64 -3.3086,-5.14 -4.7187,-6.91 l -1.1211,-1.44 1.6015,-3.17 2.6172,0.05 0.6836,0.53 c 2.0391,1.6 4.1602,3.69 6.4141,5.9 6.4687,6.35 14.1211,13.6 21.7031,11.69 6.1331,-1.51 13.1411,-8.07 19.3241,-13.86 3.086,-2.89 5.996,-5.62 8.75,-7.72 12.461,-9.34 30.781,-12.78 47.442,-9.14 19.191,4.28 36.589,16.54 50.324,35.46 2.769,3.8 5.457,8.42 8.308,13.31 5.371,9.24 11.426,19.66 19.063,25.63 10.703,-4.43 21.738,-7.78 33.699,-10.24 31.699,-6.54 57.68,-12.75 79.406,-27.94 7.676,-5.38 25.469,-23.94 31.375,-30.7 15.293,-17.24 25.871,-39.31 36.106,-60.64 6.289,-13.12 12.804,-26.7 20.332,-38.98 26.648,-43.52 72.18,-52.07 116.23,-60.35 0.305,-0.06 0.598,-0.09 0.891,-0.1 8.523,-21.88 15.625,-41 8.394,-65.61 -5.562,-18.98 -20.769,-35.9 -42.793,-47.65 -27.285,-14.53 -47.871,-22.95 -70.781,-28.95 -22.058,10.5 -37.273,15.85 -58.472,15.91 -19.465,0 -36.309,-14.24 -52.598,-28.024 -11.328,-9.571 -22.024,-18.614 -33.266,-22.969 -21.226,-8.203 -46.883,-6.789 -68.23,3.633 -21.36,10.41 -26.016,27.74 -31.414,47.82 -1.926,7.2 -3.93,14.63 -6.821,22.03 -4.793,12.28 -10.503,25.33 -19.734,37.68 -6.601,8.88 -16.086,13.2 -28.984,13.2 -7.5,0 -15.274,-1.36 -22.801,-2.68 -6.633,-1.18 -12.902,-2.28 -19.008,-2.39 -11.758,0 -19.891,9.56 -28.4921,19.69 -9.5508,11.23 -19.5039,22.94 -34.9922,20.61 -23.2304,-3.46 -42.5898,-22.32 -59.152325,-57.63 -0.527344,-1.08 -0.46875,-2.3 0.140625,-3.27 1.23047,-1.95 4.57813,-2.15 5.99219,-0.32 11.55471,14.56 21.57421,24.83 33.49611,34.31 6.2617,4.97 12.3164,7.49 17.9883,7.49 12.2382,0 21.6328,-11.23 29.9257,-21.13 1.7461,-2.1 3.4258,-4.1 5.0391,-5.88 9.5856,-10.66 24.9886,-12.11 38.7886,-12.13 5.594,0 11.336,0.87 16.883,1.7 l 4.309,0.64 c 2.207,0.31 4.351,0.46 6.363,0.46 24.301,0 30.578,-22.5 36.66,-44.27 l 0.864,-3.08 c 1.211,-4.28 2.058,-8.75 2.886,-13.07 1.594,-8.29 3.215,-16.792 7.453,-23.972 -5.632,1.477 -10.898,2.492 -15.937,3.086 -22.734,2.68 -37.512,-12.344 -51.516,-26.758 -3.894,-4.011 -7.578,-7.8 -11.414,-11.199 -0.383,-0.344 -1.015,-0.859 -1.797,-1.504 -9.843,-8.062 -14.621,-12.851 -13.437,-16.582 0.305,-0.953 1.269,-2.582 4.836,-2.812 9.09,0 27.801,14.203 30.301,16.562 20.539,19.395 47.988,23.391 75.234,11.063 22.473,-10.172 43.27,-17.215 71.785,-18.535 22.668,-1.02 42.055,7.339 57.949,15.57 9.614,4.988 18.008,12.508 26.125,19.773 l 4.61,4.11 c 0.539,0.468 1.062,0.898 1.601,1.301 1.282,-5.704 3.157,-11.34 4.715,-16.036 0.742,-2.234 1.418,-4.257 1.914,-5.968 4.629,-15.84 -1.758,-21.18 -11.414,-29.27 -3.027,-2.527 -6.465,-5.398 -9.765,-8.848 -10.872,-11.332 -11.817,-30.543 -7.188,-42.871 1.57,-4.199 7.41,-10.3 11.563,-12.101 2.773,-1.207 5.773,-1.809 8.898,-1.809 6.824,0 12.605,2.922 14.977,4.668 2.367,1.793 4.433,3.594 3.671,5.863 -0.203,0.618 -0.957,2.059 -3.367,2.059 -1.301,0 -3.008,-0.391 -4.25,-0.672 l -0.652,-0.137 c -6.32,-1.339 -11.082,-0.25 -14.363,3.399 -4.622,5.148 -4.868,13.84 -4.747,14.93 0.985,7.46 13.043,19.539 21.305,25.75 5.473,4.121 12.055,10.07 14.477,19.531 1.343,5.34 -1.164,14.976 -4.074,26.14 -2.352,9.043 -4.786,18.368 -4.739,24.395 3.176,0.848 6.367,1.269 9.707,1.269 9.028,0 17.551,-3.046 26.574,-6.269 7.415,-2.648 15.071,-5.391 23.282,-6.445 35.515,-4.532 72.508,-30.282 94.226,-65.61 9.953,-16.152 42.004,-71.902 38.774,-114.152 -5.063,-6.457 -17.883,-27.82 -20.742,-36.938 -2.54,-7.953 -4.211,-15.031 -5.832,-21.871 -4.415,-18.711 -7.911,-33.5 -26.418,-49.789 -51.524,-45.359 -83.497,-88.992 -97.743,-133.402 -0.879,-2.75 -1.738,-5.52 -2.605,-8.301 -6.086,-19.598 -12.387,-39.859 -27.442,-54.539 -4.718,-4.598 -12.16,-10.078 -20.839,-10.078 -2.27,0 -4.551,0.379 -6.797,1.121 -7.91,2.578 -12.871,8.527 -18.125,14.84 -2.297,2.75 -4.68,5.598 -7.356,8.226 -7.195,7.032 -16.941,9.793 -26.379,12.454 -8.699,2.449 -17.714,5 -24.429,10.937 -4.922,4.332 -6.887,10.231 -8.957,16.481 -2.727,8.199 -5.535,16.679 -15.41,21.109 -2.625,1.172 -5.594,1.769 -8.836,1.769 -11.664,0 -24.993,-7.718 -33.813,-12.828 l -2.574,-1.468 c -1.496,-0.883 -2.207,-2.571 -1.77,-4.192 0.457,-1.68 1.993,-2.859 4.192,-2.859 l 0.078,0 c 2.691,0.328 6.133,1.281 10.113,2.371 6.32,1.738 13.496,3.707 19.492,3.707 7.727,0 9.809,-3.391 10.715,-5.938 1.121,-3.211 1.934,-6.472 2.703,-9.632 1.242,-5.028 2.532,-10.239 5.157,-15.43 7.257,-14.328 24.691,-20.348 38.695,-25.18 l 1.687,-0.578 c 11.653,-4.019 16.875,-10.492 22.911,-17.992 1.707,-2.117 3.457,-4.289 5.402,-6.481 -6.418,-0.578 -12.934,-0.968 -19.27,-1.347 -9.297,-0.539 -18.086,-1.063 -26.257,-2.172 -22.766,-3.231 -41.223,-11.07 -54.836,-23.297 -6.043,-5.391 -10.911,-11.801 -15.301,-20.172 -2.981,-5.64 -5.012,-10.781 -6.035,-15.269 -0.278,-1.2 -1.399,-14.512 1.265,-17.852 0.657,-0.809 1.555,-1.269 2.539,-1.269 2.473,0 4.114,2.359 6.504,9.308 14.692,42.813 56.75,46.031 101.281,49.434 14.083,1.066 28.641,2.168 42.454,4.597 33.242,5.813 55.718,26.942 70.757,66.5 13.965,36.563 29.614,65.27 50.571,92.762 2.008,-1.18 4.187,-2.043 6.511,-2.582 1.915,-0.418 3.692,-0.758 5.352,-1.078 10.188,-1.949 14.402,-2.762 18.008,-16.371 1.472,-5.578 2.082,-11.18 2.722,-17.11 0.715,-6.589 1.458,-13.41 3.5,-20.179 5.418,-17.879 17.176,-32.11 36.961,-44.77 l 0.965,-0.531 0.754,0 c 1.199,0 2.278,0.691 2.813,1.809 0.547,1.152 0.398,2.48 -0.481,3.57 -13.57,15.223 -22.117,31.91 -26.902,52.531 -1.262,5.449 -1.438,11.211 -1.61,17.301 -0.351,11.719 -0.714,23.84 -9.386,33.488 -3.75,4.231 -8.672,6.34 -13.426,8.403 -3.566,1.539 -6.965,3 -9.641,5.25 4.688,6.859 11.231,13.226 17.571,19.386 1.746,1.711 3.472,3.383 5.132,5.051 3.208,3.231 6.743,6.43 10.344,9.68 10.696,9.679 21.739,19.672 27.364,32.722 3.847,8.918 5.644,19.629 7.546,30.969 2.942,17.559 6.282,37.461 18.039,53.469 13.262,12.742 27.969,19.473 42.547,19.473 15.285,0 30.227,-7.153 44.399,-21.243 38.562,-38.371 57.832,-88.019 68.355,-156.25 0.813,-5.269 1.953,-10.621 3.274,-16.019 -0.188,-0.102 -0.364,-0.262 -0.547,-0.36 11.758,-49.32 31.726,-107.07 54.804,-151.839 -30.703,-11.911 -51.417,-61.2 -95.957,-29.84 -28.449,20.019 -60.378,27.871 -87.429,2.609 -5.031,-4.699 2.39,-12.84 7.078,-7.922 25.613,26.953 56.094,9.832 77.18,-11.429 9.128,-9.227 26.57,-9.719 38.718,-10.27 30.567,-1.359 47.364,28.891 71.946,35.539 36.129,-63.359 84.937,-120.578 148.433,-168.43 43.531,-32.808 92.831,-59.707 144.841,-76.757 -8.2,-16.84 0.97,-48.621 8.87,-71.129 5.69,-16.231 14.87,-43.2229 -11.66,-46.762 -15.17,-2.0117 -26.54,-4.1797 -38.89,-13.3984 -18.26,-13.6328 8.29,-46.3008 9.65,-60.99222 0.55,-5.66797 8.69,-5.28907 9.66,-0.05079 3.64,19.80081 -25.01,53.26951 12.61,59.05081 12.65,1.9609 30.08,0.3125 37.35,13.6094 8.91,16.3007 7.86,29.7502 3.7,47.3402 -2.57,10.89 -22.99,56.011 6.83,58.25 8.68,0.66 93.55,-8.719 137.85,-0.918 59.46,10.449 105.6,52.488 154.42,84.25 87.29,56.8 206.28,1.64 228.78,-96.782 0.15,-0.699 1.32,-0.859 1.5,-0.05 12.7,67.492 -73.28,136.472 -135.84,139.203 -55.41,2.41 -95.09,-14.742 -140.41,-45.41 -0.31,-0.223 -0.65,-0.422 -0.98,-0.641 -6.93,21.109 -15.23,36.187 -11.02,62.519 3.42,21.25 7.67,36.918 23.79,52.418 5.1,4.903 11.51,11.293 14.75,17.731 16.09,31.891 6.45,55.973 -19.89,78.133 -2.48,2.097 -5.95,-1.481 -3.49,-3.703 54.36,-48.75 -18.33,-81.231 -32.09,-126.95 -10.64,-35.39 -10.03,-62.437 9.87,-91.668 -69.84,-42.32 -137.89,-55.5 -221.51,-32.953 -58.57,15.774 -113.25,45.192 -161.75,83.203 31.95,4.231 64.96,11.348 88.26,33.321 17.51,16.5 18.12,33.269 10.48,54.16 -6.79,18.566 -45.43,47.308 2.19,62.707 16.49,5.34 37.62,-2.27 54.08,-4.859 1.03,-0.129 1.28,1.46 0.34,1.75 -17.45,5.089 -48.05,20.14 -66.29,9.421 -18.16,-10.652 -27.89,-22.25 -21.59,-43.671 5.71,-19.379 26.22,-33.95 7.63,-56.18 -9.06,-10.86 -23.45,-16.059 -36.51,-20.121 -22.22,-6.879 -45.88,-8.719 -68.976,-10.797 -50.867,46.168 -93.543,101.598 -124.563,159.68 -23.289,43.628 -40.742,88.949 -54.207,159.539 -0.398,3.269 -0.839,6.597 -1.152,9.718 -0.879,8.7 -1.848,17.231 -2.805,25.621 -4.968,43.77 -9.668,85.122 2.375,130.981 15.594,59.508 73.008,91.269 170.618,94.398 4.597,0.141 10.054,0.621 15.835,1.121 6.45,0.551 13.115,1.141 18.315,1.192 l 2.69,0.008 c 18.39,0 33,-2.16 45.97,-6.821 8.31,-2.961 24.89,-11.871 32.39,-18.039 19.7,-16.25 28.39,-28.281 34.47,-47.648 4.89,-15.711 8.47,-20.274 20.49,-31.481 9.87,-9.293 20.03,-14.511 29.88,-19.55 14.57,-7.469 27.15,-13.911 35.07,-31.981 0.91,-2.09 1.8,-4.301 2.64,-6.398 3.29,-8.184 4.65,-11.571 7.5,-11.571 l 1.39,0.168 0.73,0.731 c 1.11,1.121 1.71,3.109 1.67,10.351 -0.16,29.539 -20.62,43.289 -40.42,56.59 -7.85,5.278 -15.97,10.739 -22.93,17.168 -9.5,8.832 -14.38,21.321 -19.1,33.403 -2.41,6.16 -4.88,12.468 -7.96,18.238 12.25,-4.192 26.04,-8.539 39.96,-11.621 20.2,-4.508 42.59,-6.117 63.14,-4.547 11.22,0.879 22.69,3.109 33.79,5.269 14.19,2.77 28.88,5.629 43.07,5.629 6.75,0 12.89,-0.629 18.77,-1.91 23.66,-5.191 55.66,-22.73 81.38,-36.82 16.52,-9.051 30.8,-16.879 39.64,-19.731 6.95,-2.238 14.29,-3.339 22.45,-3.339 15.57,0 31.48,4.082 46.87,8.019 15.08,3.859 29.32,7.5 42.94,7.5 18.04,0 31.83,-6.66 43.32,-20.898 1.46,-1.922 4.75,-1.61 5.93,0.48 0.63,1.09 0.63,2.399 -0.01,3.5 -11.23,19.527 -27.38,28.629 -50.84,28.629 -13.8,0 -28.57,-3.129 -43.27,-6.238 -9.23,-1.953 -18.37,-2.942 -27.19,-2.953 -32.58,0 -58.6,12.91 -88.52,30.152 3.42,1.43 7.52,2.109 12.54,2.109 3.97,0 8.18,-0.41 12.25,-0.808 4.11,-0.403 8.37,-0.821 12.42,-0.821 7.89,0 13.72,1.637 18.38,5.149 8.87,6.73 11.99,12.051 15.64,21.441 10.9,27.77 19.42,37.75 49.62,35.231 0.42,-0.043 1.09,-0.063 1.86,-0.063 3.67,0 7.12,0.383 7.58,3.133 0.48,2.938 -3.09,4.387 -7.45,5.867 -30.53,10.391 -52.19,-0.34 -63.52,-31.097 -5.45,-14.731 -22.27,-15.383 -40.08,-16.051 -15.49,-0.59 -31.49,-1.192 -42.19,-10.821 -8.91,5.071 -20.39,11.36 -32.76,16.801 -16.83,7.457 -35.35,9.188 -60.49,5.41 -24.8,-3.75 -44,-5.461 -62.01,-5.57 14.83,14.617 26.5,34.27 31.88,49.199 3.76,10.45 2.73,20.895 1.66,31.668 -2.89,28.934 16.33,35.692 31.42,52.862 7.64,8.67 8.84,21.45 9.46,32.28 1.21,21.1 3.3,33.47 22.98,46.47 2.68,1.78 -0.2,5.39 -2.83,4.45 -10.93,-3.92 -23.79,-7.87 -28.09,-20.1 -3.24,-9.22 -2.6,-20.38 -3.16,-29.96 -1.52,-25.88 -25.25,-35.69 -41.27,-49.9 -13.86,-12.324 -12.73,-31.485 -12.13,-48.152 1.16,-31.586 -37.97,-63.708 -66.66,-59.278 -3.15,0.488 -5.74,-0.289 -7.72,-1.801 -17.93,4.59 -35.56,11.243 -52.63,17.789 -24.22,9.274 -49.26,18.872 -75.65,22.543 -14.83,2.047 -28.28,1.957 -41.146,-0.3 -3.328,-0.59 -8.836,0.629 -13.062,1.55 -1.113,0.239 -2.129,0.45 -3.051,0.629 -11.617,2.032 -25.281,10.078 -36.543,21.516 -11.465,11.582 -20.242,26.266 -26.082,43.641 -11.387,34.303 -4.91,70.673 16.914,94.903 6.067,6.73 14.207,12.23 22.949,15.5 3.133,1.18 27.024,10.58 53.641,24.3 3.24,-0.2 6.23,-0.36 7.68,-0.33 7.26,0.14 14.7,2.12 21.59,4.3 12.52,3.95 16.28,-5.88 27.57,-6.81 18.29,-1.48 32.89,1 46.72,13.81 14.69,13.61 6.58,37.93 35.07,40.17 3.47,0.28 4.33,5.91 0.84,6.91 -7.57,2.16 -17.7,6.72 -25.15,1.66 -19.54,-13.27 -11.86,-42.34 -45.31,-42.4 -15.65,-0.04 -24.07,15.27 -40.34,10.56 -2.12,-0.62 -4.06,-1.11 -6,-1.6 14.64,22.31 25.12,49.97 35.07,77.71 15.56,43.39 38.17,84.85 66.6,121.68 2.17,2.71 6.63,5.08 13.61,11.77 4.63,4.45 34.85,10.7 42.35,13.79 36.46,15.07 37.08,-2.9 61.96,-11.81 13.52,-4.86 31.23,9.66 40.83,16.16 26.7,18.07 32.19,-13.16 52.04,-8.82 1.27,0.28 1.37,2.28 0.05,2.57 -10.58,2.3 -22.74,15.95 -33.75,20.53 -14.83,6.17 -57.39,-20.39 -64.95,-3.97 -9.1,19.7 -39.15,14.78 -65.48,7.76 38.49,33.92 85.56,65.14 123.16,78.36 37.93,13.34 81.33,23.91 117.41,42.6 42.83,22.19 108.32,88 116.3,93.79 41.91,30.41 81.16,31.06 123.12,23.1 11.19,-2.9 39.35,-9.1 54.96,-13.07 19.42,-4.95 34.64,-6.6 54.34,-5.53 31.35,1.7 60.17,25.19 91.94,2.68 4.6,-3.26 10.32,2.55 6.89,7.08" /><path
         id="path58"
         style="fill:#ffffff;fill-opacity:1;fill-rule:nonzero;stroke:none"
         d="m 2236.99,1503.95 c 7.54,0 13.82,3.18 18.62,9.44 4.72,6.2 7.12,13.83 7.12,22.68 0,7.52 -2.4,14.48 -7.12,20.66 -4.82,6.29 -11.08,9.47 -18.62,9.47 l -157.67,0 c -8.08,0 -15.26,-2.4 -21.33,-7.14 -6.17,-4.79 -9.3,-11.06 -9.3,-18.62 l 0,-724.659 c 0,-7.562 3.13,-13.832 9.3,-18.64 6.07,-4.719 13.25,-7.11 21.33,-7.11 l 157.67,0 c 7.54,0 13.8,3.168 18.62,9.43 4.72,6.199 7.12,13.5 7.12,21.68 0,8.191 -2.4,15.48 -7.12,21.668 -4.8,6.269 -11.08,9.441 -18.62,9.441 l -121.17,0 0,651.7 121.17,0" /><path
         id="path60"
         style="fill:#ffffff;fill-opacity:1;fill-rule:nonzero;stroke:none"
         d="m 2981.32,1559.08 c -6.43,4.72 -13.76,7.12 -21.81,7.12 l -157.67,0 c -7.57,0 -13.69,-3.2 -18.16,-9.5 -4.37,-6.15 -6.59,-13.09 -6.59,-20.63 0,-8.89 2.38,-16.53 7.09,-22.68 4.79,-6.26 10.74,-9.44 17.66,-9.44 l 122.13,0 0,-651.7 -122.13,0 c -6.92,0 -12.87,-3.172 -17.66,-9.441 -4.71,-6.137 -7.09,-13.438 -7.09,-21.668 0,-8.2 2.22,-15.493 6.59,-21.641 4.47,-6.281 10.59,-9.469 18.16,-9.469 l 157.67,0 c 8.05,0 15.38,2.379 21.81,7.09 6.49,4.809 9.79,11.098 9.79,18.66 l 0,724.659 c 0,7.58 -3.3,13.86 -9.79,18.64" /><path
         id="path62"
         style="fill:#a2aacf;fill-opacity:1;fill-rule:nonzero;stroke:none"
         d="m 2307.51,832.75 179.82,460.91 c -14.72,60.14 -36.58,110.55 -65.64,151.25 -29.04,40.7 -60.51,61.05 -94.32,61.05 -14.72,0 -22.09,11.4 -22.09,34.22 0,22.05 11.04,33.09 33.11,33.09 16.91,0 33.48,-3.51 49.67,-10.48 16.17,-7 29.96,-14.53 41.36,-22.62 11.41,-8.1 23.34,-21.35 35.86,-39.73 l 28.69,-44.14 c 7.37,-11.05 16.37,-29.08 27.06,-54.07 10.64,-25.05 17.81,-42.34 21.5,-51.87 l 19.84,-54.09 171.04,-463.52 c 1.46,-1.461 2.22,-4.398 2.22,-8.801 0,-9.539 -4.96,-17.777 -14.9,-24.738 -9.92,-6.992 -19.69,-10.461 -29.24,-10.461 -11.77,0 -19.86,5.141 -24.29,15.398 L 2524.85,1208.95 2373.7,804.148 c -2.95,-10.257 -11.41,-15.398 -25.37,-15.398 -10.31,0 -20.23,3.469 -29.8,10.461 -9.56,6.961 -14.34,14.84 -14.34,23.629 0,2.941 1.09,6.262 3.32,9.91" /><path
         id="path64"
         style="fill:#ffffff;fill-opacity:1;fill-rule:nonzero;stroke:none"
         d="m 3170.12,928.121 c 0,-29.781 8.49,-51.949 25.52,-66.48 17.04,-14.551 39.36,-21.821 67.04,-21.821 33.32,0 65.05,12.399 95.21,37.231 30.14,24.82 45.22,49.648 45.22,74.492 l 0,68.087 -44.69,0 c -28.38,0 -52.31,-1.08 -71.82,-3.21 -19.51,-2.12 -38.83,-6.03 -57.97,-11.7 -19.16,-5.677 -33.71,-14.88 -43.63,-27.654 -9.94,-12.769 -14.88,-29.097 -14.88,-48.945 z m -69.16,-6.383 c 0,55.817 21.09,94.582 63.3,116.352 42.19,21.73 103.73,32.59 184.59,32.59 l 54.26,0 0,25.06 c 0,38.26 -10.3,71.5 -30.86,99.7 -20.57,28.19 -52.13,42.29 -94.69,42.29 -28.38,0 -54.08,-5.06 -77.13,-15.16 -23.05,-10.07 -35.29,-15.11 -36.7,-15.11 -8.52,0 -15.27,3.83 -20.21,11.51 -4.98,7.69 -7.45,16.07 -7.45,25.14 0,13.46 15.24,25.89 45.75,37.23 30.48,11.34 63.12,17.03 97.87,17.03 66.66,0 115.45,-19.33 146.29,-57.98 30.86,-38.68 46.29,-87.78 46.29,-147.37 l 0,-276.598 c 0,-7.813 -3.21,-14.371 -9.57,-19.684 -6.39,-5.34 -14.56,-7.988 -24.48,-7.988 -9.24,0 -16.85,2.648 -22.87,7.988 -6.03,5.313 -9.04,11.871 -9.04,19.684 l 0,46.797 c -47.54,-54.61 -101.08,-81.91 -160.67,-81.91 -42.55,0 -77.3,11.871 -104.25,35.64 -26.98,23.75 -40.43,58.672 -40.43,104.789" /><path
         id="path66"
         style="fill:#ffffff;fill-opacity:1;fill-rule:nonzero;stroke:none"
         d="m 3671.21,950.949 c 0,-19.058 13.3,-41.258 39.88,-66.66 26.61,-25.41 56.94,-38.078 90.98,-38.078 35.45,0 66.31,14.098 92.56,42.32 26.23,28.207 39.35,59.957 39.35,95.235 l 0,115.314 c 0,34.57 -13.12,65.6 -39.35,93.12 -26.25,27.51 -57.46,41.27 -93.63,41.27 -34.05,0 -64.2,-12.35 -90.43,-37.04 -26.25,-24.7 -39.36,-57.16 -39.36,-97.35 l 0,-148.131 z m -69.16,-134.57 0,757.581 c 0,7.07 3.18,13.1 9.57,18.05 6.39,4.96 14.53,7.44 24.47,7.44 9.93,0 18.27,-2.48 25,-7.44 6.74,-4.97 10.12,-11.01 10.12,-18.09 l 0,-357.38 c 12.75,23.67 31.39,43.24 55.86,58.67 24.45,15.43 53.01,23.16 85.64,23.16 52.49,0 97.35,-19.53 134.58,-58.52 37.24,-39.01 55.85,-85.83 55.85,-140.44 l 0,-115.957 c 0,-53.203 -18.98,-100.191 -56.91,-140.973 -37.95,-40.8 -81.76,-61.171 -131.39,-61.171 -31.93,0 -61.36,8.062 -88.32,24.211 -26.95,16.14 -46.11,35.691 -57.44,58.679 l 0,-47.429 c 0,-7.18 -3.2,-13.649 -9.57,-19.411 -6.38,-5.738 -14.2,-8.609 -23.42,-8.609 -9.21,0 -17.2,2.828 -23.92,8.488 -6.76,5.672 -10.12,12.051 -10.12,19.141" /><path
         id="path68"
         style="fill:#ffffff;fill-opacity:1;fill-rule:nonzero;stroke:none"
         d="m 1558.42,1164.31 153.2,0 c 48.22,0 85.47,13.47 111.72,40.43 26.23,26.96 39.36,67.73 39.36,122.35 l 0,12.77 c 0,107.81 -50.38,161.72 -151.08,161.72 l -153.2,0 0,-337.27 z m -70.22,-347.888 0,724.508 c 0,15.61 9.93,24.12 29.79,25.55 l 195.76,0 c 66.66,0 119.86,-18.09 159.59,-54.27 39.71,-36.17 59.57,-93.27 59.57,-171.28 l 0,-10.64 c 0,-78.04 -20.04,-135.3 -60.12,-171.83 -40.08,-36.53 -93.79,-54.79 -161.17,-54.79 l -153.2,0 0,-287.248 c 0,-8.512 -3.56,-15.274 -10.65,-20.211 -7.09,-4.981 -15.25,-7.461 -24.47,-7.461 -9.94,0 -18.26,2.48 -25,7.461 -6.74,4.937 -10.1,11.699 -10.1,20.211" /></g></g></svg>