<?xml version="1.0" encoding="UTF-8" standalone="no"?>
<!-- Created with Inkscape (http://www.inkscape.org/) -->

<svg
   xmlns:dc="http://purl.org/dc/elements/1.1/"
   xmlns:cc="http://creativecommons.org/ns#"
   xmlns:rdf="http://www.w3.org/1999/02/22-rdf-syntax-ns#"
   xmlns:svg="http://www.w3.org/2000/svg"
   xmlns="http://www.w3.org/2000/svg"
   xmlns:sodipodi="http://sodipodi.sourceforge.net/DTD/sodipodi-0.dtd"
   xmlns:inkscape="http://www.inkscape.org/namespaces/inkscape"
   width="600"
   height="176.29393"
   id="svg4193"
   version="1.1"
   inkscape:version="0.48.5 r10040"
   sodipodi:docname="plab_logotype_txt_as_path.svg">
  <defs
     id="defs4195" />
  <sodipodi:namedview
     id="base"
     pagecolor="#ffffff"
     bordercolor="#666666"
     borderopacity="1.0"
     inkscape:pageopacity="0.0"
     inkscape:pageshadow="2"
     inkscape:zoom="2.8"
     inkscape:cx="90.274349"
     inkscape:cy="130.00203"
     inkscape:document-units="px"
     inkscape:current-layer="g4115"
     showgrid="false"
     fit-margin-top="0"
     fit-margin-left="0"
     fit-margin-right="0"
     fit-margin-bottom="0"
     inkscape:window-width="1865"
     inkscape:window-height="1056"
     inkscape:window-x="55"
     inkscape:window-y="24"
     inkscape:window-maximized="1" />
  <metadata
     id="metadata4198">
    <rdf:RDF>
      <cc:Work
         rdf:about="">
        <dc:format>image/svg+xml</dc:format>
        <dc:type
           rdf:resource="http://purl.org/dc/dcmitype/StillImage" />
        <dc:title></dc:title>
      </cc:Work>
    </rdf:RDF>
  </metadata>
  <g
     inkscape:label="Layer 1"
     inkscape:groupmode="layer"
     id="layer1"
     transform="translate(455.27436,-486.0703)">
    <g
       transform="matrix(0.43148434,0,0,0.43148434,-119.05652,122.74592)"
       id="g4115">
      <g
         style="stroke:#000000;stroke-width:44.54929733;stroke-miterlimit:4;stroke-opacity:1;stroke-dasharray:none"
         transform="matrix(0.07213866,-0.08524467,0.08985855,0.06843462,-414.70177,1193.1169)"
         id="g4117"
         inkscape:label="Layer 1">
        <path
           sodipodi:nodetypes="csssscssssscsssszssscssszsssscsssszssscssszszzczzscsszssssssssssssssssssssszsss"
           id="path4119"
           d="m 414.47452,415.83979 c -20.86466,10.69021 -17.83785,5.49502 -38.09717,23.81751 -17.32824,15.67163 -24.89995,19.44818 -27.24413,54.16428 -1.38531,20.51562 16.00197,19.92932 35.77573,36.37364 17.5559,14.5999 26.19551,26.40515 40.08875,44.77505 13.89324,18.3699 49.85432,33.98365 51.02107,36.64737 -3.44558,-3.14176 -35.96082,-11.89294 -48.60132,-27.95587 -9.65443,-12.26838 -23.08787,-23.82375 -27.70792,-29.34151 -7.30757,-8.7275 -36.62476,-35.14128 -51.43617,-31.11779 -9.5249,2.58743 -13.66236,22.5323 -18.93207,31.47928 -6.67535,11.33349 -22.45801,34.21949 -38.51313,53.03195 -16.05511,18.81246 -12.97435,52.34357 -12.1136,51.07976 0.20235,1.05227 -2.87129,-34.17246 12.0443,-54.99456 14.91558,-20.82211 31.26957,-42.22434 35.02746,-54.86895 7.01424,-23.6016 10.84897,-34.58487 12.63349,-57.35683 1.73028,-22.07979 3.58329,-27.25563 0.94934,-36.15437 -6.96268,-23.52324 -6.83798,-31.35998 -25.28561,-42.9918 -19.02403,-11.99526 -39.0488,-14.51073 -63.66111,-4.72089 -30.47811,12.12303 -45.02463,26.76332 -60.02604,40.84558 -7.37918,6.92705 -44.25347,46.38368 -49.95028,50.26595 -20.91344,14.25211 -83.208574,50.3993 -83.208574,50.3993 0,0 68.531944,-43.76375 82.209884,-56.49228 9.89128,-9.20471 25.41041,-27.23459 31.34204,-35.262 5.93163,-8.02741 42.01889,-48.46241 68.8532,-66.7344 16.67703,-11.35571 31.61345,-34.36077 29.46287,-48.5409 -2.15058,-14.18013 -19.99793,-44.06875 -31.83764,-52.38584 -14.77641,-10.38004 -26.68585,-37.59684 -38.67747,-41.90625 -20.00847,-7.1904 -40.1214,16.6303 -64.87512,10.66776 -24.75371,-5.96254 -37.062751,-11.3203 -55.715901,-10.34111 -20.485394,1.07537 -55.829464,21.3754 -55.829464,21.3754 0,0 43.589313,-23.83012 57.068409,-25.43014 12.505754,-1.48448 44.929876,5.10457 54.191606,9.27347 13.55825,6.10287 49.91348,-21.22765 67.49272,-18.40482 21.58519,3.46609 20.32236,17.06918 45.1402,30.84634 18.83818,10.45766 44.00838,13.34119 58.56938,0.77114 14.561,-12.57005 16.27216,-27.94889 15.5657,-44.96333 C 319.35188,200.8771 315.28898,175.3943 304.9383,156.91749 298.0549,144.63007 291.11929,131.77715 290.78672,117.80761 290.32526,98.860027 279.598,53.708716 279.598,53.708716 c 0,0 12.29571,47.936934 13.44048,59.846804 2.54904,26.51949 18.05378,37.3678 22.42147,47.45489 10.16056,23.46561 7.62778,38.49952 17.45703,55.25657 8.20576,13.98929 15.85094,25.75639 37.03864,27.27207 21.1877,1.51567 38.75141,-8.92642 52.00622,-21.01343 16.97367,-15.47822 40.57278,-48.83383 48.63899,-58.51006 8.24199,-9.8871 27.25788,-36.16028 41.63623,-60.99417 14.75453,-25.483605 49.37476,-57.820964 49.37476,-57.820964 0.0172,-0.04478 -34.0747,36.809036 -47.05732,58.957234 -13.09264,22.33589 -17.9941,31.2941 -37.54398,58.77736 -19.54989,27.48326 -32.56714,45.73299 -38.43028,67.85604 -4.41393,16.65483 -3.88986,36.80436 0.87191,47.68954 7.24508,16.92275 34.34116,42.09908 46.42303,49.4559 53.02587,32.28825 101.51034,28.26956 151.92011,28.26987 55.59061,3.4e-4 185.48119,10.23275 300.53092,13.6942 115.08829,3.46261 212.34919,3.44239 542.50619,26.93746 19.4541,1.38441 39.3246,-68.90066 73.6214,-101.62548 17.1484,-16.36241 35.5397,-18.44492 58.1658,-30.28351 11.3131,-5.9193 21.5283,-19.82285 29.4795,-33.00857 3.9756,-6.59284 14.6533,-23.97808 23.9459,-38.48492 11.5151,-17.97651 1.8247,-16.88995 7.2682,-25.19399 3.7041,-5.65068 20.4222,7.59233 17.4892,12.42721 -5.1901,8.55562 -11.6836,-1.63955 -22.6903,14.84858 -9.4935,14.22127 -20.1041,30.29728 -23.7913,37.14452 -7.3744,13.69445 -17.4194,28.5255 -29.6959,36.26231 -24.5529,15.47361 -40.7798,14.89305 -55.0267,30.99381 -28.4937,32.20151 -43.5651,71.7053 -38.7619,84.32617 5.4005,14.19047 89.216,10.3945 126.0117,10.78299 29.2019,0.30831 96.2642,11.73547 159.2409,7.72766 31.4884,-2.0039 42.7735,1.52835 78.3954,5.1639 39.3279,3.98233 90.1578,-1.62667 101.5409,1.65641 5.1347,1.48096 0.5803,17.58503 -4.434,16.54448 -11.3565,-2.35668 -11.026,-9.17124 -39.396,-10.42033 -33.8856,-1.52506 -91.1173,-5.91292 -119.1874,-5.37432 -35.0498,0.67253 -224.2751,0.49484 -301.3183,1.65979 -31.0082,0.46887 -382.5664,-19.56396 -422.8557,-19.90197 -40.2893,-0.33801 -250.01969,-3.2356 -299.04991,-4.7432 -49.00782,-1.5069 -122.72113,-12.70096 -165.82711,-9.08207 -43.71015,3.6696 -94.20576,0.30182 -140.66862,9.91938 -46.02282,9.52648 -67.47665,21.85429 -78.81364,27.66291 z"
           style="fill:none;stroke:#ffffff;stroke-width:44.54929733000000169;stroke-linecap:round;stroke-linejoin:round;stroke-miterlimit:4;stroke-opacity:1;stroke-dasharray:none;stroke-dashoffset:2.98349976999999988"
           inkscape:connector-curvature="0" />
        <path
           sodipodi:nodetypes="csssscsssssss"
           id="path4121"
           d="m 511.62898,90.195542 c -2.27087,-0.516615 -4.36687,-5.016 -4.91037,-9.559055 -0.67198,-5.617076 -17.76071,-19.519717 -29.44428,-30.78581 -5.84179,-5.633049 -13.41298,-10.298889 -18.90758,-16.021021 -2.74729,-2.861063 -17.76029,-15.074223 -20.68793,-18.562334 -2.92763,-3.48811 -28.27359,-24.7450674 -28.27359,-24.7450674 0,0 36.24587,28.8724554 39.59642,32.2198914 3.35056,3.347436 11.69824,10.128298 14.43493,12.77153 5.47337,5.286465 4.83037,3.572541 11.17175,8.842386 12.68276,10.539695 35.43502,27.757739 39.97715,27.36112 4.755,-0.415208 9.71426,0.659037 10.40092,2.247454 1.14244,2.642756 -0.84523,7.007984 -3.79435,10.558773 -2.94912,3.55079 -6.8597,6.28714 -9.56307,5.672133 z"
           style="fill:none;stroke:#ffffff;stroke-width:44.54929733000000169;stroke-linecap:round;stroke-linejoin:round;stroke-miterlimit:4;stroke-opacity:1;stroke-dasharray:none;stroke-dashoffset:2.98349976999999988"
           inkscape:connector-curvature="0" />
        <path
           sodipodi:nodetypes="csssscsssssss"
           id="path4123"
           d="m 74.412534,236.34966 c -1.146533,-2.02713 0.769992,-6.60582 3.763852,-10.06583 3.701639,-4.27796 12.064888,-36.07645 12.531884,-52.30027 0.2335,-8.11193 3.59786,-20.33712 1.299059,-24.76685 -1.827048,-3.52068 -13.22394,-19.57784 -12.615087,-24.09086 0.608872,-4.513 -0.07868,-31.4662 -0.07868,-31.4662 0,0 3.046272,24.67372 2.826124,29.40478 -0.220149,4.73109 11.214818,19.80727 12.688433,24.06431 2.33238,6.73789 -0.91537,20.13639 -0.54399,28.37329 0.742791,16.47379 -7.567031,47.50367 -4.216279,50.5957 3.507781,3.23695 6.051575,7.62757 5.339105,9.20456 -1.185362,2.62378 -5.751522,4.09223 -10.362556,4.30141 -4.611024,0.2092 -9.266963,-0.84085 -10.631863,-3.25404 z"
           style="fill:none;stroke:#ffffff;stroke-width:44.54929733000000169;stroke-linecap:round;stroke-linejoin:round;stroke-miterlimit:4;stroke-opacity:1;stroke-dasharray:none;stroke-dashoffset:2.98349976999999988"
           inkscape:connector-curvature="0" />
        <path
           id="path4125"
           d="m 757.84864,449.58094 0,0 z"
           style="fill:none;stroke:#000000;stroke-width:44.54929733;stroke-linecap:butt;stroke-linejoin:miter;stroke-miterlimit:4;stroke-opacity:1;stroke-dasharray:none"
           inkscape:connector-curvature="0" />
        <ellipse
           sodipodi:ry="23.41321"
           sodipodi:rx="21.564798"
           sodipodi:cy="309.10168"
           sodipodi:cx="281.57465"
           transform="matrix(1.9159051,0,0,1.7338186,-161.06706,-193.63323)"
           id="path4127"
           style="fill:none;stroke:#ffffff;stroke-width:24.44285964999999905;stroke-linecap:round;stroke-linejoin:round;stroke-miterlimit:4;stroke-opacity:1;stroke-dasharray:none;stroke-dashoffset:2.98349976999999988"
           cx="281.57465"
           cy="309.10168"
           rx="21.564798"
           ry="23.41321"
           d="m 303.13944,309.10168 c 0,12.93076 -9.65488,23.41321 -21.56479,23.41321 -11.90991,0 -21.5648,-10.48245 -21.5648,-23.41321 0,-12.93075 9.65489,-23.41321 21.5648,-23.41321 11.90991,0 21.56479,10.48246 21.56479,23.41321 z" />
        <path
           sodipodi:nodetypes="csssscsssssss"
           id="path4129"
           d="m 290.04301,266.76786 c -2.04397,-1.11623 -2.83373,-6.01662 -2.11791,-10.53574 0.88506,-5.58747 -27.21904,-49.15889 -35.38807,-63.18379 -4.08451,-7.01245 -9.59261,-16.53179 -13.3188,-23.53528 -1.86308,-3.50174 -19.15774,-33.53977 -21.02337,-37.69398 -1.86561,-4.15422 6.52833,-0.21908 6.52833,-0.21908 0,0 1.98984,8.87857 4.30071,13.01274 2.31088,4.13419 16.32269,30.67835 18.23497,33.96762 3.82456,6.57853 8.53135,15.48488 13.19555,22.28411 9.32842,13.59847 32.99328,48.07443 37.47145,48.93133 4.68804,0.89704 9.16647,3.28279 9.39401,4.99824 0.37856,2.85414 -2.72402,6.51198 -6.52957,9.12412 -3.80555,2.61213 -8.31406,4.17852 -10.7473,2.84971 z"
           style="fill:none;stroke:#ffffff;stroke-width:44.54929733000000169;stroke-linecap:round;stroke-linejoin:round;stroke-miterlimit:4;stroke-opacity:1;stroke-dasharray:none;stroke-dashoffset:2.98349976999999988"
           inkscape:connector-curvature="0" />
      </g>
      <g
         style="stroke:#000000;stroke-width:44.54929352;stroke-miterlimit:4;stroke-opacity:1;stroke-dasharray:none"
         inkscape:label="Layer 1"
         id="g4131"
         transform="matrix(0.07194903,0.08538878,-0.09001047,0.06825473,-332.05839,840.80784)">
        <path
           inkscape:connector-curvature="0"
           style="fill:none;stroke:#ffffff;stroke-width:44.54929351999999909;stroke-linecap:round;stroke-linejoin:round;stroke-miterlimit:4;stroke-opacity:1;stroke-dasharray:none;stroke-dashoffset:2.98349976999999988"
           d="m 414.47452,415.83979 c -20.86466,10.69021 -17.83785,5.49502 -38.09717,23.81751 -17.32824,15.67163 -24.89995,19.44818 -27.24413,54.16428 -1.38531,20.51562 16.00197,19.92932 35.77573,36.37364 17.5559,14.5999 26.19551,26.40515 40.08875,44.77505 13.89324,18.3699 49.85432,33.98365 51.02107,36.64737 -3.44558,-3.14176 -35.96082,-11.89294 -48.60132,-27.95587 -9.65443,-12.26838 -23.08787,-23.82375 -27.70792,-29.34151 -7.30757,-8.7275 -36.62476,-35.14128 -51.43617,-31.11779 -9.5249,2.58743 -13.66236,22.5323 -18.93207,31.47928 -6.67535,11.33349 -22.45801,34.21949 -38.51313,53.03195 -16.05511,18.81246 -12.97435,52.34357 -12.1136,51.07976 0.20235,1.05227 -2.87129,-34.17246 12.0443,-54.99456 14.91558,-20.82211 31.26957,-42.22434 35.02746,-54.86895 7.01424,-23.6016 10.84897,-34.58487 12.63349,-57.35683 1.73028,-22.07979 3.58329,-27.25563 0.94934,-36.15437 -6.96268,-23.52324 -6.83798,-31.35998 -25.28561,-42.9918 -19.02403,-11.99526 -39.0488,-14.51073 -63.66111,-4.72089 -30.47811,12.12303 -45.02463,26.76332 -60.02604,40.84558 -7.37918,6.92705 -44.25347,46.38368 -49.95028,50.26595 -20.91344,14.25211 -83.208574,50.3993 -83.208574,50.3993 0,0 68.531944,-43.76375 82.209884,-56.49228 9.89128,-9.20471 25.41041,-27.23459 31.34204,-35.262 5.93163,-8.02741 42.01889,-48.46241 68.8532,-66.7344 16.67703,-11.35571 31.61345,-34.36077 29.46287,-48.5409 -2.15058,-14.18013 -19.99793,-44.06875 -31.83764,-52.38584 -14.77641,-10.38004 -26.68585,-37.59684 -38.67747,-41.90625 -20.00847,-7.1904 -40.1214,16.6303 -64.87512,10.66776 -24.75371,-5.96254 -37.062751,-11.3203 -55.715901,-10.34111 -20.485394,1.07537 -55.829464,21.3754 -55.829464,21.3754 0,0 43.589313,-23.83012 57.068409,-25.43014 12.505754,-1.48448 44.929876,5.10457 54.191606,9.27347 13.55825,6.10287 49.91348,-21.22765 67.49272,-18.40482 21.58519,3.46609 20.32236,17.06918 45.1402,30.84634 18.83818,10.45766 44.00838,13.34119 58.56938,0.77114 14.561,-12.57005 16.27216,-27.94889 15.5657,-44.96333 C 319.35188,200.8771 315.28898,175.3943 304.9383,156.91749 298.0549,144.63007 291.11929,131.77715 290.78672,117.80761 290.32526,98.860027 279.598,53.708716 279.598,53.708716 c 0,0 12.29571,47.936934 13.44048,59.846804 2.54904,26.51949 18.05378,37.3678 22.42147,47.45489 10.16056,23.46561 7.62778,38.49952 17.45703,55.25657 8.20576,13.98929 15.85094,25.75639 37.03864,27.27207 21.1877,1.51567 38.75141,-8.92642 52.00622,-21.01343 16.97367,-15.47822 40.57278,-48.83383 48.63899,-58.51006 8.24199,-9.8871 27.25788,-36.16028 41.63623,-60.99417 14.75453,-25.483605 49.37476,-57.820964 49.37476,-57.820964 0.0172,-0.04478 -34.0747,36.809036 -47.05732,58.957234 -13.09264,22.33589 -17.9941,31.2941 -37.54398,58.77736 -19.54989,27.48326 -32.56714,45.73299 -38.43028,67.85604 -4.41393,16.65483 -3.88986,36.80436 0.87191,47.68954 7.24508,16.92275 34.34116,42.09908 46.42303,49.4559 53.02587,32.28825 101.51034,28.26956 151.92011,28.26987 55.59061,3.4e-4 185.48119,10.23275 300.53092,13.6942 115.08829,3.46261 212.34919,3.44239 542.50619,26.93746 19.4541,1.38441 39.3246,-68.90066 73.6214,-101.62548 17.1484,-16.36241 35.5397,-18.44492 58.1658,-30.28351 11.3131,-5.9193 21.5283,-19.82285 29.4795,-33.00857 3.9756,-6.59284 14.6533,-23.97808 23.9459,-38.48492 11.5151,-17.97651 1.8247,-16.88995 7.2682,-25.19399 3.7041,-5.65068 20.4222,7.59233 17.4892,12.42721 -5.1901,8.55562 -11.6836,-1.63955 -22.6903,14.84858 -9.4935,14.22127 -20.1041,30.29728 -23.7913,37.14452 -7.3744,13.69445 -17.4194,28.5255 -29.6959,36.26231 -24.5529,15.47361 -40.7798,14.89305 -55.0267,30.99381 -28.4937,32.20151 -43.5651,71.7053 -38.7619,84.32617 5.4005,14.19047 89.216,10.3945 126.0117,10.78299 29.2019,0.30831 96.2642,11.73547 159.2409,7.72766 31.4884,-2.0039 42.7735,1.52835 78.3954,5.1639 39.3279,3.98233 90.1578,-1.62667 101.5409,1.65641 5.1347,1.48096 0.5803,17.58503 -4.434,16.54448 -11.3565,-2.35668 -11.026,-9.17124 -39.396,-10.42033 -33.8856,-1.52506 -91.1173,-5.91292 -119.1874,-5.37432 -35.0498,0.67253 -224.2751,0.49484 -301.3183,1.65979 -31.0082,0.46887 -382.5664,-19.56396 -422.8557,-19.90197 -40.2893,-0.33801 -250.01969,-3.2356 -299.04991,-4.7432 -49.00782,-1.5069 -122.72113,-12.70096 -165.82711,-9.08207 -43.71015,3.6696 -94.20576,0.30182 -140.66862,9.91938 -46.02282,9.52648 -67.47665,21.85429 -78.81364,27.66291 z"
           id="path4133"
           sodipodi:nodetypes="csssscssssscsssszssscssszsssscsssszssscssszszzczzscsszssssssssssssssssssssszsss" />
        <path
           inkscape:connector-curvature="0"
           style="fill:none;stroke:#ffffff;stroke-width:44.54929351999999909;stroke-linecap:round;stroke-linejoin:round;stroke-miterlimit:4;stroke-opacity:1;stroke-dasharray:none;stroke-dashoffset:2.98349976999999988"
           d="m 511.62898,90.195542 c -2.27087,-0.516615 -4.36687,-5.016 -4.91037,-9.559055 -0.67198,-5.617076 -17.76071,-19.519717 -29.44428,-30.78581 -5.84179,-5.633049 -13.41298,-10.298889 -18.90758,-16.021021 -2.74729,-2.861063 -17.76029,-15.074223 -20.68793,-18.562334 -2.92763,-3.48811 -28.27359,-24.7450674 -28.27359,-24.7450674 0,0 36.24587,28.8724554 39.59642,32.2198914 3.35056,3.347436 11.69824,10.128298 14.43493,12.77153 5.47337,5.286465 4.83037,3.572541 11.17175,8.842386 12.68276,10.539695 35.43502,27.757739 39.97715,27.36112 4.755,-0.415208 9.71426,0.659037 10.40092,2.247454 1.14244,2.642756 -0.84523,7.007984 -3.79435,10.558773 -2.94912,3.55079 -6.8597,6.28714 -9.56307,5.672133 z"
           id="path4135"
           sodipodi:nodetypes="csssscsssssss" />
        <path
           inkscape:connector-curvature="0"
           style="fill:none;stroke:#ffffff;stroke-width:44.54929351999999909;stroke-linecap:round;stroke-linejoin:round;stroke-miterlimit:4;stroke-opacity:1;stroke-dasharray:none;stroke-dashoffset:2.98349976999999988"
           d="m 74.412534,236.34966 c -1.146533,-2.02713 0.769992,-6.60582 3.763852,-10.06583 3.701639,-4.27796 12.064888,-36.07645 12.531884,-52.30027 0.2335,-8.11193 3.59786,-20.33712 1.299059,-24.76685 -1.827048,-3.52068 -13.22394,-19.57784 -12.615087,-24.09086 0.608872,-4.513 -0.07868,-31.4662 -0.07868,-31.4662 0,0 3.046272,24.67372 2.826124,29.40478 -0.220149,4.73109 11.214818,19.80727 12.688433,24.06431 2.33238,6.73789 -0.91537,20.13639 -0.54399,28.37329 0.742791,16.47379 -7.567031,47.50367 -4.216279,50.5957 3.507781,3.23695 6.051575,7.62757 5.339105,9.20456 -1.185362,2.62378 -5.751522,4.09223 -10.362556,4.30141 -4.611024,0.2092 -9.266963,-0.84085 -10.631863,-3.25404 z"
           id="path4137"
           sodipodi:nodetypes="csssscsssssss" />
        <path
           inkscape:connector-curvature="0"
           style="fill:none;stroke:#000000;stroke-width:44.54929352;stroke-linecap:butt;stroke-linejoin:miter;stroke-miterlimit:4;stroke-opacity:1;stroke-dasharray:none"
           d="m 757.84864,449.58094 0,0 z"
           id="path4139" />
        <ellipse
           sodipodi:ry="23.41321"
           sodipodi:rx="21.564798"
           sodipodi:cy="309.10168"
           sodipodi:cx="281.57465"
           style="fill:none;stroke:#ffffff;stroke-width:24.44285774000000089;stroke-linecap:round;stroke-linejoin:round;stroke-miterlimit:4;stroke-opacity:1;stroke-dasharray:none;stroke-dashoffset:2.98349976999999988"
           id="path4141"
           transform="matrix(1.9159051,0,0,1.7338186,-161.06706,-193.63323)"
           cx="281.57465"
           cy="309.10168"
           rx="21.564798"
           ry="23.41321"
           d="m 303.13944,309.10168 c 0,12.93076 -9.65488,23.41321 -21.56479,23.41321 -11.90991,0 -21.5648,-10.48245 -21.5648,-23.41321 0,-12.93075 9.65489,-23.41321 21.5648,-23.41321 11.90991,0 21.56479,10.48246 21.56479,23.41321 z" />
        <path
           inkscape:connector-curvature="0"
           style="fill:none;stroke:#ffffff;stroke-width:44.54929351999999909;stroke-linecap:round;stroke-linejoin:round;stroke-miterlimit:4;stroke-opacity:1;stroke-dasharray:none;stroke-dashoffset:2.98349976999999988"
           d="m 290.04301,266.76786 c -2.04397,-1.11623 -2.83373,-6.01662 -2.11791,-10.53574 0.88506,-5.58747 -27.21904,-49.15889 -35.38807,-63.18379 -4.08451,-7.01245 -9.59261,-16.53179 -13.3188,-23.53528 -1.86308,-3.50174 -19.15774,-33.53977 -21.02337,-37.69398 -1.86561,-4.15422 6.52833,-0.21908 6.52833,-0.21908 0,0 1.98984,8.87857 4.30071,13.01274 2.31088,4.13419 16.32269,30.67835 18.23497,33.96762 3.82456,6.57853 8.53135,15.48488 13.19555,22.28411 9.32842,13.59847 32.99328,48.07443 37.47145,48.93133 4.68804,0.89704 9.16647,3.28279 9.39401,4.99824 0.37856,2.85414 -2.72402,6.51198 -6.52957,9.12412 -3.80555,2.61213 -8.31406,4.17852 -10.7473,2.84971 z"
           id="path4143"
           sodipodi:nodetypes="csssscsssssss" />
      </g>
      <g
         style="stroke:#000000;stroke-width:44.54929352;stroke-miterlimit:4;stroke-opacity:1;stroke-dasharray:none"
         transform="matrix(0.07541639,0.08194614,-0.08705677,0.07243491,-199.24635,1001.1112)"
         id="g4145"
         inkscape:label="Layer 1">
        <path
           sodipodi:nodetypes="csssscssssscsssszssscssszsssscsssszssscssszszzczzscsszssssssssssssssssssssszsss"
           id="path4147"
           d="m 414.47452,415.83979 c -20.86466,10.69021 -17.83785,5.49502 -38.09717,23.81751 -17.32824,15.67163 -24.89995,19.44818 -27.24413,54.16428 -1.38531,20.51562 16.00197,19.92932 35.77573,36.37364 17.5559,14.5999 26.19551,26.40515 40.08875,44.77505 13.89324,18.3699 49.85432,33.98365 51.02107,36.64737 -3.44558,-3.14176 -35.96082,-11.89294 -48.60132,-27.95587 -9.65443,-12.26838 -23.08787,-23.82375 -27.70792,-29.34151 -7.30757,-8.7275 -36.62476,-35.14128 -51.43617,-31.11779 -9.5249,2.58743 -13.66236,22.5323 -18.93207,31.47928 -6.67535,11.33349 -22.45801,34.21949 -38.51313,53.03195 -16.05511,18.81246 -12.97435,52.34357 -12.1136,51.07976 0.20235,1.05227 -2.87129,-34.17246 12.0443,-54.99456 14.91558,-20.82211 31.26957,-42.22434 35.02746,-54.86895 7.01424,-23.6016 10.84897,-34.58487 12.63349,-57.35683 1.73028,-22.07979 3.58329,-27.25563 0.94934,-36.15437 -6.96268,-23.52324 -6.83798,-31.35998 -25.28561,-42.9918 -19.02403,-11.99526 -39.0488,-14.51073 -63.66111,-4.72089 -30.47811,12.12303 -45.02463,26.76332 -60.02604,40.84558 -7.37918,6.92705 -44.25347,46.38368 -49.95028,50.26595 -20.91344,14.25211 -83.208574,50.3993 -83.208574,50.3993 0,0 68.531944,-43.76375 82.209884,-56.49228 9.89128,-9.20471 25.41041,-27.23459 31.34204,-35.262 5.93163,-8.02741 42.01889,-48.46241 68.8532,-66.7344 16.67703,-11.35571 31.61345,-34.36077 29.46287,-48.5409 -2.15058,-14.18013 -19.99793,-44.06875 -31.83764,-52.38584 -14.77641,-10.38004 -26.68585,-37.59684 -38.67747,-41.90625 -20.00847,-7.1904 -40.1214,16.6303 -64.87512,10.66776 -24.75371,-5.96254 -37.062751,-11.3203 -55.715901,-10.34111 -20.485394,1.07537 -55.829464,21.3754 -55.829464,21.3754 0,0 43.589313,-23.83012 57.068409,-25.43014 12.505754,-1.48448 44.929876,5.10457 54.191606,9.27347 13.55825,6.10287 49.91348,-21.22765 67.49272,-18.40482 21.58519,3.46609 20.32236,17.06918 45.1402,30.84634 18.83818,10.45766 44.00838,13.34119 58.56938,0.77114 14.561,-12.57005 16.27216,-27.94889 15.5657,-44.96333 C 319.35188,200.8771 315.28898,175.3943 304.9383,156.91749 298.0549,144.63007 291.11929,131.77715 290.78672,117.80761 290.32526,98.860027 279.598,53.708716 279.598,53.708716 c 0,0 12.29571,47.936934 13.44048,59.846804 2.54904,26.51949 18.05378,37.3678 22.42147,47.45489 10.16056,23.46561 7.62778,38.49952 17.45703,55.25657 8.20576,13.98929 15.85094,25.75639 37.03864,27.27207 21.1877,1.51567 38.75141,-8.92642 52.00622,-21.01343 16.97367,-15.47822 40.57278,-48.83383 48.63899,-58.51006 8.24199,-9.8871 27.25788,-36.16028 41.63623,-60.99417 14.75453,-25.483605 49.37476,-57.820964 49.37476,-57.820964 0.0172,-0.04478 -34.0747,36.809036 -47.05732,58.957234 -13.09264,22.33589 -17.9941,31.2941 -37.54398,58.77736 -19.54989,27.48326 -32.56714,45.73299 -38.43028,67.85604 -4.41393,16.65483 -3.88986,36.80436 0.87191,47.68954 7.24508,16.92275 34.34116,42.09908 46.42303,49.4559 53.02587,32.28825 101.51034,28.26956 151.92011,28.26987 55.59061,3.4e-4 185.48119,10.23275 300.53092,13.6942 115.08829,3.46261 212.34919,3.44239 542.50619,26.93746 19.4541,1.38441 39.3246,-68.90066 73.6214,-101.62548 17.1484,-16.36241 35.5397,-18.44492 58.1658,-30.28351 11.3131,-5.9193 21.5283,-19.82285 29.4795,-33.00857 3.9756,-6.59284 14.6533,-23.97808 23.9459,-38.48492 11.5151,-17.97651 1.8247,-16.88995 7.2682,-25.19399 3.7041,-5.65068 20.4222,7.59233 17.4892,12.42721 -5.1901,8.55562 -11.6836,-1.63955 -22.6903,14.84858 -9.4935,14.22127 -20.1041,30.29728 -23.7913,37.14452 -7.3744,13.69445 -17.4194,28.5255 -29.6959,36.26231 -24.5529,15.47361 -40.7798,14.89305 -55.0267,30.99381 -28.4937,32.20151 -43.5651,71.7053 -38.7619,84.32617 5.4005,14.19047 89.216,10.3945 126.0117,10.78299 29.2019,0.30831 96.2642,11.73547 159.2409,7.72766 31.4884,-2.0039 42.7735,1.52835 78.3954,5.1639 39.3279,3.98233 90.1578,-1.62667 101.5409,1.65641 5.1347,1.48096 0.5803,17.58503 -4.434,16.54448 -11.3565,-2.35668 -11.026,-9.17124 -39.396,-10.42033 -33.8856,-1.52506 -91.1173,-5.91292 -119.1874,-5.37432 -35.0498,0.67253 -224.2751,0.49484 -301.3183,1.65979 -31.0082,0.46887 -382.5664,-19.56396 -422.8557,-19.90197 -40.2893,-0.33801 -250.01969,-3.2356 -299.04991,-4.7432 -49.00782,-1.5069 -122.72113,-12.70096 -165.82711,-9.08207 -43.71015,3.6696 -94.20576,0.30182 -140.66862,9.91938 -46.02282,9.52648 -67.47665,21.85429 -78.81364,27.66291 z"
           style="fill:none;stroke:#ffffff;stroke-width:44.54929351999999909;stroke-linecap:round;stroke-linejoin:round;stroke-miterlimit:4;stroke-opacity:1;stroke-dasharray:none;stroke-dashoffset:2.98349976999999988"
           inkscape:connector-curvature="0" />
        <path
           sodipodi:nodetypes="csssscsssssss"
           id="path4149"
           d="m 511.62898,90.195542 c -2.27087,-0.516615 -4.36687,-5.016 -4.91037,-9.559055 -0.67198,-5.617076 -17.76071,-19.519717 -29.44428,-30.78581 -5.84179,-5.633049 -13.41298,-10.298889 -18.90758,-16.021021 -2.74729,-2.861063 -17.76029,-15.074223 -20.68793,-18.562334 -2.92763,-3.48811 -28.27359,-24.7450674 -28.27359,-24.7450674 0,0 36.24587,28.8724554 39.59642,32.2198914 3.35056,3.347436 11.69824,10.128298 14.43493,12.77153 5.47337,5.286465 4.83037,3.572541 11.17175,8.842386 12.68276,10.539695 35.43502,27.757739 39.97715,27.36112 4.755,-0.415208 9.71426,0.659037 10.40092,2.247454 1.14244,2.642756 -0.84523,7.007984 -3.79435,10.558773 -2.94912,3.55079 -6.8597,6.28714 -9.56307,5.672133 z"
           style="fill:none;stroke:#ffffff;stroke-width:44.54929351999999909;stroke-linecap:round;stroke-linejoin:round;stroke-miterlimit:4;stroke-opacity:1;stroke-dasharray:none;stroke-dashoffset:2.98349976999999988"
           inkscape:connector-curvature="0" />
        <path
           sodipodi:nodetypes="csssscsssssss"
           id="path4151"
           d="m 74.412534,236.34966 c -1.146533,-2.02713 0.769992,-6.60582 3.763852,-10.06583 3.701639,-4.27796 12.064888,-36.07645 12.531884,-52.30027 0.2335,-8.11193 3.59786,-20.33712 1.299059,-24.76685 -1.827048,-3.52068 -13.22394,-19.57784 -12.615087,-24.09086 0.608872,-4.513 -0.07868,-31.4662 -0.07868,-31.4662 0,0 3.046272,24.67372 2.826124,29.40478 -0.220149,4.73109 11.214818,19.80727 12.688433,24.06431 2.33238,6.73789 -0.91537,20.13639 -0.54399,28.37329 0.742791,16.47379 -7.567031,47.50367 -4.216279,50.5957 3.507781,3.23695 6.051575,7.62757 5.339105,9.20456 -1.185362,2.62378 -5.751522,4.09223 -10.362556,4.30141 -4.611024,0.2092 -9.266963,-0.84085 -10.631863,-3.25404 z"
           style="fill:none;stroke:#ffffff;stroke-width:44.54929351999999909;stroke-linecap:round;stroke-linejoin:round;stroke-miterlimit:4;stroke-opacity:1;stroke-dasharray:none;stroke-dashoffset:2.98349976999999988"
           inkscape:connector-curvature="0" />
        <path
           id="path4153"
           d="m 757.84864,449.58094 0,0 z"
           style="fill:none;stroke:#000000;stroke-width:44.54929352;stroke-linecap:butt;stroke-linejoin:miter;stroke-miterlimit:4;stroke-opacity:1;stroke-dasharray:none"
           inkscape:connector-curvature="0" />
        <ellipse
           transform="matrix(1.9159051,0,0,1.7338186,-161.06706,-193.63323)"
           id="path4155"
           style="fill:none;stroke:#ffffff;stroke-width:24.44285964999999905;stroke-linecap:round;stroke-linejoin:round;stroke-miterlimit:4;stroke-opacity:1;stroke-dasharray:none;stroke-dashoffset:2.98349976999999988"
           cx="281.57465"
           cy="309.10168"
           rx="21.564798"
           ry="23.41321"
           d="m 303.13944,309.10168 c 0,12.93076 -9.65488,23.41321 -21.56479,23.41321 -11.90991,0 -21.5648,-10.48245 -21.5648,-23.41321 0,-12.93075 9.65489,-23.41321 21.5648,-23.41321 11.90991,0 21.56479,10.48246 21.56479,23.41321 z"
           sodipodi:cx="281.57465"
           sodipodi:cy="309.10168"
           sodipodi:rx="21.564798"
           sodipodi:ry="23.41321" />
        <path
           sodipodi:nodetypes="csssscsssssss"
           id="path4157"
           d="m 290.04301,266.76786 c -2.04397,-1.11623 -2.83373,-6.01662 -2.11791,-10.53574 0.88506,-5.58747 -27.21904,-49.15889 -35.38807,-63.18379 -4.08451,-7.01245 -9.59261,-16.53179 -13.3188,-23.53528 -1.86308,-3.50174 -19.15774,-33.53977 -21.02337,-37.69398 -1.86561,-4.15422 6.52833,-0.21908 6.52833,-0.21908 0,0 1.98984,8.87857 4.30071,13.01274 2.31088,4.13419 16.32269,30.67835 18.23497,33.96762 3.82456,6.57853 8.53135,15.48488 13.19555,22.28411 9.32842,13.59847 32.99328,48.07443 37.47145,48.93133 4.68804,0.89704 9.16647,3.28279 9.39401,4.99824 0.37856,2.85414 -2.72402,6.51198 -6.52957,9.12412 -3.80555,2.61213 -8.31406,4.17852 -10.7473,2.84971 z"
           style="fill:none;stroke:#ffffff;stroke-width:44.54929351999999909;stroke-linecap:round;stroke-linejoin:round;stroke-miterlimit:4;stroke-opacity:1;stroke-dasharray:none;stroke-dashoffset:2.98349976999999988"
           inkscape:connector-curvature="0" />
      </g>
      <g
         style="font-size:127.29139709px;font-style:normal;font-variant:normal;font-weight:normal;font-stretch:normal;line-height:125%;letter-spacing:0px;word-spacing:0px;fill:#000000;fill-opacity:1;stroke:none;font-family:Symbol;-inkscape-font-specification:Symbol"
         id="text4159">
        <path
           d="m 24.876363,842.03375 0,408.57545 -94.871856,0 0,-31.9968 53.477296,0 0,-344.58178 -53.477296,0 0,-31.99687 94.871856,0"
           style="font-size:458.24896239999998215px;font-family:Sans;-inkscape-font-specification:Sans;fill:#ffffff;fill-opacity:1"
           id="path3041" />
        <path
           d="m 221.55645,1064.2218 c -33.26494,2e-4 -56.31162,3.804 -69.1401,11.4115 -12.82866,7.6078 -19.24294,20.5855 -19.24288,38.9333 -6e-5,14.6187 4.77336,26.2539 14.32028,34.9057 9.69593,8.5027 22.82284,12.754 39.38077,12.754 22.82281,0 41.09606,-8.0552 54.81983,-24.1655 13.87258,-16.2594 20.80896,-37.8144 20.80915,-64.665 l 0,-9.174 -40.94705,0 m 82.11786,-17.0053 0,142.9791 -41.17081,0 0,-38.0383 c -9.39787,15.2153 -21.10767,26.4776 -35.12943,33.7869 -14.02209,7.1602 -31.17658,10.7402 -51.46351,10.7402 -25.65725,0 -46.09347,-7.1601 -61.3087,-21.4804 -15.066162,-14.4694 -22.599219,-33.7868 -22.599191,-57.9524 -2.8e-5,-28.1929 9.397651,-49.4496 28.193051,-63.77 18.94446,-14.3201 47.13749,-21.4802 84.57915,-21.4804 l 57.72863,0 0,-4.0276 c -1.9e-4,-18.9443 -6.26531,-33.56293 -18.79536,-43.85582 -12.38125,-10.44166 -29.83407,-15.66259 -52.35853,-15.66281 -14.32039,2.2e-4 -28.26773,1.71567 -41.84207,5.14635 -13.5745,3.43111 -26.62683,8.57746 -39.15701,15.43905 l 0,-38.03824 c 15.06606,-5.81737 29.68467,-10.14328 43.85586,-12.97776 14.171,-2.98313 27.96917,-4.47483 41.39456,-4.47508 36.24804,2.5e-4 63.32229,9.39793 81.22283,28.19305 17.90012,18.79558 26.85029,47.28696 26.85053,85.47416"
           style="font-size:458.24896239999998215px;font-family:Sans;-inkscape-font-specification:Sans;fill:#ffffff;fill-opacity:1"
           id="path3043" />
        <path
           d="m 568.5995,1065.1169 c -2.2e-4,-30.2813 -6.26534,-53.9993 -18.79537,-71.15393 -12.38126,-17.30346 -29.46116,-25.95529 -51.23975,-25.95551 -21.77889,2.2e-4 -38.93337,8.65205 -51.46351,25.95551 -12.38116,17.15463 -18.57169,40.87263 -18.57161,71.15393 -8e-5,30.2815 6.19045,54.074 18.57161,71.3776 12.53014,17.1545 29.68462,25.7318 51.46351,25.7318 21.77859,0 38.85849,-8.5773 51.23975,-25.7318 12.53003,-17.3036 18.79515,-41.0961 18.79537,-71.3776 m -140.07024,-87.488 c 8.65175,-14.91673 19.54111,-25.95527 32.66814,-33.11565 13.27596,-7.30906 29.08792,-10.96371 47.43593,-10.96396 30.4304,2.5e-4 55.11794,12.08298 74.0627,36.24821 19.09345,24.16566 28.64029,55.9388 28.64056,95.3194 -2.7e-4,39.3808 -9.54711,71.1539 -28.64056,95.3193 -18.94476,24.1655 -43.6323,36.2482 -74.0627,36.2482 -18.34801,0 -34.15997,-3.58 -47.43593,-10.7402 -13.12703,-7.3093 -24.01639,-18.4224 -32.66814,-33.3394 l 0,37.5908 -41.39456,0 0,-348.16185 41.39456,0 0,135.59515"
           style="font-size:458.24896239999998215px;font-family:Sans;-inkscape-font-specification:Sans;fill:#ffffff;fill-opacity:1"
           id="path3045" />
      </g>
      <g
         style="font-size:127.29139709px;font-style:normal;font-variant:normal;font-weight:normal;font-stretch:normal;line-height:125%;letter-spacing:0px;word-spacing:0px;fill:#000000;fill-opacity:1;stroke:none;font-family:Symbol;-inkscape-font-specification:Symbol"
         id="text4163">
        <path
           d="m -734.01375,893.2735 0,125.5262 56.83361,0 c 21.03274,2e-4 37.29221,-5.4445 48.77845,-16.3341 11.48585,-10.88915 17.22888,-26.40277 17.22909,-46.54088 -2.1e-4,-19.98847 -5.74324,-35.4275 -17.22909,-46.31715 -11.48624,-10.88909 -27.74571,-16.33377 -48.77845,-16.33407 l -56.83361,0 m -45.19839,-37.14323 102.032,0 c 37.44138,3.4e-4 65.70899,8.50299 84.80291,25.508 19.24262,16.85646 28.86405,41.61858 28.86431,74.28645 -2.6e-4,32.96668 -9.62169,57.87798 -28.86431,74.73398 -19.09392,16.8563 -47.36153,25.2844 -84.80291,25.2842 l -56.83361,0 0,134.2527 -45.19839,0 0,-334.06533"
           style="font-size:458.24896239999998215px;font-family:Sans;-inkscape-font-specification:Sans;fill:#ffffff;fill-opacity:1"
           id="path3036" />
        <path
           d="m -508.2456,842.03375 94.87185,0 0,31.99687 -53.70105,0 0,344.58178 53.70105,0 0,31.9968 -94.87185,0 0,-408.57545"
           style="font-size:458.24896239999998215px;font-family:Sans;-inkscape-font-specification:Sans;fill:#ffffff;fill-opacity:1"
           id="path3038" />
      </g>
    </g>
  </g>
</svg>
